STARTFONT 2.1
COMMENT
COMMENT Converted from OpenType font "IBMPlexSans-Medium.ttf" by "otf2bdf 3.0".
COMMENT
FONT -FreeType-IBM Plex Sans Medm-Medium-R-Normal--36-360-72-72-P-183-ISO10646-1
SIZE 36 72 72
FONTBOUNDINGBOX 54 50 -8 -9
STARTPROPERTIES 19
FOUNDRY "FreeType"
FAMILY_NAME "IBM Plex Sans Medm"
WEIGHT_NAME "Medium"
SLANT "R"
SETWIDTH_NAME "Normal"
ADD_STYLE_NAME ""
PIXEL_SIZE 36
POINT_SIZE 360
RESOLUTION_X 72
RESOLUTION_Y 72
SPACING "P"
AVERAGE_WIDTH 183
CHARSET_REGISTRY "ISO10646"
CHARSET_ENCODING "1"
FONT_ASCENT 36
FONT_DESCENT 9
COPYRIGHT "Copyright 2018 IBM Corp. All rights reserved."
_OTF_FONTFILE "IBMPlexSans-Medium.ttf"
_OTF_PSNAME "IBMPlexSans-Medm"
ENDPROPERTIES
CHARS 844
STARTCHAR 0000
ENCODING 0
SWIDTH 0 0
DWIDTH 0 0
BBX 0 0 0 0
BITMAP
ENDCHAR
STARTCHAR 000D
ENCODING 13
SWIDTH 250 0
DWIDTH 9 0
BBX 0 0 0 0
BITMAP
ENDCHAR
STARTCHAR 0020
ENCODING 32
SWIDTH 250 0
DWIDTH 9 0
BBX 0 0 0 0
BITMAP
ENDCHAR
STARTCHAR 0021
ENCODING 33
SWIDTH 305 0
DWIDTH 11 0
BBX 5 25 3 0
BITMAP
F0
F0
F0
F0
F0
F0
F0
F0
F0
F0
70
70
70
70
70
70
60
60
00
00
70
F8
F8
F8
F0
ENDCHAR
STARTCHAR 0022
ENCODING 34
SWIDTH 444 0
DWIDTH 16 0
BBX 10 11 3 16
BITMAP
E1C0
E1C0
E1C0
E1C0
E1C0
E1C0
E1C0
E1C0
E1C0
E1C0
E1C0
ENDCHAR
STARTCHAR 0023
ENCODING 35
SWIDTH 666 0
DWIDTH 24 0
BBX 22 25 1 0
BITMAP
00E0E0
00C0E0
01C0E0
01C0C0
01C1C0
01C1C0
0181C0
3FFFFC
3FFFFC
3FFFFC
038380
038380
030380
070380
070300
FFFFF0
FFFFF0
FFFFF0
060700
0E0700
0E0600
0E0E00
0E0E00
0C0E00
1C0E00
ENDCHAR
STARTCHAR 0024
ENCODING 36
SWIDTH 611 0
DWIDTH 22 0
BBX 18 31 2 -3
BITMAP
01C000
01C000
01C000
01C000
07F800
1FFE00
3FFF80
7CCF80
F8C300
F0C200
F0C000
F0C000
7CC000
7FC000
3FF800
0FFE00
01FF00
00CF80
00C7C0
00C3C0
00C3C0
60C3C0
F0C780
FCCF80
7FFF00
3FFE00
0FF000
01C000
01C000
01C000
01C000
ENDCHAR
STARTCHAR 0025
ENCODING 37
SWIDTH 944 0
DWIDTH 34 0
BBX 30 25 2 0
BITMAP
1F8003C0
3FC00780
7FE00F00
78F01E00
F0F01C00
F0703C00
F0707800
F0707000
F070F000
F0F1E000
78F1C000
7FE3C7E0
3FC78FF0
1F871FF8
000E3C38
001E3C3C
003C383C
0038381C
0078381C
00F0383C
00E03C3C
01E03C38
03C01FF8
03800FF0
078007E0
ENDCHAR
STARTCHAR 0026
ENCODING 38
SWIDTH 694 0
DWIDTH 25 0
BBX 23 25 2 0
BITMAP
03F000
07FC00
0FFE00
1F1F00
1E0F00
1C0F00
1C0F00
1E0F00
1E1E00
0F7C00
0FF800
07E000
0FE07C
3FF0FC
3CF8FC
787CE0
F03EE0
F01FE0
F00FC0
F007C0
7807E0
7C1FF0
3FFEF8
1FFC78
07F03E
ENDCHAR
STARTCHAR 0027
ENCODING 39
SWIDTH 250 0
DWIDTH 9 0
BBX 3 11 3 16
BITMAP
E0
E0
E0
E0
E0
E0
E0
E0
E0
E0
E0
ENDCHAR
STARTCHAR 0028
ENCODING 40
SWIDTH 333 0
DWIDTH 12 0
BBX 10 32 2 -5
BITMAP
03C0
0780
0F00
0E00
1E00
1C00
3C00
3800
7800
7800
7000
7000
F000
F000
F000
F000
F000
F000
F000
F000
7000
7000
7800
7800
3800
3C00
1C00
1E00
0E00
0F00
0780
03C0
ENDCHAR
STARTCHAR 0029
ENCODING 41
SWIDTH 333 0
DWIDTH 12 0
BBX 10 32 0 -5
BITMAP
F000
7800
3C00
1C00
1E00
0F00
0F00
0700
0780
0780
0380
0380
03C0
03C0
03C0
03C0
03C0
03C0
03C0
03C0
0380
0380
0780
0780
0700
0F00
0F00
1E00
1C00
3C00
7800
F000
ENDCHAR
STARTCHAR 002A
ENCODING 42
SWIDTH 527 0
DWIDTH 19 0
BBX 16 15 1 12
BITMAP
01C0
01C0
01C0
01C0
61C6
7DDF
FFFF
3FFC
03E0
07E0
0FF0
0E78
1E3C
3C3C
0818
ENDCHAR
STARTCHAR 002B
ENCODING 43
SWIDTH 611 0
DWIDTH 22 0
BBX 17 17 2 2
BITMAP
01E000
01E000
01E000
01E000
01E000
01E000
01E000
FFFF80
FFFF80
FFFF80
01E000
01E000
01E000
01E000
01E000
01E000
01E000
ENDCHAR
STARTCHAR 002C
ENCODING 44
SWIDTH 277 0
DWIDTH 10 0
BBX 7 10 1 -5
BITMAP
3C
3E
3E
3E
3E
1C
1C
38
38
F0
ENDCHAR
STARTCHAR 002D
ENCODING 45
SWIDTH 388 0
DWIDTH 14 0
BBX 10 4 2 9
BITMAP
FFC0
FFC0
FFC0
FFC0
ENDCHAR
STARTCHAR 002E
ENCODING 46
SWIDTH 277 0
DWIDTH 10 0
BBX 5 5 3 0
BITMAP
F0
F8
F8
F8
F0
ENDCHAR
STARTCHAR 002F
ENCODING 47
SWIDTH 416 0
DWIDTH 15 0
BBX 14 32 0 -5
BITMAP
003C
0038
0078
0078
0070
00F0
00F0
00E0
00E0
01E0
01C0
01C0
03C0
0380
0380
0780
0700
0700
0F00
0F00
0E00
0E00
1E00
1C00
1C00
3C00
3800
3800
7800
7000
7000
F000
ENDCHAR
STARTCHAR 0030
ENCODING 48
SWIDTH 611 0
DWIDTH 22 0
BBX 18 25 2 0
BITMAP
03F000
0FFC00
3FFE00
3E1F00
780F00
780780
F00780
F00780
F007C0
F003C0
F003C0
F003C0
F003C0
F003C0
F003C0
F003C0
F007C0
F00780
F00780
780780
780F00
3E1F00
3FFE00
0FFC00
03F000
ENDCHAR
STARTCHAR 0031
ENCODING 49
SWIDTH 611 0
DWIDTH 22 0
BBX 18 25 2 0
BITMAP
03F000
07F000
0FF000
1EF000
3EF000
7CF000
F8F000
F0F000
60F000
20F000
00F000
00F000
00F000
00F000
00F000
00F000
00F000
00F000
00F000
00F000
00F000
00F000
7FFFC0
7FFFC0
7FFFC0
ENDCHAR
STARTCHAR 0032
ENCODING 50
SWIDTH 611 0
DWIDTH 22 0
BBX 17 25 2 0
BITMAP
07F000
1FFC00
3FFE00
7C3F00
F80F00
F00F80
300F80
000F80
000F80
000F00
000F00
001F00
003E00
007C00
00F800
01F000
03E000
07C000
0F8000
1E0000
3C0000
F80000
FFFF80
FFFF80
FFFF80
ENDCHAR
STARTCHAR 0033
ENCODING 51
SWIDTH 611 0
DWIDTH 22 0
BBX 18 25 1 0
BITMAP
03F800
1FFE00
3FFF00
7E1F80
380F80
100780
000780
000780
000780
000F80
001F00
03FC00
03F800
03FE00
001F00
000780
000780
0007C0
0007C0
3007C0
780780
FC1F80
7FFF00
1FFE00
07F000
ENDCHAR
STARTCHAR 0034
ENCODING 52
SWIDTH 611 0
DWIDTH 22 0
BBX 19 25 1 0
BITMAP
003F00
003F00
007F00
00FF00
00EF00
01EF00
03CF00
038F00
078F00
070F00
0F0F00
1E0F00
1C0F00
3C0F00
380F00
780F00
F00F00
FFFFE0
FFFFE0
FFFFE0
000F00
000F00
000F00
000F00
000F00
ENDCHAR
STARTCHAR 0035
ENCODING 53
SWIDTH 611 0
DWIDTH 22 0
BBX 18 25 2 0
BITMAP
3FFF00
3FFF00
3FFF00
380000
380000
380000
380000
780000
780000
79F800
7BFE00
7FFF00
7C1F80
780F80
000780
0007C0
0007C0
0007C0
200780
300780
780F80
FC1F00
3FFE00
1FFC00
07F000
ENDCHAR
STARTCHAR 0036
ENCODING 54
SWIDTH 611 0
DWIDTH 22 0
BBX 18 25 2 0
BITMAP
00FC00
01F000
03E000
07C000
0F8000
1F0000
1E0000
3C0000
3C0000
78F800
7BFE00
F7FF00
FC1F80
F80780
F80780
F007C0
F003C0
F007C0
F007C0
780780
780780
3E1F00
3FFE00
0FFC00
03F000
ENDCHAR
STARTCHAR 0037
ENCODING 55
SWIDTH 611 0
DWIDTH 22 0
BBX 17 25 2 0
BITMAP
FFFF80
FFFF80
FFFF80
F00780
F00780
F00F00
F00F00
F01F00
001E00
001E00
003C00
003C00
007C00
007800
00F800
00F000
00F000
01F000
01E000
03E000
03C000
03C000
078000
078000
0F8000
ENDCHAR
STARTCHAR 0038
ENCODING 56
SWIDTH 611 0
DWIDTH 22 0
BBX 18 25 2 0
BITMAP
07F000
1FFC00
3FFF00
7C1F00
780F80
780780
780780
780780
780780
780F00
3C1E00
1FFC00
07F800
3FFE00
7C1F00
F80780
F007C0
F003C0
F003C0
F007C0
F80780
7C0F80
7FFF00
1FFE00
07F800
ENDCHAR
STARTCHAR 0039
ENCODING 57
SWIDTH 611 0
DWIDTH 22 0
BBX 18 25 2 0
BITMAP
03F000
1FFC00
3FFE00
7C1F00
780F80
F00780
F00780
F00780
F007C0
F007C0
F007C0
F80F80
7C1F80
3FFF80
1FF780
0FCF00
000F00
001F00
001E00
003C00
007C00
00F800
01F000
07E000
1F8000
ENDCHAR
STARTCHAR 003A
ENCODING 58
SWIDTH 305 0
DWIDTH 11 0
BBX 5 19 3 0
BITMAP
70
F8
F8
F8
70
00
00
00
00
00
00
00
00
00
70
F8
F8
F8
70
ENDCHAR
STARTCHAR 003B
ENCODING 59
SWIDTH 305 0
DWIDTH 11 0
BBX 6 24 2 -5
BITMAP
38
7C
7C
7C
38
00
00
00
00
00
00
00
00
00
38
7C
7C
7C
3C
1C
38
38
70
E0
ENDCHAR
STARTCHAR 003C
ENCODING 60
SWIDTH 611 0
DWIDTH 22 0
BBX 15 21 3 0
BITMAP
0002
0006
001E
007E
00FC
03F8
07E0
1F80
7F00
FC00
F000
FC00
7F00
1F80
07E0
03F8
00FC
007E
001E
0006
0002
ENDCHAR
STARTCHAR 003D
ENCODING 61
SWIDTH 611 0
DWIDTH 22 0
BBX 17 10 2 6
BITMAP
FFFF80
FFFF80
FFFF80
000000
000000
000000
000000
FFFF80
FFFF80
FFFF80
ENDCHAR
STARTCHAR 003E
ENCODING 62
SWIDTH 611 0
DWIDTH 22 0
BBX 15 21 3 0
BITMAP
8000
E000
F800
FC00
7F00
1F80
07E0
03F8
00FC
003E
001E
003E
00FC
03F8
07E0
1F80
7F00
FC00
F800
E000
8000
ENDCHAR
STARTCHAR 003F
ENCODING 63
SWIDTH 500 0
DWIDTH 18 0
BBX 15 25 1 0
BITMAP
0FE0
3FF8
7FFC
F83E
F01E
F01E
201E
001E
001E
003E
007C
03FC
07F0
07E0
0780
0780
0780
0000
0000
0000
0780
0FC0
0FC0
07C0
0780
ENDCHAR
STARTCHAR 0040
ENCODING 64
SWIDTH 888 0
DWIDTH 32 0
BBX 28 29 2 -4
BITMAP
003FE000
00FFF800
03FFFE00
07E03F00
0F000780
1E0003C0
3C0001E0
380000E0
701E70E0
707F7070
70FFF070
60F0F070
E1E07070
E1E07070
E1E07070
E1E07070
E1E07070
E1E070E0
60F0F8E0
70FFBFC0
707F3FC0
381E1F00
3C000000
1E000000
0F000000
07E00000
03FFFC00
01FFFC00
003FFC00
ENDCHAR
STARTCHAR 0041
ENCODING 65
SWIDTH 666 0
DWIDTH 24 0
BBX 22 25 1 0
BITMAP
00FC00
00FC00
01FC00
01FE00
01DE00
03DE00
03CF00
03CF00
078F00
078780
078780
0F0780
0F03C0
0F03C0
1E03C0
1FFFE0
1FFFE0
3FFFE0
3C00F0
3C00F0
7800F8
780078
780078
F0007C
F0003C
ENDCHAR
STARTCHAR 0042
ENCODING 66
SWIDTH 666 0
DWIDTH 24 0
BBX 19 25 3 0
BITMAP
FFFC00
FFFF00
FFFF80
F00F80
F007C0
F003C0
F003C0
F003C0
F003C0
F00780
F00F80
FFFE00
FFFE00
FFFF80
F007C0
F003C0
F003E0
F001E0
F001E0
F003E0
F003C0
F007C0
FFFF80
FFFF00
FFFE00
ENDCHAR
STARTCHAR 0043
ENCODING 67
SWIDTH 638 0
DWIDTH 23 0
BBX 20 25 2 0
BITMAP
01FC00
07FF80
1FFFC0
1F07E0
3C01E0
7C01E0
780080
780000
F00000
F00000
F00000
F00000
F00000
F00000
F00000
F00000
F00000
780000
780080
7C01E0
3C01F0
1F07E0
1FFFC0
07FF00
01FC00
ENDCHAR
STARTCHAR 0044
ENCODING 68
SWIDTH 694 0
DWIDTH 25 0
BBX 20 25 3 0
BITMAP
FFF800
FFFE00
FFFF00
F00F80
F007C0
F003C0
F001E0
F001E0
F001E0
F001E0
F001F0
F001F0
F001F0
F001F0
F001F0
F001E0
F001E0
F001E0
F001E0
F003C0
F007C0
F00F80
FFFF00
FFFE00
FFF800
ENDCHAR
STARTCHAR 0045
ENCODING 69
SWIDTH 583 0
DWIDTH 21 0
BBX 16 25 3 0
BITMAP
FFFF
FFFF
FFFF
F000
F000
F000
F000
F000
F000
F000
F000
FFFE
FFFE
FFFE
F000
F000
F000
F000
F000
F000
F000
F000
FFFF
FFFF
FFFF
ENDCHAR
STARTCHAR 0046
ENCODING 70
SWIDTH 583 0
DWIDTH 21 0
BBX 16 25 3 0
BITMAP
FFFF
FFFF
FFFF
F000
F000
F000
F000
F000
F000
F000
F000
FFFE
FFFE
FFFE
F000
F000
F000
F000
F000
F000
F000
F000
F000
F000
F000
ENDCHAR
STARTCHAR 0047
ENCODING 71
SWIDTH 694 0
DWIDTH 25 0
BBX 21 25 2 0
BITMAP
01FE00
07FF80
0FFFC0
1F03E0
3E01F0
7C00F0
780040
780000
F00000
F00000
F00000
F00000
F00FF8
F00FF8
F00FF8
F00078
F00078
780078
780078
7C00F8
3E01F8
1F03F8
0FFFF8
07FF78
01FC78
ENDCHAR
STARTCHAR 0048
ENCODING 72
SWIDTH 722 0
DWIDTH 26 0
BBX 20 25 3 0
BITMAP
F000F0
F000F0
F000F0
F000F0
F000F0
F000F0
F000F0
F000F0
F000F0
F000F0
F000F0
FFFFF0
FFFFF0
FFFFF0
F000F0
F000F0
F000F0
F000F0
F000F0
F000F0
F000F0
F000F0
F000F0
F000F0
F000F0
ENDCHAR
STARTCHAR 0049
ENCODING 73
SWIDTH 416 0
DWIDTH 15 0
BBX 11 25 2 0
BITMAP
FFE0
FFE0
FFE0
1F00
1F00
1F00
1F00
1F00
1F00
1F00
1F00
1F00
1F00
1F00
1F00
1F00
1F00
1F00
1F00
1F00
1F00
1F00
FFE0
FFE0
FFE0
ENDCHAR
STARTCHAR 004A
ENCODING 74
SWIDTH 527 0
DWIDTH 19 0
BBX 15 25 1 0
BITMAP
1FFE
1FFE
1FFE
001E
001E
001E
001E
001E
001E
001E
001E
001E
001E
001E
001E
001E
001E
001E
101E
F01E
F83E
7C7C
7FFC
3FF8
0FE0
ENDCHAR
STARTCHAR 004B
ENCODING 75
SWIDTH 666 0
DWIDTH 24 0
BBX 20 25 3 0
BITMAP
F003E0
F007C0
F00780
F00F00
F01F00
F03E00
F07C00
F0F800
F0F000
F1E000
F3E000
F7E000
FFF000
FEF000
FEF800
FC7C00
F83C00
F03E00
F01F00
F00F00
F00F80
F007C0
F003C0
F003E0
F001F0
ENDCHAR
STARTCHAR 004C
ENCODING 76
SWIDTH 500 0
DWIDTH 18 0
BBX 14 25 3 0
BITMAP
F000
F000
F000
F000
F000
F000
F000
F000
F000
F000
F000
F000
F000
F000
F000
F000
F000
F000
F000
F000
F000
F000
FFFC
FFFC
FFFC
ENDCHAR
STARTCHAR 004D
ENCODING 77
SWIDTH 805 0
DWIDTH 29 0
BBX 23 25 3 0
BITMAP
F8003E
FC003E
FC007E
FE007E
FE00FE
FF00FE
FF01FE
F781DE
F783DE
F3C39E
F3C79E
F1E71E
F0FF1E
F0FE1E
F07E1E
F07C1E
F03C1E
F0381E
F0101E
F0101E
F0001E
F0001E
F0001E
F0001E
F0001E
ENDCHAR
STARTCHAR 004E
ENCODING 78
SWIDTH 722 0
DWIDTH 26 0
BBX 20 25 3 0
BITMAP
F800F0
FC00F0
FC00F0
FE00F0
FE00F0
FF00F0
FF80F0
F780F0
F7C0F0
F3C0F0
F3E0F0
F1E0F0
F0F0F0
F0F8F0
F078F0
F07CF0
F03CF0
F01EF0
F01EF0
F00FF0
F00FF0
F007F0
F003F0
F003F0
F001F0
ENDCHAR
STARTCHAR 004F
ENCODING 79
SWIDTH 722 0
DWIDTH 26 0
BBX 22 25 2 0
BITMAP
01FC00
07FF80
0FFFC0
1F07E0
3E01F0
7C00F0
7800F8
780078
F80078
F00078
F0007C
F0007C
F0007C
F0007C
F0007C
F00078
F00078
780078
7800F8
7C00F0
3E01F0
1F07E0
0FFFC0
07FF80
01FC00
ENDCHAR
STARTCHAR 0050
ENCODING 80
SWIDTH 638 0
DWIDTH 23 0
BBX 18 25 3 0
BITMAP
FFFC00
FFFF00
FFFF80
F00F80
F007C0
F003C0
F003C0
F003C0
F003C0
F003C0
F007C0
F00780
FFFF80
FFFF00
FFFC00
F00000
F00000
F00000
F00000
F00000
F00000
F00000
F00000
F00000
F00000
ENDCHAR
STARTCHAR 0051
ENCODING 81
SWIDTH 722 0
DWIDTH 26 0
BBX 22 31 2 -6
BITMAP
01FC00
07FF80
0FFFC0
1F07E0
3E01F0
7C00F0
7800F8
780078
F80078
F00078
F0007C
F0007C
F0007C
F0007C
F0007C
F00078
F00078
780078
7800F8
7C00F0
3E01F0
1F07E0
0FFFC0
07FF80
01FE00
007800
007800
007800
007F80
003F80
001F80
ENDCHAR
STARTCHAR 0052
ENCODING 82
SWIDTH 666 0
DWIDTH 24 0
BBX 19 25 3 0
BITMAP
FFFC00
FFFF00
FFFF80
F00F80
F007C0
F003C0
F003C0
F003C0
F003C0
F003C0
F007C0
F00780
FFFF80
FFFF00
FFFC00
F07C00
F03C00
F03E00
F01E00
F01F00
F00F00
F00F80
F00780
F007C0
F003E0
ENDCHAR
STARTCHAR 0053
ENCODING 83
SWIDTH 611 0
DWIDTH 22 0
BBX 19 25 1 0
BITMAP
03FC00
0FFF00
1FFF80
3E07C0
3C0380
780100
780000
780000
7C0000
3E0000
3FC000
1FFC00
07FF00
00FF80
000FC0
0003C0
0001E0
0001E0
0001E0
3003E0
7803C0
FE0FC0
3FFF80
1FFF00
03F800
ENDCHAR
STARTCHAR 0054
ENCODING 84
SWIDTH 583 0
DWIDTH 21 0
BBX 19 25 1 0
BITMAP
FFFFE0
FFFFE0
FFFFE0
01E000
01E000
01E000
01E000
01E000
01E000
01E000
01E000
01E000
01E000
01E000
01E000
01E000
01E000
01E000
01E000
01E000
01E000
01E000
01E000
01E000
01E000
ENDCHAR
STARTCHAR 0055
ENCODING 85
SWIDTH 694 0
DWIDTH 25 0
BBX 19 25 3 0
BITMAP
F001E0
F001E0
F001E0
F001E0
F001E0
F001E0
F001E0
F001E0
F001E0
F001E0
F001E0
F001E0
F001E0
F001E0
F001E0
F001E0
F001E0
F001E0
F003C0
7803C0
7807C0
7E0F80
3FFF80
1FFE00
07F800
ENDCHAR
STARTCHAR 0056
ENCODING 86
SWIDTH 638 0
DWIDTH 23 0
BBX 21 25 1 0
BITMAP
F00078
F000F0
F800F0
7800F0
7801E0
7C01E0
3C01E0
3C03C0
3E03C0
1E03C0
1E0780
1F0780
0F0780
0F0700
0F0F00
078F00
078E00
079E00
03DE00
03DC00
03DC00
01FC00
01F800
01F800
00F800
ENDCHAR
STARTCHAR 0057
ENCODING 87
SWIDTH 916 0
DWIDTH 33 0
BBX 31 25 1 0
BITMAP
F007C01E
F007C01E
F807E01E
7807E01E
780FE03C
780EE03C
780EF03C
3C0EF03C
3C1E7038
3C1C7078
3C1C7878
1C1C7878
1E3C3870
1E3838F0
1E383CF0
0E383CF0
0F781CE0
0F701CE0
0F701DE0
0F701FE0
07F00FC0
07E00FC0
07E00FC0
07E00FC0
03E00780
ENDCHAR
STARTCHAR 0058
ENCODING 88
SWIDTH 638 0
DWIDTH 23 0
BBX 21 25 1 0
BITMAP
F800F8
7C01F0
3C01E0
3E03E0
1F03C0
0F0780
0F8F80
078F00
07DE00
03FE00
01FC00
01F800
00F800
01FC00
03FE00
03DE00
079F00
078F00
0F0F80
1F07C0
1E03C0
3C03E0
7C01F0
7800F0
F800F8
ENDCHAR
STARTCHAR 0059
ENCODING 89
SWIDTH 611 0
DWIDTH 22 0
BBX 22 25 0 0
BITMAP
F8007C
7C0078
3C00F0
3E01F0
1F01E0
0F03E0
0F83C0
078780
07C780
03CF00
03EF00
01FE00
00FE00
00FC00
007800
007800
007800
007800
007800
007800
007800
007800
007800
007800
007800
ENDCHAR
STARTCHAR 005A
ENCODING 90
SWIDTH 583 0
DWIDTH 21 0
BBX 19 25 1 0
BITMAP
7FFFE0
7FFFE0
7FFFE0
0003C0
000780
000F80
001F00
001E00
003E00
007C00
007800
00F000
01F000
03E000
03C000
07C000
0F8000
0F0000
1E0000
3E0000
7C0000
780000
FFFFE0
FFFFE0
FFFFE0
ENDCHAR
STARTCHAR 005B
ENCODING 91
SWIDTH 333 0
DWIDTH 12 0
BBX 7 32 3 -5
BITMAP
FE
FE
FE
F0
F0
F0
F0
F0
F0
F0
F0
F0
F0
F0
F0
F0
F0
F0
F0
F0
F0
F0
F0
F0
F0
F0
F0
F0
F0
FE
FE
FE
ENDCHAR
STARTCHAR 005C
ENCODING 92
SWIDTH 416 0
DWIDTH 15 0
BBX 14 32 1 -5
BITMAP
F000
7000
7800
7800
3800
3C00
3C00
1C00
1C00
1E00
0E00
0E00
0F00
0700
0700
0780
0380
0380
03C0
03C0
01C0
01C0
01E0
00E0
00E0
00F0
0070
0070
0078
0038
0038
003C
ENDCHAR
STARTCHAR 005D
ENCODING 93
SWIDTH 333 0
DWIDTH 12 0
BBX 7 32 2 -5
BITMAP
FE
FE
FE
1E
1E
1E
1E
1E
1E
1E
1E
1E
1E
1E
1E
1E
1E
1E
1E
1E
1E
1E
1E
1E
1E
1E
1E
1E
1E
FE
FE
FE
ENDCHAR
STARTCHAR 005E
ENCODING 94
SWIDTH 611 0
DWIDTH 22 0
BBX 18 15 2 10
BITMAP
01E000
03E000
03F000
07F800
0F7800
0F3C00
1E3C00
1E1E00
3C1E00
3C0F00
780F00
700780
F003C0
E00380
200200
ENDCHAR
STARTCHAR 005F
ENCODING 95
SWIDTH 555 0
DWIDTH 20 0
BBX 18 3 1 -6
BITMAP
FFFFC0
FFFFC0
FFFFC0
ENDCHAR
STARTCHAR 0060
ENCODING 96
SWIDTH 611 0
DWIDTH 22 0
BBX 7 8 6 21
BITMAP
10
70
F8
78
3C
1C
1E
08
ENDCHAR
STARTCHAR 0061
ENCODING 97
SWIDTH 555 0
DWIDTH 20 0
BBX 18 19 1 0
BITMAP
07F000
1FFC00
3FFE00
7C3E00
301E00
000F00
000F00
000F00
0FFF00
3FFF00
7FFF00
7C0F00
F80F00
F00F00
F81F00
783F00
7FFFC0
3FE7C0
0F83C0
ENDCHAR
STARTCHAR 0062
ENCODING 98
SWIDTH 583 0
DWIDTH 21 0
BBX 17 27 3 0
BITMAP
F00000
F00000
F00000
F00000
F00000
F00000
F00000
F00000
F1F000
F7FC00
FFFE00
FC3E00
F01F00
F00F00
F00F00
F00F80
F00F80
F00F80
F00F80
F00F80
F00F00
F00F00
F01F00
FC3E00
FFFE00
F7FC00
F1F000
ENDCHAR
STARTCHAR 0063
ENCODING 99
SWIDTH 500 0
DWIDTH 18 0
BBX 15 19 2 0
BITMAP
07E0
1FF8
3FFC
7C3E
781E
F008
F000
F000
F000
F000
F000
F000
F000
F00C
781E
7C3E
3FFC
1FF8
07E0
ENDCHAR
STARTCHAR 0064
ENCODING 100
SWIDTH 583 0
DWIDTH 21 0
BBX 17 27 2 0
BITMAP
000780
000780
000780
000780
000780
000780
000780
000780
0FC780
1FE780
3FF780
7C1F80
F80F80
F00F80
F00780
F00780
F00780
F00780
F00780
F00780
F00780
F00F80
F80F80
7C1F80
3FF780
1FE780
0FC780
ENDCHAR
STARTCHAR 0065
ENCODING 101
SWIDTH 555 0
DWIDTH 20 0
BBX 16 19 2 0
BITMAP
07E0
1FF8
3FFC
7C3E
781E
F00F
F00F
F00F
FFFF
FFFF
FFFF
F000
F000
F004
7806
7C1F
3FFE
1FFC
07F0
ENDCHAR
STARTCHAR 0066
ENCODING 102
SWIDTH 333 0
DWIDTH 12 0
BBX 11 27 1 0
BITMAP
07E0
0FE0
1FE0
1E00
1E00
1E00
1E00
1E00
FFE0
FFE0
FFE0
1E00
1E00
1E00
1E00
1E00
1E00
1E00
1E00
1E00
1E00
1E00
1E00
1E00
1E00
1E00
1E00
ENDCHAR
STARTCHAR 0067
ENCODING 103
SWIDTH 527 0
DWIDTH 19 0
BBX 18 29 1 -7
BITMAP
000780
000F80
000F80
07FC00
1FFC00
3FFE00
3C1F00
780F00
780F00
780F00
780F00
780F00
3C1E00
3FFE00
1FFC00
0FF000
380000
700000
780000
7FFE00
3FFF80
1FFFC0
7003C0
F001C0
F003C0
F807C0
7FFF80
3FFF00
0FFC00
ENDCHAR
STARTCHAR 0068
ENCODING 104
SWIDTH 583 0
DWIDTH 21 0
BBX 15 27 3 0
BITMAP
F000
F000
F000
F000
F000
F000
F000
F000
F3F0
F7F8
FFFC
FC3E
F01E
F01E
F01E
F01E
F01E
F01E
F01E
F01E
F01E
F01E
F01E
F01E
F01E
F01E
F01E
ENDCHAR
STARTCHAR 0069
ENCODING 105
SWIDTH 277 0
DWIDTH 10 0
BBX 5 27 2 0
BITMAP
70
78
F8
78
70
00
00
00
78
78
78
78
78
78
78
78
78
78
78
78
78
78
78
78
78
78
78
ENDCHAR
STARTCHAR 006A
ENCODING 106
SWIDTH 277 0
DWIDTH 10 0
BBX 7 34 0 -7
BITMAP
1C
1E
3E
1E
1C
00
00
00
1E
1E
1E
1E
1E
1E
1E
1E
1E
1E
1E
1E
1E
1E
1E
1E
1E
1E
1E
1E
1E
1E
1E
FC
FC
F8
ENDCHAR
STARTCHAR 006B
ENCODING 107
SWIDTH 555 0
DWIDTH 20 0
BBX 16 27 3 0
BITMAP
F000
F000
F000
F000
F000
F000
F000
F000
F01F
F03C
F078
F0F0
F1F0
F3E0
F7C0
F780
FFC0
FFC0
FDE0
F9F0
F0F0
F0F8
F07C
F03C
F03E
F01E
F01F
ENDCHAR
STARTCHAR 006C
ENCODING 108
SWIDTH 277 0
DWIDTH 10 0
BBX 6 27 3 0
BITMAP
F0
F0
F0
F0
F0
F0
F0
F0
F0
F0
F0
F0
F0
F0
F0
F0
F0
F0
F0
F0
F0
F0
F0
F0
FC
FC
3C
ENDCHAR
STARTCHAR 006D
ENCODING 109
SWIDTH 888 0
DWIDTH 32 0
BBX 26 19 3 0
BITMAP
F3F07E00
F7F8FF00
FFFDFF80
F87F87C0
F03E03C0
F01E03C0
F01E03C0
F01E03C0
F01E03C0
F01E03C0
F01E03C0
F01E03C0
F01E03C0
F01E03C0
F01E03C0
F01E03C0
F01E03C0
F01E03C0
F01E03C0
ENDCHAR
STARTCHAR 006E
ENCODING 110
SWIDTH 583 0
DWIDTH 21 0
BBX 15 19 3 0
BITMAP
F3F0
F7F8
FFFC
FC3E
F01E
F01E
F01E
F01E
F01E
F01E
F01E
F01E
F01E
F01E
F01E
F01E
F01E
F01E
F01E
ENDCHAR
STARTCHAR 006F
ENCODING 111
SWIDTH 555 0
DWIDTH 20 0
BBX 17 19 2 0
BITMAP
07E000
1FF800
3FFC00
7C3E00
780F00
F00F00
F00F00
F00780
F00780
F00780
F00780
F00780
F00F00
F00F00
780F00
7C3E00
3FFC00
1FF800
07E000
ENDCHAR
STARTCHAR 0070
ENCODING 112
SWIDTH 583 0
DWIDTH 21 0
BBX 17 26 3 -7
BITMAP
F1F000
F7FC00
FFFE00
FC3E00
F01F00
F00F00
F00F00
F00F80
F00F80
F00F80
F00F80
F00F80
F00F00
F00F00
F01F00
FC3E00
FFFE00
F7FC00
F1F000
F00000
F00000
F00000
F00000
F00000
F00000
F00000
ENDCHAR
STARTCHAR 0071
ENCODING 113
SWIDTH 583 0
DWIDTH 21 0
BBX 17 26 2 -7
BITMAP
0FC780
1FE780
3FF780
7C1F80
F80F80
F00F80
F00780
F00780
F00780
F00780
F00780
F00780
F00780
F00F80
F80F80
7C1F80
3FF780
1FE780
0FC780
000780
000780
000780
000780
000780
000780
000780
ENDCHAR
STARTCHAR 0072
ENCODING 114
SWIDTH 388 0
DWIDTH 14 0
BBX 10 19 3 0
BITMAP
F3C0
F7C0
FFC0
FC00
F000
F000
F000
F000
F000
F000
F000
F000
F000
F000
F000
F000
F000
F000
F000
ENDCHAR
STARTCHAR 0073
ENCODING 115
SWIDTH 500 0
DWIDTH 18 0
BBX 15 19 1 0
BITMAP
07E0
1FF8
3FFC
7C3E
7808
7800
7800
7E00
3FF0
1FFC
07FC
003E
001E
201E
701E
F83E
7FFC
3FF8
0FE0
ENDCHAR
STARTCHAR 0074
ENCODING 116
SWIDTH 361 0
DWIDTH 13 0
BBX 11 24 1 0
BITMAP
1E00
1E00
1E00
1E00
1E00
FFE0
FFE0
FFE0
1E00
1E00
1E00
1E00
1E00
1E00
1E00
1E00
1E00
1E00
1E00
1E00
1E00
1FC0
0FC0
07C0
ENDCHAR
STARTCHAR 0075
ENCODING 117
SWIDTH 583 0
DWIDTH 21 0
BBX 15 19 3 0
BITMAP
F01E
F01E
F01E
F01E
F01E
F01E
F01E
F01E
F01E
F01E
F01E
F01E
F01E
F01E
F01E
F87E
7FFE
3FDE
1F1E
ENDCHAR
STARTCHAR 0076
ENCODING 118
SWIDTH 500 0
DWIDTH 18 0
BBX 18 19 0 0
BITMAP
F803C0
780380
780780
3C0780
3C0700
3C0F00
1E0F00
1E0E00
1E1E00
0E1E00
0F1C00
0F3C00
073C00
07B800
07B800
03F800
03F000
03F000
01F000
ENDCHAR
STARTCHAR 0077
ENCODING 119
SWIDTH 805 0
DWIDTH 29 0
BBX 27 19 1 0
BITMAP
F00E01E0
F01F01C0
701F01C0
781F03C0
783F83C0
783B8380
383B8380
3C3B8780
3C73C780
3C71C700
1C71C700
1CF1CF00
1EE0EF00
0EE0EE00
0EE0EE00
0FC0FE00
0FC07C00
07C07C00
07C07C00
ENDCHAR
STARTCHAR 0078
ENCODING 120
SWIDTH 527 0
DWIDTH 19 0
BBX 17 19 1 0
BITMAP
F80780
780F00
3C1F00
3E1E00
1E3C00
0F7800
0FF800
07F000
03E000
03E000
03F000
07F000
0F7800
1E7C00
1E3C00
3C1E00
7C1F00
780F00
F00780
ENDCHAR
STARTCHAR 0079
ENCODING 121
SWIDTH 527 0
DWIDTH 19 0
BBX 18 26 0 -7
BITMAP
F803C0
7803C0
780780
3C0780
3C0780
3C0F00
1E0F00
1E0E00
1E1E00
0F1E00
0F1C00
0F3C00
073C00
07B800
07B800
03F800
03F000
03F000
01F000
01E000
01E000
01E000
03C000
1FC000
1F8000
1F0000
ENDCHAR
STARTCHAR 007A
ENCODING 122
SWIDTH 500 0
DWIDTH 18 0
BBX 15 19 1 0
BITMAP
7FFE
7FFE
7FFE
003C
007C
00F8
00F0
01E0
03E0
07C0
0780
0F00
1F00
3E00
7C00
7800
FFFE
FFFE
FFFE
ENDCHAR
STARTCHAR 007B
ENCODING 123
SWIDTH 361 0
DWIDTH 13 0
BBX 10 32 1 -5
BITMAP
0FC0
0FC0
1FC0
1E00
1E00
1E00
1E00
1E00
1E00
1E00
1E00
1E00
3C00
FC00
F800
E000
F000
3C00
1C00
1E00
1E00
1E00
1E00
1E00
1E00
1E00
1E00
1E00
1E00
1FC0
0FC0
07C0
ENDCHAR
STARTCHAR 007C
ENCODING 124
SWIDTH 361 0
DWIDTH 13 0
BBX 3 32 5 -5
BITMAP
E0
E0
E0
E0
E0
E0
E0
E0
E0
E0
E0
E0
E0
E0
E0
E0
E0
E0
E0
E0
E0
E0
E0
E0
E0
E0
E0
E0
E0
E0
E0
E0
ENDCHAR
STARTCHAR 007D
ENCODING 125
SWIDTH 361 0
DWIDTH 13 0
BBX 10 32 2 -5
BITMAP
F800
FC00
FE00
1E00
1E00
1E00
1E00
1E00
1E00
1E00
1E00
1E00
1F00
0FC0
07C0
01C0
07C0
0F00
0E00
1E00
1E00
1E00
1E00
1E00
1E00
1E00
1E00
1E00
1E00
FE00
FC00
F800
ENDCHAR
STARTCHAR 007E
ENCODING 126
SWIDTH 611 0
DWIDTH 22 0
BBX 18 6 2 8
BITMAP
3E0000
7F8100
FFE180
61FF80
40FFC0
003F00
ENDCHAR
STARTCHAR 00A0
ENCODING 160
SWIDTH 250 0
DWIDTH 9 0
BBX 0 0 0 0
BITMAP
ENDCHAR
STARTCHAR 00A1
ENCODING 161
SWIDTH 305 0
DWIDTH 11 0
BBX 5 25 3 -6
BITMAP
70
F8
F8
F8
F0
00
00
60
60
70
70
70
70
70
70
70
F0
F0
F8
F8
F8
F8
F8
F8
F8
ENDCHAR
STARTCHAR 00A2
ENCODING 162
SWIDTH 527 0
DWIDTH 19 0
BBX 16 27 2 -4
BITMAP
03C0
03C0
03C0
03C0
07F0
1FF8
3FFC
7D9E
F18E
F188
F180
F180
F180
F180
F180
F180
F180
F184
718E
7D9F
3FFE
1FFC
07F0
03C0
03C0
03C0
03C0
ENDCHAR
STARTCHAR 00A3
ENCODING 163
SWIDTH 583 0
DWIDTH 21 0
BBX 18 25 2 0
BITMAP
03FC00
0FFF00
1FFF80
3E0FC0
3C0380
7C0200
7C0000
780000
7C0000
3C0000
3C0000
FFFC00
FFFC00
FFFC00
1E0000
1E0000
1E0000
1E0000
1E0000
3E0000
7C0000
780000
7FFF80
7FFF80
7FFF80
ENDCHAR
STARTCHAR 00A4
ENCODING 164
SWIDTH 611 0
DWIDTH 22 0
BBX 21 21 1 2
BITMAP
400020
E00070
F1F8F8
7FFFE0
3FFFC0
1F0F80
1E03C0
3C03C0
3C03C0
3C03C0
3C03C0
3C03C0
3C03C0
3C03C0
1E03C0
1F0F80
3FFFC0
7FFFE0
F1F8F0
E00078
400020
ENDCHAR
STARTCHAR 00A5
ENCODING 165
SWIDTH 611 0
DWIDTH 22 0
BBX 20 25 1 0
BITMAP
F800F0
7801F0
7C01E0
3E03C0
1E03C0
1F0780
0F0780
0F8F00
078E00
03DE00
03FC00
3FFFC0
3FFFC0
3FFFC0
00F000
00F000
00F000
3FFFC0
3FFFC0
3FFFC0
00F000
00F000
00F000
00F000
00F000
ENDCHAR
STARTCHAR 00A6
ENCODING 166
SWIDTH 361 0
DWIDTH 13 0
BBX 3 32 5 -5
BITMAP
E0
E0
E0
E0
E0
E0
E0
E0
E0
E0
E0
E0
E0
00
00
00
00
00
00
E0
E0
E0
E0
E0
E0
E0
E0
E0
E0
E0
E0
E0
ENDCHAR
STARTCHAR 00A7
ENCODING 167
SWIDTH 583 0
DWIDTH 21 0
BBX 16 31 2 -6
BITMAP
03F0
0FFC
1FFE
3C1C
3804
7800
3800
3C00
3F00
1FE0
0FFC
1FFE
387F
700F
7007
F007
F007
7807
7F0E
3FF8
1FF8
03FC
007E
001E
000E
000E
101E
383E
3FFC
7FF8
0FE0
ENDCHAR
STARTCHAR 00A8
ENCODING 168
SWIDTH 611 0
DWIDTH 22 0
BBX 12 4 5 22
BITMAP
F0E0
F1F0
F1F0
F0E0
ENDCHAR
STARTCHAR 00A9
ENCODING 169
SWIDTH 777 0
DWIDTH 28 0
BBX 24 25 2 0
BITMAP
00FF00
03FFC0
0F81F0
1E0078
38001C
303E0C
70FF0E
61FF86
E1E3C7
E3C103
C3C003
C38003
C38003
C38003
C3C003
E3C183
E1E3C7
61FF86
70FF8E
303E0E
38001C
1E0078
0F81F0
03FFC0
00FF00
ENDCHAR
STARTCHAR 00AA
ENCODING 170
SWIDTH 416 0
DWIDTH 15 0
BBX 12 13 2 12
BITMAP
3F00
7F80
E3C0
41C0
01C0
01C0
3FC0
FFC0
E1C0
C1C0
E1C0
FEF0
7C70
ENDCHAR
STARTCHAR 00AB
ENCODING 171
SWIDTH 527 0
DWIDTH 19 0
BBX 16 15 1 3
BITMAP
0202
0707
0F0F
1E1E
3C3E
7C7C
F8F8
F0F0
F0F0
F8F8
3C3C
1E1E
0F0F
0707
0303
ENDCHAR
STARTCHAR 00AC
ENCODING 172
SWIDTH 611 0
DWIDTH 22 0
BBX 17 10 2 2
BITMAP
FFFF80
FFFF80
FFFF80
000380
000380
000380
000380
000380
000380
000380
ENDCHAR
STARTCHAR 00AD
ENCODING 173
SWIDTH 388 0
DWIDTH 14 0
BBX 10 4 2 9
BITMAP
FFC0
FFC0
FFC0
FFC0
ENDCHAR
STARTCHAR 00AE
ENCODING 174
SWIDTH 472 0
DWIDTH 17 0
BBX 15 13 1 12
BITMAP
07C0
1830
3018
67CC
4464
C446
C7C6
C4C6
44C4
646C
3018
1830
07C0
ENDCHAR
STARTCHAR 00AF
ENCODING 175
SWIDTH 611 0
DWIDTH 22 0
BBX 10 3 6 23
BITMAP
FFC0
FFC0
FFC0
ENDCHAR
STARTCHAR 00B0
ENCODING 176
SWIDTH 472 0
DWIDTH 17 0
BBX 13 13 2 12
BITMAP
0F80
3FE0
7FF0
78F0
F078
E038
E038
E038
F078
78F0
7FF0
3FE0
0F80
ENDCHAR
STARTCHAR 00B1
ENCODING 177
SWIDTH 611 0
DWIDTH 22 0
BBX 17 23 2 0
BITMAP
01E000
01E000
01E000
01E000
01E000
01E000
01E000
FFFF80
FFFF80
FFFF80
01E000
01E000
01E000
01E000
01E000
01E000
01E000
000000
000000
000000
FFFF80
FFFF80
FFFF80
ENDCHAR
STARTCHAR 00B2
ENCODING 178
SWIDTH 333 0
DWIDTH 12 0
BBX 10 13 1 12
BITMAP
3F00
7F80
E3C0
61C0
01C0
03C0
0380
0F00
1E00
3800
F000
FFC0
FFC0
ENDCHAR
STARTCHAR 00B3
ENCODING 179
SWIDTH 333 0
DWIDTH 12 0
BBX 10 13 1 12
BITMAP
3F00
FF80
63C0
41C0
03C0
1F00
1F80
03C0
01C0
41C0
E3C0
FF80
3F00
ENDCHAR
STARTCHAR 00B4
ENCODING 180
SWIDTH 611 0
DWIDTH 22 0
BBX 6 8 9 21
BITMAP
20
38
3C
78
78
F0
E0
60
ENDCHAR
STARTCHAR 00B5
ENCODING 181
SWIDTH 583 0
DWIDTH 21 0
BBX 15 26 3 -7
BITMAP
F01E
F01E
F01E
F01E
F01E
F01E
F01E
F01E
F01E
F01E
F01E
F01E
F01E
F01E
F01E
F83E
FFFE
FFDE
EF9E
E000
F000
F000
F000
F000
F000
F000
ENDCHAR
STARTCHAR 00B6
ENCODING 182
SWIDTH 666 0
DWIDTH 24 0
BBX 19 30 2 -5
BITMAP
0FFFE0
3FFFE0
7FFFE0
7FC380
FFC380
FFC380
FFC380
FFC380
FFC380
FFC380
FFC380
7FC380
7FC380
3FC380
0FC380
01C380
01C380
01C380
01C380
01C380
01C380
01C380
01C380
01C380
01C380
01C380
01C380
01C380
01C380
01C380
ENDCHAR
STARTCHAR 00B7
ENCODING 183
SWIDTH 361 0
DWIDTH 13 0
BBX 5 6 4 8
BITMAP
F0
F8
F8
F8
F8
F0
ENDCHAR
STARTCHAR 00B8
ENCODING 184
SWIDTH 611 0
DWIDTH 22 0
BBX 9 8 7 -8
BITMAP
1800
1800
3F00
0700
0380
4780
FF00
3E00
ENDCHAR
STARTCHAR 00B9
ENCODING 185
SWIDTH 361 0
DWIDTH 13 0
BBX 11 13 1 12
BITMAP
1E00
3E00
7600
E600
4600
0600
0600
0600
0600
0600
0600
7FE0
7FE0
ENDCHAR
STARTCHAR 00BA
ENCODING 186
SWIDTH 416 0
DWIDTH 15 0
BBX 11 13 2 12
BITMAP
1F00
7FC0
F1C0
E0E0
E0E0
E0E0
E0E0
E0E0
E0E0
E0E0
F1C0
7FC0
1F00
ENDCHAR
STARTCHAR 00BB
ENCODING 187
SWIDTH 527 0
DWIDTH 19 0
BBX 16 15 2 3
BITMAP
4040
E0E0
F0F0
7878
3C3C
1E1E
1F1F
0F0F
0F0F
1F1F
3E3E
7878
F0F0
E0E0
4040
ENDCHAR
STARTCHAR 00BC
ENCODING 188
SWIDTH 833 0
DWIDTH 30 0
BBX 29 25 1 0
BITMAP
1E0003C0
3E000780
76000700
E6000E00
46001C00
06003C00
06003800
06007000
0600E000
0600E000
0601C000
7FE38000
7FE781E0
000703E0
000E03E0
001C07E0
003C0EE0
00381CE0
007018E0
00F030E0
00E03FF8
01C03FF8
038000E0
078000E0
0F0000E0
ENDCHAR
STARTCHAR 00BD
ENCODING 189
SWIDTH 861 0
DWIDTH 31 0
BBX 28 25 1 0
BITMAP
1E000380
3E000700
76000E00
E6001E00
46001C00
06003800
06007000
0600F000
0600E000
0601C000
06038000
7FE38000
7FE707C0
000E1FE0
001E3C70
001C0870
00380070
00700070
00F000E0
00E001C0
01C00780
03C00E00
03801C00
07003FF0
0E003FF0
ENDCHAR
STARTCHAR 00BE
ENCODING 190
SWIDTH 833 0
DWIDTH 30 0
BBX 28 25 1 0
BITMAP
3F000780
FF800700
63C00E00
41C01C00
03C01C00
1F003800
1F807000
03C0F000
01C0E000
41C1C000
E3C38000
FF878000
3F0703C0
000E03C0
001C07C0
001C0EC0
00381CC0
007018C0
00F038C0
00E070C0
01C07FF0
03807FF0
078000C0
070000C0
0E0000C0
ENDCHAR
STARTCHAR 00BF
ENCODING 191
SWIDTH 472 0
DWIDTH 17 0
BBX 16 26 1 -7
BITMAP
01C0
03E0
03E0
03E0
01C0
0000
0000
0000
01C0
01C0
01C0
07C0
1FC0
3FC0
7C00
7800
F800
F000
F000
F008
F80E
781F
7C3E
3FFC
1FF8
07E0
ENDCHAR
STARTCHAR 00C0
ENCODING 192
SWIDTH 666 0
DWIDTH 24 0
BBX 22 35 1 0
BITMAP
004000
01C000
03E000
01E000
00F000
007000
007800
003000
000000
000000
00FC00
00FC00
01FC00
01FE00
01DE00
03DE00
03CF00
03CF00
078F00
078780
078780
0F0780
0F03C0
0F03C0
1E03C0
1FFFE0
1FFFE0
3FFFE0
3C00F0
3C00F0
7800F8
780078
780078
F0007C
F0003C
ENDCHAR
STARTCHAR 00C1
ENCODING 193
SWIDTH 666 0
DWIDTH 24 0
BBX 22 35 1 0
BITMAP
001000
000C00
001F00
001C00
003C00
003800
007000
003000
000000
000000
00FC00
00FC00
01FC00
01FE00
01DE00
03DE00
03CF00
03CF00
078F00
078780
078780
0F0780
0F03C0
0F03C0
1E03C0
1FFFE0
1FFFE0
3FFFE0
3C00F0
3C00F0
7800F8
780078
780078
F0007C
F0003C
ENDCHAR
STARTCHAR 00C2
ENCODING 194
SWIDTH 666 0
DWIDTH 24 0
BBX 22 34 1 0
BITMAP
00F800
00FC00
01FE00
03DF00
078F00
070380
020100
000000
000000
00FC00
00FC00
01FC00
01FE00
01DE00
03DE00
03CF00
03CF00
078F00
078780
078780
0F0780
0F03C0
0F03C0
1E03C0
1FFFE0
1FFFE0
3FFFE0
3C00F0
3C00F0
7800F8
780078
780078
F0007C
F0003C
ENDCHAR
STARTCHAR 00C3
ENCODING 195
SWIDTH 666 0
DWIDTH 24 0
BBX 22 33 1 0
BITMAP
03C100
07F180
07FF80
0E3F00
040E00
000000
000000
000000
00FC00
00FC00
01FC00
01FE00
01DE00
03DE00
03CF00
03CF00
078F00
078780
078780
0F0780
0F03C0
0F03C0
1E03C0
1FFFE0
1FFFE0
3FFFE0
3C00F0
3C00F0
7800F8
780078
780078
F0007C
F0003C
ENDCHAR
STARTCHAR 00C4
ENCODING 196
SWIDTH 666 0
DWIDTH 24 0
BBX 22 33 1 0
BITMAP
038700
078F80
07CF80
078F80
038700
000000
000000
000000
00FC00
00FC00
01FC00
01FE00
01DE00
03DE00
03CF00
03CF00
078F00
078780
078780
0F0780
0F03C0
0F03C0
1E03C0
1FFFE0
1FFFE0
3FFFE0
3C00F0
3C00F0
7800F8
780078
780078
F0007C
F0003C
ENDCHAR
STARTCHAR 00C5
ENCODING 197
SWIDTH 666 0
DWIDTH 24 0
BBX 22 35 1 0
BITMAP
007800
01FC00
018E00
038600
038700
038600
018E00
01FC00
007800
000000
00FC00
00FC00
01FC00
01FE00
01DE00
03DE00
03CF00
03CF00
078F00
078780
078780
0F0780
0F03C0
0F03C0
1E03C0
1FFFE0
1FFFE0
3FFFE0
3C00F0
3C00F0
7800F8
780078
780078
F0007C
F0003C
ENDCHAR
STARTCHAR 00C6
ENCODING 198
SWIDTH 944 0
DWIDTH 34 0
BBX 31 25 0 0
BITMAP
000FFFFE
000FFFFE
001FFFFE
001DE000
003DE000
003DE000
0079E000
0079E000
00F1E000
00F1E000
01E1E000
01E1FFFC
03C1FFFC
03C1FFFC
0781E000
07FFE000
0FFFE000
0FFFE000
1E01E000
1E01E000
3C01E000
3C01E000
7801FFFE
7801FFFE
F001FFFE
ENDCHAR
STARTCHAR 00C7
ENCODING 199
SWIDTH 638 0
DWIDTH 23 0
BBX 20 32 2 -7
BITMAP
01FC00
07FF80
1FFFC0
1F07E0
3C01E0
7C01E0
780080
780000
F00000
F00000
F00000
F00000
F00000
F00000
F00000
F00000
F00000
780000
780080
7C01E0
3C01F0
3F07E0
1FFFC0
07FF80
01FC00
006000
006000
007C00
000E00
008E00
01FE00
00F800
ENDCHAR
STARTCHAR 00C8
ENCODING 200
SWIDTH 583 0
DWIDTH 21 0
BBX 16 35 3 0
BITMAP
0200
0600
1F00
0700
0780
0380
01C0
0180
0000
0000
FFFF
FFFF
FFFF
F000
F000
F000
F000
F000
F000
F000
F000
FFFE
FFFE
FFFE
F000
F000
F000
F000
F000
F000
F000
F000
FFFF
FFFF
FFFF
ENDCHAR
STARTCHAR 00C9
ENCODING 201
SWIDTH 583 0
DWIDTH 21 0
BBX 16 35 3 0
BITMAP
0040
0070
00F8
00F0
01E0
01C0
03C0
0180
0000
0000
FFFF
FFFF
FFFF
F000
F000
F000
F000
F000
F000
F000
F000
FFFE
FFFE
FFFE
F000
F000
F000
F000
F000
F000
F000
F000
FFFF
FFFF
FFFF
ENDCHAR
STARTCHAR 00CA
ENCODING 202
SWIDTH 583 0
DWIDTH 21 0
BBX 16 34 3 0
BITMAP
03E0
07E0
0FF0
1F78
1E3C
381C
1008
0000
0000
FFFF
FFFF
FFFF
F000
F000
F000
F000
F000
F000
F000
F000
FFFE
FFFE
FFFE
F000
F000
F000
F000
F000
F000
F000
F000
FFFF
FFFF
FFFF
ENDCHAR
STARTCHAR 00CB
ENCODING 203
SWIDTH 583 0
DWIDTH 21 0
BBX 16 33 3 0
BITMAP
1C38
3E3C
3E7C
3E3C
1C38
0000
0000
0000
FFFF
FFFF
FFFF
F000
F000
F000
F000
F000
F000
F000
F000
FFFE
FFFE
FFFE
F000
F000
F000
F000
F000
F000
F000
F000
FFFF
FFFF
FFFF
ENDCHAR
STARTCHAR 00CC
ENCODING 204
SWIDTH 416 0
DWIDTH 15 0
BBX 11 35 2 0
BITMAP
1000
3800
7800
3C00
1C00
1E00
0E00
0500
0000
0000
FFE0
FFE0
FFE0
1F00
1F00
1F00
1F00
1F00
1F00
1F00
1F00
1F00
1F00
1F00
1F00
1F00
1F00
1F00
1F00
1F00
1F00
1F00
FFE0
FFE0
FFE0
ENDCHAR
STARTCHAR 00CD
ENCODING 205
SWIDTH 416 0
DWIDTH 15 0
BBX 11 35 2 0
BITMAP
0200
0380
03C0
0780
0700
0F00
0E00
1400
0000
0000
FFE0
FFE0
FFE0
1F00
1F00
1F00
1F00
1F00
1F00
1F00
1F00
1F00
1F00
1F00
1F00
1F00
1F00
1F00
1F00
1F00
1F00
1F00
FFE0
FFE0
FFE0
ENDCHAR
STARTCHAR 00CE
ENCODING 206
SWIDTH 416 0
DWIDTH 15 0
BBX 13 34 1 0
BITMAP
0F80
1FC0
1FC0
3DE0
78F0
F078
2020
0000
0000
7FF0
7FF0
7FF0
0F80
0F80
0F80
0F80
0F80
0F80
0F80
0F80
0F80
0F80
0F80
0F80
0F80
0F80
0F80
0F80
0F80
0F80
0F80
7FF0
7FF0
7FF0
ENDCHAR
STARTCHAR 00CF
ENCODING 207
SWIDTH 416 0
DWIDTH 15 0
BBX 11 33 2 0
BITMAP
E0E0
F1E0
F1E0
F1E0
F1E0
0000
0000
0000
FFE0
FFE0
FFE0
1F00
1F00
1F00
1F00
1F00
1F00
1F00
1F00
1F00
1F00
1F00
1F00
1F00
1F00
1F00
1F00
1F00
1F00
1F00
FFE0
FFE0
FFE0
ENDCHAR
STARTCHAR 00D0
ENCODING 208
SWIDTH 694 0
DWIDTH 25 0
BBX 23 25 0 0
BITMAP
1FFF00
1FFFC0
1FFFE0
1E01F0
1E00F8
1E0078
1E003C
1E003C
1E003C
1E003E
1E003E
FFF03E
FFF03E
FFF03E
1E003E
1E003E
1E003C
1E003C
1E003C
1E0078
1E00F8
1E01F0
1FFFE0
1FFFC0
1FFF00
ENDCHAR
STARTCHAR 00D1
ENCODING 209
SWIDTH 722 0
DWIDTH 26 0
BBX 20 33 3 0
BITMAP
078200
0FE300
0FFF00
1C7E00
081C00
000000
000000
000000
F800F0
FC00F0
FC00F0
FE00F0
FE00F0
FF00F0
FF80F0
F780F0
F7C0F0
F3C0F0
F3E0F0
F1E0F0
F0F0F0
F0F8F0
F078F0
F07CF0
F03CF0
F01EF0
F01EF0
F00FF0
F00FF0
F007F0
F003F0
F003F0
F001F0
ENDCHAR
STARTCHAR 00D2
ENCODING 210
SWIDTH 722 0
DWIDTH 26 0
BBX 22 35 2 0
BITMAP
004000
01C000
03E000
01E000
00F000
007000
007800
003000
000000
000000
01FC00
07FF80
0FFFC0
1F07E0
3E01F0
7C00F0
7800F8
780078
F80078
F00078
F0007C
F0007C
F0007C
F0007C
F0007C
F00078
F00078
780078
7800F8
7C00F0
3E01F0
1F07E0
0FFFC0
07FF80
01FC00
ENDCHAR
STARTCHAR 00D3
ENCODING 211
SWIDTH 722 0
DWIDTH 26 0
BBX 22 35 2 0
BITMAP
001000
001C00
001E00
003C00
003C00
007800
007000
003000
000000
000000
01FC00
07FF80
0FFFC0
1F07E0
3E01F0
7C00F0
7800F8
780078
F80078
F00078
F0007C
F0007C
F0007C
F0007C
F0007C
F00078
F00078
780078
7800F8
7C00F0
3E01F0
1F07E0
0FFFC0
07FF80
01FC00
ENDCHAR
STARTCHAR 00D4
ENCODING 212
SWIDTH 722 0
DWIDTH 26 0
BBX 22 34 2 0
BITMAP
00F800
00FC00
01FE00
03DF00
078F00
070780
020100
000000
000000
01FC00
07FF80
0FFFC0
1F07E0
3E01F0
7C00F0
7800F8
780078
F80078
F00078
F0007C
F0007C
F0007C
F0007C
F0007C
F00078
F00078
780078
7800F8
7C00F0
3E01F0
1F07E0
0FFFC0
07FF80
01FC00
ENDCHAR
STARTCHAR 00D5
ENCODING 213
SWIDTH 722 0
DWIDTH 26 0
BBX 22 33 2 0
BITMAP
03C100
07F180
0FFF80
063F00
040E00
000000
000000
000000
01FC00
07FF80
0FFFC0
1F07E0
3E01F0
7C00F0
7800F8
780078
F80078
F00078
F0007C
F0007C
F0007C
F0007C
F0007C
F00078
F00078
780078
7800F8
7C00F0
3E01F0
1F07E0
0FFFC0
07FF80
01FC00
ENDCHAR
STARTCHAR 00D6
ENCODING 214
SWIDTH 722 0
DWIDTH 26 0
BBX 22 33 2 0
BITMAP
038700
078F80
078F80
078F80
038700
000000
000000
000000
01FC00
07FF80
0FFFC0
1F07E0
3E01F0
7C00F0
7800F8
780078
F80078
F00078
F0007C
F0007C
F0007C
F0007C
F0007C
F00078
F00078
780078
7800F8
7C00F0
3E01F0
1F07E0
0FFFC0
07FF80
01FC00
ENDCHAR
STARTCHAR 00D7
ENCODING 215
SWIDTH 611 0
DWIDTH 22 0
BBX 16 16 3 3
BITMAP
2004
700E
F81F
7C3C
3E78
1FF0
0FE0
07C0
07E0
0FF0
1FF8
3E7C
7C3E
F81F
700E
2008
ENDCHAR
STARTCHAR 00D8
ENCODING 216
SWIDTH 722 0
DWIDTH 26 0
BBX 22 27 2 -1
BITMAP
000030
01FC78
07FFF0
0FFFF0
1F07E0
3E01F0
7C03F0
7807F8
780778
F00E78
F01C78
F01C7C
F0387C
F0707C
F0F07C
F0E07C
F1C078
F3C078
7B8078
7F0078
7F00F0
3E01F0
1F07E0
3FFFC0
7FFF80
F1FC00
700000
ENDCHAR
STARTCHAR 00D9
ENCODING 217
SWIDTH 694 0
DWIDTH 25 0
BBX 19 35 3 0
BITMAP
010000
038000
078000
03C000
03C000
01E000
00E000
004000
000000
000000
F001E0
F001E0
F001E0
F001E0
F001E0
F001E0
F001E0
F001E0
F001E0
F001E0
F001E0
F001E0
F001E0
F001E0
F001E0
F001E0
F001E0
F001E0
F003C0
7803C0
7807C0
7E0F80
3FFF80
1FFE00
07F800
ENDCHAR
STARTCHAR 00DA
ENCODING 218
SWIDTH 694 0
DWIDTH 25 0
BBX 19 35 3 0
BITMAP
002000
003800
007C00
007800
00F000
00F000
01E000
004000
000000
000000
F001E0
F001E0
F001E0
F001E0
F001E0
F001E0
F001E0
F001E0
F001E0
F001E0
F001E0
F001E0
F001E0
F001E0
F001E0
F001E0
F001E0
F001E0
F003C0
7803C0
7807C0
7E0F80
3FFF80
1FFE00
07F800
ENDCHAR
STARTCHAR 00DB
ENCODING 219
SWIDTH 694 0
DWIDTH 25 0
BBX 19 34 3 0
BITMAP
01F000
03F800
07F800
07BC00
0F1E00
1E0F00
0C0400
000000
000000
F001E0
F001E0
F001E0
F001E0
F001E0
F001E0
F001E0
F001E0
F001E0
F001E0
F001E0
F001E0
F001E0
F001E0
F001E0
F001E0
F001E0
F001E0
F003C0
7803C0
7807C0
7E0F80
3FFF80
1FFE00
07F800
ENDCHAR
STARTCHAR 00DC
ENCODING 220
SWIDTH 694 0
DWIDTH 25 0
BBX 19 33 3 0
BITMAP
0E1E00
0F1E00
1F1E00
0F1E00
0E1E00
000000
000000
000000
F001E0
F001E0
F001E0
F001E0
F001E0
F001E0
F001E0
F001E0
F001E0
F001E0
F001E0
F001E0
F001E0
F001E0
F001E0
F001E0
F001E0
F001E0
F003C0
7803C0
7807C0
7E0F80
3FFF80
1FFE00
07F800
ENDCHAR
STARTCHAR 00DD
ENCODING 221
SWIDTH 611 0
DWIDTH 22 0
BBX 22 35 0 0
BITMAP
000800
000E00
001F00
001E00
003C00
003800
007800
003000
000000
000000
F8007C
7C0078
3C00F0
3E01F0
1F01E0
0F03E0
0F83C0
078780
07C780
03CF00
03EF00
01FE00
00FE00
00FC00
007800
007800
007800
007800
007800
007800
007800
007800
007800
007800
007800
ENDCHAR
STARTCHAR 00DE
ENCODING 222
SWIDTH 638 0
DWIDTH 23 0
BBX 18 25 3 0
BITMAP
F00000
F00000
F00000
F00000
F00000
FFFC00
FFFF00
FFFF80
F00F80
F007C0
F003C0
F003C0
F003C0
F003C0
F003C0
F007C0
F00780
FFFF80
FFFF00
FFFC00
F00000
F00000
F00000
F00000
F00000
ENDCHAR
STARTCHAR 00DF
ENCODING 223
SWIDTH 666 0
DWIDTH 24 0
BBX 22 27 1 0
BITMAP
00FC00
03FF00
07FF80
0F83C0
1F01E0
1E01E0
1E00E0
1E00E0
FE07E0
FE0FE0
FE1FE0
1E3E00
1E3C00
1E3C00
1E3C00
1E3F00
1E1FE0
1E0FF8
1E03F8
1E007C
1E003C
1E003C
1E303C
1E7878
1E7FF8
1E3FF0
1E0FC0
ENDCHAR
STARTCHAR 00E0
ENCODING 224
SWIDTH 555 0
DWIDTH 20 0
BBX 18 29 1 0
BITMAP
020000
070000
0F0000
078000
078000
03C000
01C000
008000
000000
000000
07F000
1FFC00
3FFE00
7C3E00
301E00
000F00
000F00
000F00
0FFF00
3FFF00
7FFF00
7C0F00
F80F00
F00F00
F81F00
783F00
7FFFC0
3FE7C0
0F83C0
ENDCHAR
STARTCHAR 00E1
ENCODING 225
SWIDTH 555 0
DWIDTH 20 0
BBX 18 29 1 0
BITMAP
004000
007000
00F800
00F000
01E000
01E000
03C000
008000
000000
000000
07F000
1FFC00
3FFE00
7C3E00
301E00
000F00
000F00
000F00
0FFF00
3FFF00
7FFF00
7C0F00
F80F00
F00F00
F81F00
783F00
7FFFC0
3FE7C0
0F83C0
ENDCHAR
STARTCHAR 00E2
ENCODING 226
SWIDTH 555 0
DWIDTH 20 0
BBX 18 28 1 0
BITMAP
03E000
07F000
0FF000
0F7800
1E3C00
3C1E00
180800
000000
000000
07F000
1FFC00
3FFE00
7C3E00
301E00
000F00
000F00
000F00
0FFF00
3FFF00
7FFF00
7C0F00
F80F00
F00F00
F81F00
783F00
7FFFC0
3FE7C0
0F83C0
ENDCHAR
STARTCHAR 00E3
ENCODING 227
SWIDTH 555 0
DWIDTH 20 0
BBX 18 27 1 0
BITMAP
0F0400
1F8C00
3FFE00
19FC00
107800
000000
000000
000000
07F000
1FFC00
3FFE00
7C3E00
301E00
000F00
000F00
000F00
0FFF00
3FFF00
7FFF00
7C0F00
F80F00
F00F00
F81F00
783F00
7FFFC0
3FE7C0
0F83C0
ENDCHAR
STARTCHAR 00E4
ENCODING 228
SWIDTH 555 0
DWIDTH 20 0
BBX 18 26 1 0
BITMAP
1E3C00
1E3C00
1E3C00
1E3C00
000000
000000
000000
07F000
1FFC00
3FFE00
7C3E00
301E00
000F00
000F00
000F00
0FFF00
3FFF00
7FFF00
7C0F00
F80F00
F00F00
F81F00
783F00
7FFFC0
3FE7C0
0F83C0
ENDCHAR
STARTCHAR 00E5
ENCODING 229
SWIDTH 555 0
DWIDTH 20 0
BBX 18 29 1 0
BITMAP
03E000
07F000
0E3800
0C3800
0C3800
0C3800
0E3800
07F000
03E000
000000
07F000
1FFC00
3FFE00
7C3E00
301E00
000F00
000F00
000F00
0FFF00
3FFF00
7FFF00
7C0F00
F80F00
F00F00
F81F00
783F00
7FFFC0
3FE7C0
0F83C0
ENDCHAR
STARTCHAR 00E6
ENCODING 230
SWIDTH 861 0
DWIDTH 31 0
BBX 29 19 1 0
BITMAP
07E03E00
1FF8FF80
3FF9FFC0
7C3FC3E0
301F81F0
100F00F0
000F00F0
000F00F0
07FFFFF8
3FFFFFF8
7FFFFFF8
7C0F0000
780F0000
F00F0040
F81F8060
783BC1F0
7FF3FFE0
3FE1FFC0
0FC07F00
ENDCHAR
STARTCHAR 00E7
ENCODING 231
SWIDTH 500 0
DWIDTH 18 0
BBX 15 26 2 -7
BITMAP
07E0
1FF8
3FFC
7C3E
781E
F008
F000
F000
F000
F000
F000
F000
F000
F00C
F81E
7C3E
3FFC
1FF8
07E0
0180
0300
03F0
0070
0478
0FF0
03E0
ENDCHAR
STARTCHAR 00E8
ENCODING 232
SWIDTH 555 0
DWIDTH 20 0
BBX 16 29 2 0
BITMAP
0200
0700
0F00
0780
0780
03C0
01C0
0180
0000
0000
07E0
1FF8
3FFC
7C3E
781E
F00F
F00F
F00F
FFFF
FFFF
FFFF
F000
F000
F004
7806
7C1F
3FFE
1FFC
07F0
ENDCHAR
STARTCHAR 00E9
ENCODING 233
SWIDTH 555 0
DWIDTH 20 0
BBX 16 29 2 0
BITMAP
0040
0070
00F8
00F0
01E0
01C0
03C0
0080
0000
0000
07E0
1FF8
3FFC
7C3E
781E
F00F
F00F
F00F
FFFF
FFFF
FFFF
F000
F000
F004
7806
7C1F
3FFE
1FFC
07F0
ENDCHAR
STARTCHAR 00EA
ENCODING 234
SWIDTH 555 0
DWIDTH 20 0
BBX 16 28 2 0
BITMAP
03E0
07E0
0FF0
1F78
1E3C
3C1E
1008
0000
0000
07E0
1FF8
3FFC
7C3E
781E
F00F
F00F
F00F
FFFF
FFFF
FFFF
F000
F000
F004
7806
7C1F
3FFE
1FFC
07F0
ENDCHAR
STARTCHAR 00EB
ENCODING 235
SWIDTH 555 0
DWIDTH 20 0
BBX 16 26 2 0
BITMAP
1C3C
3E3C
3E3C
1C3C
0000
0000
0000
07E0
1FF8
3FFC
7C3E
781E
F00F
F00F
F00F
FFFF
FFFF
FFFF
F000
F000
F004
7806
7C1F
3FFE
1FFC
07F0
ENDCHAR
STARTCHAR 00EC
ENCODING 236
SWIDTH 277 0
DWIDTH 10 0
BBX 7 29 0 0
BITMAP
10
70
F8
78
3C
1C
1E
08
00
00
1E
1E
1E
1E
1E
1E
1E
1E
1E
1E
1E
1E
1E
1E
1E
1E
1E
1E
1E
ENDCHAR
STARTCHAR 00ED
ENCODING 237
SWIDTH 277 0
DWIDTH 10 0
BBX 6 29 3 0
BITMAP
20
38
3C
78
78
F0
E0
60
00
00
F0
F0
F0
F0
F0
F0
F0
F0
F0
F0
F0
F0
F0
F0
F0
F0
F0
F0
F0
ENDCHAR
STARTCHAR 00EE
ENCODING 238
SWIDTH 277 0
DWIDTH 10 0
BBX 12 28 -1 0
BITMAP
1F00
1F80
3FC0
7BE0
F1E0
E070
4020
0000
0000
0F00
0F00
0F00
0F00
0F00
0F00
0F00
0F00
0F00
0F00
0F00
0F00
0F00
0F00
0F00
0F00
0F00
0F00
0F00
ENDCHAR
STARTCHAR 00EF
ENCODING 239
SWIDTH 277 0
DWIDTH 10 0
BBX 12 26 -1 0
BITMAP
F0E0
F1F0
F1F0
F0E0
0000
0000
0000
0F00
0F00
0F00
0F00
0F00
0F00
0F00
0F00
0F00
0F00
0F00
0F00
0F00
0F00
0F00
0F00
0F00
0F00
0F00
ENDCHAR
STARTCHAR 00F0
ENCODING 240
SWIDTH 583 0
DWIDTH 21 0
BBX 17 27 2 0
BITMAP
7F0800
0FBC00
07F800
03E000
07F000
0FF800
067C00
003C00
001E00
07CE00
1FEF00
3FFF00
7C3F00
F80F80
F00F80
F00780
F00780
F00780
F00780
F00780
F00780
F00F00
780F00
7C3E00
3FFE00
1FF800
07F000
ENDCHAR
STARTCHAR 00F1
ENCODING 241
SWIDTH 583 0
DWIDTH 21 0
BBX 15 27 3 0
BITMAP
1E08
3F98
7FFC
33F8
20F0
0000
0000
0000
F3F0
F7F8
FFFC
FC3E
F01E
F01E
F01E
F01E
F01E
F01E
F01E
F01E
F01E
F01E
F01E
F01E
F01E
F01E
F01E
ENDCHAR
STARTCHAR 00F2
ENCODING 242
SWIDTH 555 0
DWIDTH 20 0
BBX 17 29 2 0
BITMAP
020000
070000
0F0000
078000
078000
03C000
01C000
018000
000000
000000
07E000
1FF800
3FFC00
7C3E00
780F00
F00F00
F00F00
F00780
F00780
F00780
F00780
F00780
F00F00
F00F00
780F00
7C3E00
3FFC00
1FF800
07E000
ENDCHAR
STARTCHAR 00F3
ENCODING 243
SWIDTH 555 0
DWIDTH 20 0
BBX 17 29 2 0
BITMAP
004000
007000
00F800
00F000
01E000
01C000
03C000
018000
000000
000000
07E000
1FF800
3FFC00
7C3E00
780F00
F00F00
F00F00
F00780
F00780
F00780
F00780
F00780
F00F00
F00F00
780F00
7C3E00
3FFC00
1FF800
07E000
ENDCHAR
STARTCHAR 00F4
ENCODING 244
SWIDTH 555 0
DWIDTH 20 0
BBX 17 28 2 0
BITMAP
03E000
07E000
0FF000
1F7800
1E3C00
381C00
100800
000000
000000
07E000
1FF800
3FFC00
7C3E00
780F00
F00F00
F00F00
F00780
F00780
F00780
F00780
F00780
F00F00
F00F00
780F00
7C3E00
3FFC00
1FF800
07E000
ENDCHAR
STARTCHAR 00F5
ENCODING 245
SWIDTH 555 0
DWIDTH 20 0
BBX 17 27 2 0
BITMAP
0E0800
1F8C00
3FFE00
31FC00
107800
000000
000000
000000
07E000
1FF800
3FFC00
7C3E00
780F00
F00F00
F00F00
F00780
F00780
F00780
F00780
F00780
F00F00
F00F00
780F00
7C3E00
3FFC00
1FF800
07E000
ENDCHAR
STARTCHAR 00F6
ENCODING 246
SWIDTH 555 0
DWIDTH 20 0
BBX 17 26 2 0
BITMAP
1C3C00
3E3C00
3E3C00
1C3C00
000000
000000
000000
07E000
1FF800
3FFC00
7C3E00
780F00
F00F00
F00F00
F00780
F00780
F00780
F00780
F00780
F00F00
F00F00
780F00
7C3E00
3FFC00
1FF800
07E000
ENDCHAR
STARTCHAR 00F7
ENCODING 247
SWIDTH 611 0
DWIDTH 22 0
BBX 17 19 2 1
BITMAP
01E000
03E000
03E000
03E000
01E000
000000
000000
000000
FFFF80
FFFF80
FFFF80
000000
000000
000000
01E000
03E000
03E000
03E000
01E000
ENDCHAR
STARTCHAR 00F8
ENCODING 248
SWIDTH 583 0
DWIDTH 21 0
BBX 19 21 1 -1
BITMAP
000080
03F1E0
0FFFC0
1FFF80
3E1F00
3C0F80
781F80
783BC0
787BC0
78F3C0
78E3C0
79C3C0
7B83C0
7F03C0
7F0780
3E0780
3E1F00
3FFE00
7FFC00
F3F000
600000
ENDCHAR
STARTCHAR 00F9
ENCODING 249
SWIDTH 583 0
DWIDTH 21 0
BBX 15 29 3 0
BITMAP
0400
0E00
1E00
0F00
0700
0780
0380
0100
0000
0000
F01E
F01E
F01E
F01E
F01E
F01E
F01E
F01E
F01E
F01E
F01E
F01E
F01E
F01E
F01E
F87E
7FFE
3FDE
1F1E
ENDCHAR
STARTCHAR 00FA
ENCODING 250
SWIDTH 583 0
DWIDTH 21 0
BBX 15 29 3 0
BITMAP
0080
00E0
00F0
01E0
01C0
03C0
0380
0500
0000
0000
F01E
F01E
F01E
F01E
F01E
F01E
F01E
F01E
F01E
F01E
F01E
F01E
F01E
F01E
F01E
F87E
7FFE
3FDE
1F1E
ENDCHAR
STARTCHAR 00FB
ENCODING 251
SWIDTH 583 0
DWIDTH 21 0
BBX 15 28 3 0
BITMAP
07C0
0FE0
1FE0
1EF0
3C78
783C
3010
0000
0000
F01E
F01E
F01E
F01E
F01E
F01E
F01E
F01E
F01E
F01E
F01E
F01E
F01E
F01E
F01E
F87E
7FFE
3FDE
1F1E
ENDCHAR
STARTCHAR 00FC
ENCODING 252
SWIDTH 583 0
DWIDTH 21 0
BBX 15 26 3 0
BITMAP
3C78
3C78
3C78
3C78
0000
0000
0000
F01E
F01E
F01E
F01E
F01E
F01E
F01E
F01E
F01E
F01E
F01E
F01E
F01E
F01E
F01E
F87E
7FFE
3FDE
1F1E
ENDCHAR
STARTCHAR 00FD
ENCODING 253
SWIDTH 527 0
DWIDTH 19 0
BBX 18 36 0 -7
BITMAP
002000
003800
007C00
007800
00F000
00F000
01E000
004000
000000
000000
F803C0
7803C0
780780
3C0780
3C0780
3C0F00
1E0F00
1E0E00
1E1E00
0F1E00
0F1C00
0F3C00
073C00
07B800
07B800
03F800
03F000
03F000
01F000
01E000
01E000
01E000
03C000
1FC000
1F8000
1F0000
ENDCHAR
STARTCHAR 00FE
ENCODING 254
SWIDTH 583 0
DWIDTH 21 0
BBX 17 34 3 -7
BITMAP
F00000
F00000
F00000
F00000
F00000
F00000
F00000
F00000
F1F000
F7FC00
FFFE00
FC3E00
F01F00
F00F00
F00F00
F00F80
F00F80
F00F80
F00F80
F00F80
F00F00
F00F00
F01F00
FC3E00
FFFE00
F7FC00
F1F000
F00000
F00000
F00000
F00000
F00000
F00000
F00000
ENDCHAR
STARTCHAR 00FF
ENCODING 255
SWIDTH 527 0
DWIDTH 19 0
BBX 18 33 0 -7
BITMAP
0F1E00
0F1E00
0F1E00
0F1E00
000000
000000
000000
F803C0
7803C0
780780
3C0780
3C0780
3C0F00
1E0F00
1E0E00
1E1E00
0F1E00
0F1C00
0F3C00
073C00
07B800
07B800
03F800
03F000
03F000
01F000
01E000
01E000
01E000
03C000
1FC000
1F8000
1F0000
ENDCHAR
STARTCHAR 0100
ENCODING 256
SWIDTH 666 0
DWIDTH 24 0
BBX 22 32 1 0
BITMAP
03FF00
03FF00
03FF00
000000
000000
000000
000000
00FC00
00FC00
01FC00
01FE00
01DE00
03DE00
03CF00
03CF00
078F00
078780
078780
0F0780
0F03C0
0F03C0
1E03C0
1FFFE0
1FFFE0
3FFFE0
3C00F0
3C00F0
7800F8
780078
780078
F0007C
F0003C
ENDCHAR
STARTCHAR 0101
ENCODING 257
SWIDTH 555 0
DWIDTH 20 0
BBX 18 26 1 0
BITMAP
1FFC00
1FFC00
1FFC00
000000
000000
000000
000000
07F000
1FFC00
3FFE00
7C3E00
301E00
000F00
000F00
000F00
0FFF00
3FFF00
7FFF00
7C0F00
F80F00
F00F00
F81F00
783F00
7FFFC0
3FE7C0
0F83C0
ENDCHAR
STARTCHAR 0102
ENCODING 258
SWIDTH 666 0
DWIDTH 24 0
BBX 22 33 1 0
BITMAP
020300
070380
078700
03FF00
01FE00
00F800
000000
000000
00FC00
00FC00
01FC00
01FE00
01DE00
03DE00
03CF00
03CF00
078F00
078780
078780
0F0780
0F03C0
0F03C0
1E03C0
1FFFE0
1FFFE0
3FFFE0
3C00F0
3C00F0
7800F8
780078
780078
F0007C
F0003C
ENDCHAR
STARTCHAR 0103
ENCODING 259
SWIDTH 555 0
DWIDTH 20 0
BBX 18 27 1 0
BITMAP
180800
3C1C00
1E3C00
1FF800
0FF000
03E000
000000
000000
07F000
1FFC00
3FFE00
7C3E00
301E00
000F00
000F00
000F00
0FFF00
3FFF00
7FFF00
7C0F00
F80F00
F00F00
F81F00
783F00
7FFFC0
3FE7C0
0F83C0
ENDCHAR
STARTCHAR 0104
ENCODING 260
SWIDTH 666 0
DWIDTH 24 0
BBX 23 32 1 -7
BITMAP
00FC00
00FC00
01FC00
01FE00
01DE00
03DE00
03CF00
03CF00
078F00
078780
078780
0F0780
0F03C0
0F03C0
1E03C0
1FFFE0
1FFFE0
3FFFE0
3C00F0
3C00F0
7800F8
780078
780078
F0007C
F0003C
000018
000070
0000E0
0001C0
0001C4
0000FE
00007C
ENDCHAR
STARTCHAR 0105
ENCODING 261
SWIDTH 555 0
DWIDTH 20 0
BBX 19 26 1 -7
BITMAP
07F000
1FFC00
3FFE00
7C3E00
301E00
000F00
000F00
000F00
0FFF00
3FFF00
7FFF00
7C0F00
F80F00
F00F00
F81F00
783F00
7FFFC0
3FE7C0
0F83C0
000380
000700
000E00
001C00
001CC0
001FE0
000780
ENDCHAR
STARTCHAR 0106
ENCODING 262
SWIDTH 638 0
DWIDTH 23 0
BBX 20 35 2 0
BITMAP
001000
001C00
001E00
003C00
003800
007800
007000
00A000
000000
000000
01FC00
07FF80
1FFFC0
1F07E0
3C01E0
7C01E0
780080
780000
F00000
F00000
F00000
F00000
F00000
F00000
F00000
F00000
F00000
780000
780080
7C01E0
3C01F0
1F07E0
1FFFC0
07FF00
01FC00
ENDCHAR
STARTCHAR 0107
ENCODING 263
SWIDTH 500 0
DWIDTH 18 0
BBX 15 29 2 0
BITMAP
0040
0070
00F8
00F0
01E0
01C0
0380
0180
0000
0000
07E0
1FF8
3FFC
7C3E
781E
F008
F000
F000
F000
F000
F000
F000
F000
F00C
781E
7C3E
3FFC
1FF8
07E0
ENDCHAR
STARTCHAR 0108
ENCODING 264
SWIDTH 638 0
DWIDTH 23 0
BBX 20 34 2 0
BITMAP
00F800
01FC00
03FC00
03DE00
078F00
0F0780
060200
000000
000000
01FC00
07FF80
1FFFC0
1F07E0
3C01E0
7C01E0
780080
780000
F00000
F00000
F00000
F00000
F00000
F00000
F00000
F00000
F00000
780000
780080
7C01E0
3C01F0
1F07E0
1FFFC0
07FF00
01FC00
ENDCHAR
STARTCHAR 0109
ENCODING 265
SWIDTH 500 0
DWIDTH 18 0
BBX 15 28 2 0
BITMAP
03C0
07E0
0FF0
1EF8
3C3C
381C
1008
0000
0000
07E0
1FF8
3FFC
7C3E
781E
F008
F000
F000
F000
F000
F000
F000
F000
F00C
781E
7C3E
3FFC
1FF8
07E0
ENDCHAR
STARTCHAR 010A
ENCODING 266
SWIDTH 638 0
DWIDTH 23 0
BBX 20 33 2 0
BITMAP
007000
00F800
00F800
00F800
007000
000000
000000
000000
01FC00
07FF80
1FFFC0
1F07E0
3C01E0
7C01E0
780080
780000
F00000
F00000
F00000
F00000
F00000
F00000
F00000
F00000
F00000
780000
780080
7C01E0
3C01F0
1F07E0
1FFFC0
07FF00
01FC00
ENDCHAR
STARTCHAR 010B
ENCODING 267
SWIDTH 500 0
DWIDTH 18 0
BBX 15 27 2 0
BITMAP
03C0
03C0
03C0
03C0
03C0
0000
0000
0000
07E0
1FF8
3FFC
7C3E
781E
F008
F000
F000
F000
F000
F000
F000
F000
F00C
781E
7C3E
3FFC
1FF8
07E0
ENDCHAR
STARTCHAR 010C
ENCODING 268
SWIDTH 638 0
DWIDTH 23 0
BBX 20 34 2 0
BITMAP
060200
0F0780
078F00
03DE00
03FC00
01FC00
00F800
000000
000000
01FC00
07FF80
1FFFC0
1F07E0
3C01E0
7C01E0
780080
780000
F00000
F00000
F00000
F00000
F00000
F00000
F00000
F00000
F00000
780000
780080
7C01E0
3C01F0
1F07E0
1FFFC0
07FF00
01FC00
ENDCHAR
STARTCHAR 010D
ENCODING 269
SWIDTH 500 0
DWIDTH 18 0
BBX 15 28 2 0
BITMAP
1008
381C
3C3C
1EF8
0FF0
07E0
03C0
0000
0000
07E0
1FF8
3FFC
7C3E
781E
F008
F000
F000
F000
F000
F000
F000
F000
F00C
781E
7C3E
3FFC
1FF8
07E0
ENDCHAR
STARTCHAR 010E
ENCODING 270
SWIDTH 694 0
DWIDTH 25 0
BBX 20 34 3 0
BITMAP
180800
3C1E00
1E3C00
0F7800
0FF000
07E000
03E000
000000
000000
FFF800
FFFE00
FFFF00
F00F80
F007C0
F003C0
F001E0
F001E0
F001E0
F001E0
F001F0
F001F0
F001F0
F001F0
F001F0
F001E0
F001E0
F001E0
F001E0
F003C0
F007C0
F00F80
FFFF00
FFFE00
FFF800
ENDCHAR
STARTCHAR 010F
ENCODING 271
SWIDTH 638 0
DWIDTH 23 0
BBX 23 27 2 0
BITMAP
00079E
00079E
00079C
00079C
00079C
00079C
000798
000780
0FC780
1FE780
3FF780
7C1F80
F80F80
F00F80
F00780
F00780
F00780
F00780
F00780
F00780
F00780
F00F80
F80F80
7C1F80
3FF780
1FE780
0FC780
ENDCHAR
STARTCHAR 0110
ENCODING 272
SWIDTH 694 0
DWIDTH 25 0
BBX 23 25 0 0
BITMAP
1FFF00
1FFFC0
1FFFE0
1E01F0
1E00F8
1E0078
1E003C
1E003C
1E003C
1E003E
1E003E
FFF03E
FFF03E
FFF03E
1E003E
1E003E
1E003C
1E003C
1E003C
1E0078
1E00F8
1E01F0
1FFFE0
1FFFC0
1FFF00
ENDCHAR
STARTCHAR 0111
ENCODING 273
SWIDTH 583 0
DWIDTH 21 0
BBX 19 27 2 0
BITMAP
000780
000780
000780
01FFE0
01FFE0
01FFE0
000780
000780
0FC780
1FE780
3FF780
7C1F80
F80F80
F00F80
F00780
F00780
F00780
F00780
F00780
F00780
F00780
F00F80
F80F80
7C1F80
3FF780
1FE780
0FC780
ENDCHAR
STARTCHAR 0112
ENCODING 274
SWIDTH 583 0
DWIDTH 21 0
BBX 16 32 3 0
BITMAP
1FF8
1FF8
1FF8
0000
0000
0000
0000
FFFF
FFFF
FFFF
F000
F000
F000
F000
F000
F000
F000
F000
FFFE
FFFE
FFFE
F000
F000
F000
F000
F000
F000
F000
F000
FFFF
FFFF
FFFF
ENDCHAR
STARTCHAR 0113
ENCODING 275
SWIDTH 555 0
DWIDTH 20 0
BBX 16 26 2 0
BITMAP
1FF8
1FF8
1FF8
0000
0000
0000
0000
07E0
1FF8
3FFC
7C3E
781E
F00F
F00F
F00F
FFFF
FFFF
FFFF
F000
F000
F004
7806
7C1F
3FFE
1FFC
07F0
ENDCHAR
STARTCHAR 0114
ENCODING 276
SWIDTH 583 0
DWIDTH 21 0
BBX 16 33 3 0
BITMAP
1808
381C
1C3C
1FF8
0FF0
07E0
0000
0000
FFFF
FFFF
FFFF
F000
F000
F000
F000
F000
F000
F000
F000
FFFE
FFFE
FFFE
F000
F000
F000
F000
F000
F000
F000
F000
FFFF
FFFF
FFFF
ENDCHAR
STARTCHAR 0115
ENCODING 277
SWIDTH 555 0
DWIDTH 20 0
BBX 16 27 2 0
BITMAP
1808
381C
1C3C
1FF8
0FF0
03E0
0000
0000
07E0
1FF8
3FFC
7C3E
781E
F00F
F00F
F00F
FFFF
FFFF
FFFF
F000
F000
F004
7806
7C1F
3FFE
1FFC
07F0
ENDCHAR
STARTCHAR 0116
ENCODING 278
SWIDTH 583 0
DWIDTH 21 0
BBX 16 33 3 0
BITMAP
03C0
03E0
03E0
03E0
03C0
0000
0000
0000
FFFF
FFFF
FFFF
F000
F000
F000
F000
F000
F000
F000
F000
FFFE
FFFE
FFFE
F000
F000
F000
F000
F000
F000
F000
F000
FFFF
FFFF
FFFF
ENDCHAR
STARTCHAR 0117
ENCODING 279
SWIDTH 555 0
DWIDTH 20 0
BBX 16 27 2 0
BITMAP
03C0
03E0
03E0
03E0
01C0
0000
0000
0000
07E0
1FF8
3FFC
7C3E
781E
F00F
F00F
F00F
FFFF
FFFF
FFFF
F000
F000
F004
7806
7C1F
3FFE
1FFC
07F0
ENDCHAR
STARTCHAR 0118
ENCODING 280
SWIDTH 583 0
DWIDTH 21 0
BBX 17 32 3 -7
BITMAP
FFFF00
FFFF00
FFFF00
F00000
F00000
F00000
F00000
F00000
F00000
F00000
F00000
FFFE00
FFFE00
FFFE00
F00000
F00000
F00000
F00000
F00000
F00000
F00000
F00000
FFFF00
FFFF00
FFFF00
000700
001C00
003800
003800
003900
003F80
001F00
ENDCHAR
STARTCHAR 0119
ENCODING 281
SWIDTH 555 0
DWIDTH 20 0
BBX 16 26 2 -7
BITMAP
07E0
1FF8
3FFC
7C3E
781E
F00F
F00F
F00F
FFFF
FFFF
FFFF
F000
F000
F008
7806
7C1F
3FFE
1FFC
07F8
0070
00E0
01C0
01C0
01C8
01FC
00F8
ENDCHAR
STARTCHAR 011A
ENCODING 282
SWIDTH 583 0
DWIDTH 21 0
BBX 16 34 3 0
BITMAP
1008
381C
1E3C
1F78
0FF0
07E0
03E0
0000
0000
FFFF
FFFF
FFFF
F000
F000
F000
F000
F000
F000
F000
F000
FFFE
FFFE
FFFE
F000
F000
F000
F000
F000
F000
F000
F000
FFFF
FFFF
FFFF
ENDCHAR
STARTCHAR 011B
ENCODING 283
SWIDTH 555 0
DWIDTH 20 0
BBX 16 28 2 0
BITMAP
1008
3C1C
1E3E
1F78
0FF0
07E0
03E0
0000
0000
07E0
1FF8
3FFC
7C3E
781E
F00F
F00F
F00F
FFFF
FFFF
FFFF
F000
F000
F004
7806
7C1F
3FFE
1FFC
07F0
ENDCHAR
STARTCHAR 011C
ENCODING 284
SWIDTH 694 0
DWIDTH 25 0
BBX 21 34 2 0
BITMAP
00F800
00FC00
01FE00
03DF00
078F00
070780
020100
000000
000000
01FE00
07FF80
0FFFC0
1F03E0
3E01F0
7C00F0
780040
780000
F00000
F00000
F00000
F00000
F00FF8
F00FF8
F00FF8
F00078
F00078
780078
780078
7C00F8
3E01F8
1F03F8
0FFFF8
07FF78
01FC78
ENDCHAR
STARTCHAR 011D
ENCODING 285
SWIDTH 555 0
DWIDTH 20 0
BBX 18 35 1 -7
BITMAP
03E000
03F000
07F800
0F7800
1E3C00
3C1E00
080C00
000000
000000
07FFC0
1FFFC0
3FFFC0
3C1E00
780F00
780F00
780F00
780F00
780F00
3C1E00
3FFE00
0FFC00
0FF000
380000
700000
780000
7FFE00
3FFF80
1FFFC0
7003C0
F001C0
F003C0
F807C0
7FFF80
3FFF00
0FFC00
ENDCHAR
STARTCHAR 011E
ENCODING 286
SWIDTH 694 0
DWIDTH 25 0
BBX 21 33 2 0
BITMAP
020300
070380
078700
03FF00
01FE00
00F800
000000
000000
01FE00
07FF80
0FFFC0
1F03E0
3E01F0
7C00F0
780040
780000
F00000
F00000
F00000
F00000
F00FF8
F00FF8
F00FF8
F00078
F00078
780078
780078
7C00F8
3E01F8
1F03F8
0FFFF8
07FF78
01FC78
ENDCHAR
STARTCHAR 011F
ENCODING 287
SWIDTH 555 0
DWIDTH 20 0
BBX 18 34 1 -7
BITMAP
080C00
1C1E00
1E3C00
0FFC00
07F800
03E000
000000
000000
07FFC0
1FFFC0
3FFFC0
3C1E00
780F00
780F00
780F00
780F00
780F00
3C1E00
3FFE00
0FFC00
0FF000
380000
700000
780000
7FFE00
3FFF80
1FFFC0
7003C0
F001C0
F003C0
F807C0
7FFF80
3FFF00
0FFC00
ENDCHAR
STARTCHAR 0120
ENCODING 288
SWIDTH 694 0
DWIDTH 25 0
BBX 21 33 2 0
BITMAP
007800
00F800
00F800
00F800
007800
000000
000000
000000
01FE00
07FF80
0FFFC0
1F03E0
3E01F0
7C00F0
780040
780000
F00000
F00000
F00000
F00000
F00FF8
F00FF8
F00FF8
F00078
F00078
780078
780078
7C00F8
3E01F8
1F03F8
0FFFF8
07FF78
01FC78
ENDCHAR
STARTCHAR 0121
ENCODING 289
SWIDTH 555 0
DWIDTH 20 0
BBX 18 34 1 -7
BITMAP
01C000
03E000
03E000
03E000
01C000
000000
000000
000000
07FFC0
1FFFC0
3FFFC0
3C1E00
780F00
780F00
780F00
780F00
780F00
3C1E00
3FFE00
0FFC00
0FF000
380000
700000
780000
7FFE00
3FFF80
1FFFC0
7003C0
F001C0
F003C0
F807C0
7FFF80
3FFF00
0FFC00
ENDCHAR
STARTCHAR 0122
ENCODING 290
SWIDTH 694 0
DWIDTH 25 0
BBX 21 34 2 -9
BITMAP
01FE00
07FF80
0FFFC0
1F03E0
3E01F0
7C00F0
780040
780000
F00000
F00000
F00000
F00000
F00FF8
F00FF8
F00FF8
F00078
F00078
780078
780078
7C00F8
3E01F8
1F03F8
0FFFF8
07FF78
01FC78
000000
000000
007000
00F800
00F800
007800
003000
007000
00E000
ENDCHAR
STARTCHAR 0123
ENCODING 291
SWIDTH 555 0
DWIDTH 20 0
BBX 18 36 1 -7
BITMAP
00E000
00C000
01C000
01C000
01E000
01E000
01C000
000000
000000
000000
07FFC0
1FFFC0
3FFFC0
3C1E00
780F00
780F00
780F00
780F00
780F00
3C1E00
3FFE00
0FFC00
0FF000
380000
700000
780000
7FFE00
3FFF80
1FFFC0
7003C0
F001C0
F003C0
F807C0
7FFF80
3FFF00
0FFC00
ENDCHAR
STARTCHAR 0124
ENCODING 292
SWIDTH 722 0
DWIDTH 26 0
BBX 20 34 3 0
BITMAP
01F000
01F800
03FC00
07BE00
0F1E00
0E0F00
040200
000000
000000
F000F0
F000F0
F000F0
F000F0
F000F0
F000F0
F000F0
F000F0
F000F0
F000F0
F000F0
FFFFF0
FFFFF0
FFFFF0
F000F0
F000F0
F000F0
F000F0
F000F0
F000F0
F000F0
F000F0
F000F0
F000F0
F000F0
ENDCHAR
STARTCHAR 0125
ENCODING 293
SWIDTH 583 0
DWIDTH 21 0
BBX 19 34 -1 0
BITMAP
1F0000
1F8000
3FC000
7BE000
F1E000
E07000
402000
0F0000
0F0000
0F0000
0F0000
0F0000
0F0000
0F0000
0F0000
0F3F00
0F7F80
0FFFC0
0FC3E0
0F01E0
0F01E0
0F01E0
0F01E0
0F01E0
0F01E0
0F01E0
0F01E0
0F01E0
0F01E0
0F01E0
0F01E0
0F01E0
0F01E0
0F01E0
ENDCHAR
STARTCHAR 0126
ENCODING 294
SWIDTH 722 0
DWIDTH 26 0
BBX 24 25 1 0
BITMAP
3C003C
3C003C
3C003C
3C003C
FFFFFF
FFFFFF
FFFFFF
3C003C
3C003C
3C003C
3C003C
3FFFFC
3FFFFC
3FFFFC
3C003C
3C003C
3C003C
3C003C
3C003C
3C003C
3C003C
3C003C
3C003C
3C003C
3C003C
ENDCHAR
STARTCHAR 0127
ENCODING 295
SWIDTH 583 0
DWIDTH 21 0
BBX 17 27 1 0
BITMAP
3C0000
3C0000
3C0000
FFE000
FFE000
FFE000
3C0000
3C0000
3CFC00
3DFE00
3FFF00
3F0F80
3C0780
3C0780
3C0780
3C0780
3C0780
3C0780
3C0780
3C0780
3C0780
3C0780
3C0780
3C0780
3C0780
3C0780
3C0780
ENDCHAR
STARTCHAR 0128
ENCODING 296
SWIDTH 416 0
DWIDTH 15 0
BBX 13 33 1 0
BITMAP
3C10
7F30
FFF8
67F0
41E0
0000
0000
0000
7FF0
7FF0
7FF0
0F80
0F80
0F80
0F80
0F80
0F80
0F80
0F80
0F80
0F80
0F80
0F80
0F80
0F80
0F80
0F80
0F80
0F80
0F80
7FF0
7FF0
7FF0
ENDCHAR
STARTCHAR 0129
ENCODING 297
SWIDTH 277 0
DWIDTH 10 0
BBX 13 27 -2 0
BITMAP
3C10
7F18
7FF8
E3F0
40E0
0000
0000
0000
0780
0780
0780
0780
0780
0780
0780
0780
0780
0780
0780
0780
0780
0780
0780
0780
0780
0780
0780
ENDCHAR
STARTCHAR 012A
ENCODING 298
SWIDTH 416 0
DWIDTH 15 0
BBX 11 32 2 0
BITMAP
FFE0
FFE0
FFE0
0000
0000
0000
0000
FFE0
FFE0
FFE0
1F00
1F00
1F00
1F00
1F00
1F00
1F00
1F00
1F00
1F00
1F00
1F00
1F00
1F00
1F00
1F00
1F00
1F00
1F00
FFE0
FFE0
FFE0
ENDCHAR
STARTCHAR 012B
ENCODING 299
SWIDTH 277 0
DWIDTH 10 0
BBX 10 26 0 0
BITMAP
FFC0
FFC0
FFC0
0000
0000
0000
0000
1E00
1E00
1E00
1E00
1E00
1E00
1E00
1E00
1E00
1E00
1E00
1E00
1E00
1E00
1E00
1E00
1E00
1E00
1E00
ENDCHAR
STARTCHAR 012C
ENCODING 300
SWIDTH 416 0
DWIDTH 15 0
BBX 13 33 1 0
BITMAP
2020
F078
78F0
3FE0
3FE0
0F80
0000
0000
7FF0
7FF0
7FF0
0F80
0F80
0F80
0F80
0F80
0F80
0F80
0F80
0F80
0F80
0F80
0F80
0F80
0F80
0F80
0F80
0F80
0F80
0F80
7FF0
7FF0
7FF0
ENDCHAR
STARTCHAR 012D
ENCODING 301
SWIDTH 277 0
DWIDTH 10 0
BBX 12 27 -1 0
BITMAP
4060
E070
F0E0
7FE0
3FC0
1F00
0000
0000
0F00
0F00
0F00
0F00
0F00
0F00
0F00
0F00
0F00
0F00
0F00
0F00
0F00
0F00
0F00
0F00
0F00
0F00
0F00
ENDCHAR
STARTCHAR 012E
ENCODING 302
SWIDTH 416 0
DWIDTH 15 0
BBX 12 32 2 -7
BITMAP
FFE0
FFE0
FFE0
1F00
1F00
1F00
1F00
1F00
1F00
1F00
1F00
1F00
1F00
1F00
1F00
1F00
1F00
1F00
1F00
1F00
1F00
1F00
FFE0
FFE0
FFE0
00C0
0380
0700
0E00
0E20
07F0
03E0
ENDCHAR
STARTCHAR 012F
ENCODING 303
SWIDTH 277 0
DWIDTH 10 0
BBX 8 34 0 -7
BITMAP
1C
1E
3E
1E
1C
00
00
00
1E
1E
1E
1E
1E
1E
1E
1E
1E
1E
1E
1E
1E
1E
1E
1E
1E
1E
1E
1C
38
70
E0
E6
FF
3E
ENDCHAR
STARTCHAR 0130
ENCODING 304
SWIDTH 416 0
DWIDTH 15 0
BBX 11 33 2 0
BITMAP
0E00
1F00
1F00
1F00
0E00
0000
0000
0000
FFE0
FFE0
FFE0
1F00
1F00
1F00
1F00
1F00
1F00
1F00
1F00
1F00
1F00
1F00
1F00
1F00
1F00
1F00
1F00
1F00
1F00
1F00
FFE0
FFE0
FFE0
ENDCHAR
STARTCHAR 0131
ENCODING 305
SWIDTH 277 0
DWIDTH 10 0
BBX 4 19 3 0
BITMAP
F0
F0
F0
F0
F0
F0
F0
F0
F0
F0
F0
F0
F0
F0
F0
F0
F0
F0
F0
ENDCHAR
STARTCHAR 0132
ENCODING 306
SWIDTH 638 0
DWIDTH 23 0
BBX 17 25 3 0
BITMAP
F07F80
F07F80
F07F80
F00780
F00780
F00780
F00780
F00780
F00780
F00780
F00780
F00780
F00780
F00780
000780
000780
000780
000780
100780
F00780
780F80
7C1F00
3FFE00
1FFC00
07F000
ENDCHAR
STARTCHAR 0133
ENCODING 307
SWIDTH 527 0
DWIDTH 19 0
BBX 14 34 2 -7
BITMAP
701C
783C
F83C
783C
701C
0000
0000
0000
783C
783C
783C
783C
783C
783C
783C
783C
783C
783C
783C
783C
783C
783C
783C
783C
783C
783C
783C
003C
003C
003C
003C
01FC
01F8
01F0
ENDCHAR
STARTCHAR 0134
ENCODING 308
SWIDTH 527 0
DWIDTH 19 0
BBX 15 34 1 0
BITMAP
01E0
03F0
07F8
0FBC
0F1E
1C0E
0804
0000
0000
1FFE
1FFE
1FFE
001E
001E
001E
001E
001E
001E
001E
001E
001E
001E
001E
001E
001E
001E
001E
101E
F01E
F83E
7C7C
7FFC
3FF8
0FE0
ENDCHAR
STARTCHAR 0135
ENCODING 309
SWIDTH 277 0
DWIDTH 10 0
BBX 12 35 -1 -7
BITMAP
1F00
1F80
3FC0
7BE0
F1E0
E070
4020
0000
0000
0F00
0F00
0F00
0F00
0F00
0F00
0F00
0F00
0F00
0F00
0F00
0F00
0F00
0F00
0F00
0F00
0F00
0F00
0F00
0F00
0F00
0F00
0F00
7E00
7E00
7C00
ENDCHAR
STARTCHAR 0136
ENCODING 310
SWIDTH 666 0
DWIDTH 24 0
BBX 20 34 3 -9
BITMAP
F003E0
F007C0
F00780
F00F00
F01F00
F03E00
F07C00
F0F800
F0F000
F1E000
F3E000
F7E000
FFF000
FEF000
FEF800
FC7C00
F83C00
F03E00
F01F00
F00F00
F00F80
F007C0
F003C0
F003E0
F001F0
000000
000000
00E000
01F000
01F000
00E000
006000
00E000
01C000
ENDCHAR
STARTCHAR 0137
ENCODING 311
SWIDTH 555 0
DWIDTH 20 0
BBX 16 36 3 -9
BITMAP
F000
F000
F000
F000
F000
F000
F000
F000
F01F
F03C
F078
F0F0
F1F0
F3E0
F7C0
F780
FFC0
FFC0
FDE0
F9F0
F0F0
F0F8
F07C
F03C
F03E
F01E
F01F
0000
0000
03C0
03C0
03C0
03C0
01C0
0180
0700
ENDCHAR
STARTCHAR 0138
ENCODING 312
SWIDTH 555 0
DWIDTH 20 0
BBX 16 19 3 0
BITMAP
F01F
F03E
F07C
F0F8
F1F0
F3E0
F3C0
F780
FFC0
FFC0
FDE0
F9F0
F0F0
F0F8
F07C
F03C
F03E
F01E
F01F
ENDCHAR
STARTCHAR 0139
ENCODING 313
SWIDTH 500 0
DWIDTH 18 0
BBX 14 35 3 0
BITMAP
1000
1C00
3E00
3C00
7800
7000
F000
6000
0000
0000
F000
F000
F000
F000
F000
F000
F000
F000
F000
F000
F000
F000
F000
F000
F000
F000
F000
F000
F000
F000
F000
F000
FFFC
FFFC
FFFC
ENDCHAR
STARTCHAR 013A
ENCODING 314
SWIDTH 277 0
DWIDTH 10 0
BBX 6 36 3 0
BITMAP
20
38
3C
78
78
F0
E0
60
00
F0
F0
F0
F0
F0
F0
F0
F0
F0
F0
F0
F0
F0
F0
F0
F0
F0
F0
F0
F0
F0
F0
F0
F0
FC
FC
3C
ENDCHAR
STARTCHAR 013B
ENCODING 315
SWIDTH 500 0
DWIDTH 18 0
BBX 14 34 3 -9
BITMAP
F000
F000
F000
F000
F000
F000
F000
F000
F000
F000
F000
F000
F000
F000
F000
F000
F000
F000
F000
F000
F000
F000
FFFC
FFFC
FFFC
0000
0000
0380
07C0
07C0
03C0
0180
0380
0700
ENDCHAR
STARTCHAR 013C
ENCODING 316
SWIDTH 277 0
DWIDTH 10 0
BBX 6 36 3 -9
BITMAP
F0
F0
F0
F0
F0
F0
F0
F0
F0
F0
F0
F0
F0
F0
F0
F0
F0
F0
F0
F0
F0
F0
F0
F0
FC
FC
3C
00
00
78
78
78
78
38
30
E0
ENDCHAR
STARTCHAR 013D
ENCODING 317
SWIDTH 500 0
DWIDTH 18 0
BBX 14 27 3 0
BITMAP
01F0
01E0
F1E0
F1E0
F1C0
F1C0
F1C0
F000
F000
F000
F000
F000
F000
F000
F000
F000
F000
F000
F000
F000
F000
F000
F000
F000
FFFC
FFFC
FFFC
ENDCHAR
STARTCHAR 013E
ENCODING 318
SWIDTH 305 0
DWIDTH 11 0
BBX 10 27 3 0
BITMAP
F3C0
F3C0
F3C0
F380
F380
F380
F380
F000
F000
F000
F000
F000
F000
F000
F000
F000
F000
F000
F000
F000
F000
F000
F000
F000
FC00
FC00
3C00
ENDCHAR
STARTCHAR 013F
ENCODING 319
SWIDTH 500 0
DWIDTH 18 0
BBX 14 25 3 0
BITMAP
F000
F000
F000
F000
F000
F000
F000
F000
F000
F038
F07C
F07C
F07C
F038
F000
F000
F000
F000
F000
F000
F000
F000
FFFC
FFFC
FFFC
ENDCHAR
STARTCHAR 0140
ENCODING 320
SWIDTH 388 0
DWIDTH 14 0
BBX 11 27 3 0
BITMAP
F000
F000
F000
F000
F000
F000
F000
F000
F000
F000
F000
F000
F1E0
F1E0
F3E0
F1E0
F1E0
F000
F000
F000
F000
F000
F000
F000
FC00
FC00
3C00
ENDCHAR
STARTCHAR 0141
ENCODING 321
SWIDTH 527 0
DWIDTH 19 0
BBX 18 25 0 0
BITMAP
1E0000
1E0000
1E0000
1E0000
1E0000
1E0000
1E0000
1E0000
1E0000
1E0800
1E3800
1FF800
1FF800
FFC000
FE0000
FE0000
9E0000
1E0000
1E0000
1E0000
1E0000
1E0000
1FFFC0
1FFFC0
1FFFC0
ENDCHAR
STARTCHAR 0142
ENCODING 322
SWIDTH 305 0
DWIDTH 11 0
BBX 11 27 0 0
BITMAP
1E00
1E00
1E00
1E00
1E00
1E00
1E00
1E00
1E00
1E00
1E60
1FE0
1FE0
FF80
FE00
FE00
1E00
1E00
1E00
1E00
1E00
1E00
1E00
1E00
1F80
0F80
0780
ENDCHAR
STARTCHAR 0143
ENCODING 323
SWIDTH 722 0
DWIDTH 26 0
BBX 20 35 3 0
BITMAP
002000
003800
003C00
007800
007800
00F000
00E000
006000
000000
000000
F800F0
FC00F0
FC00F0
FE00F0
FE00F0
FF00F0
FF80F0
F780F0
F7C0F0
F3C0F0
F3E0F0
F1E0F0
F0F0F0
F0F8F0
F078F0
F07CF0
F03CF0
F01EF0
F01EF0
F00FF0
F00FF0
F007F0
F003F0
F003F0
F001F0
ENDCHAR
STARTCHAR 0144
ENCODING 324
SWIDTH 583 0
DWIDTH 21 0
BBX 15 29 3 0
BITMAP
0080
00E0
00F0
01E0
01C0
03C0
0380
0100
0000
0000
F3F0
F7F8
FFFC
FC3E
F01E
F01E
F01E
F01E
F01E
F01E
F01E
F01E
F01E
F01E
F01E
F01E
F01E
F01E
F01E
ENDCHAR
STARTCHAR 0145
ENCODING 325
SWIDTH 722 0
DWIDTH 26 0
BBX 20 34 3 -9
BITMAP
F800F0
FC00F0
FC00F0
FE00F0
FE00F0
FF00F0
FF80F0
F780F0
F7C0F0
F3C0F0
F3E0F0
F1E0F0
F0F0F0
F0F8F0
F078F0
F07CF0
F03CF0
F01EF0
F01EF0
F00FF0
F00FF0
F007F0
F003F0
F003F0
F001F0
000000
000000
00E000
00F000
00F000
00F000
006000
00E000
01C000
ENDCHAR
STARTCHAR 0146
ENCODING 326
SWIDTH 583 0
DWIDTH 21 0
BBX 15 28 3 -9
BITMAP
F3F0
F7F8
FFFC
FC3E
F01E
F01E
F01E
F01E
F01E
F01E
F01E
F01E
F01E
F01E
F01E
F01E
F01E
F01E
F01E
0000
0000
0380
07C0
07C0
03C0
0180
0380
0700
ENDCHAR
STARTCHAR 0147
ENCODING 327
SWIDTH 722 0
DWIDTH 26 0
BBX 20 34 3 0
BITMAP
040200
0E0700
0F1E00
07BE00
03FC00
01F800
01F000
000000
000000
F800F0
FC00F0
FC00F0
FE00F0
FE00F0
FF00F0
FF80F0
F780F0
F7C0F0
F3C0F0
F3E0F0
F1E0F0
F0F0F0
F0F8F0
F078F0
F07CF0
F03CF0
F01EF0
F01EF0
F00FF0
F00FF0
F007F0
F003F0
F003F0
F001F0
ENDCHAR
STARTCHAR 0148
ENCODING 328
SWIDTH 583 0
DWIDTH 21 0
BBX 15 28 3 0
BITMAP
1018
783C
3C78
1EF0
0FF0
0FE0
07C0
0000
0000
F3F0
F7F8
FFFC
FC3E
F01E
F01E
F01E
F01E
F01E
F01E
F01E
F01E
F01E
F01E
F01E
F01E
F01E
F01E
F01E
ENDCHAR
STARTCHAR 0149
ENCODING 329
SWIDTH 833 0
DWIDTH 30 0
BBX 27 27 1 0
BITMAP
3C000000
3E000000
3E000000
3E000000
3E000000
1C000000
1C000000
38000000
381E3E00
701E7F80
801EFFC0
001F87C0
001F03C0
001E01E0
001E01E0
001E01E0
001E01E0
001E01E0
001E01E0
001E01E0
001E01E0
001E01E0
001E01E0
001E01E0
001E01E0
001E01E0
001E01E0
ENDCHAR
STARTCHAR 014A
ENCODING 330
SWIDTH 722 0
DWIDTH 26 0
BBX 20 32 3 -7
BITMAP
F800F0
FC00F0
FC00F0
FE00F0
FE00F0
FF00F0
FF80F0
F780F0
F7C0F0
F3C0F0
F3E0F0
F1E0F0
F0F0F0
F0F8F0
F078F0
F07CF0
F03CF0
F01EF0
F01EF0
F00FF0
F00FF0
F007F0
F003F0
F003F0
F001F0
0000F0
0000F0
0000F0
0000F0
0007E0
0007E0
0007C0
ENDCHAR
STARTCHAR 014B
ENCODING 331
SWIDTH 583 0
DWIDTH 21 0
BBX 15 26 3 -7
BITMAP
F3F0
F7F8
FFFC
FC3E
F01E
F01E
F01E
F01E
F01E
F01E
F01E
F01E
F01E
F01E
F01E
F01E
F01E
F01E
F01E
001E
001E
001E
001E
00FE
00FC
00F8
ENDCHAR
STARTCHAR 014C
ENCODING 332
SWIDTH 722 0
DWIDTH 26 0
BBX 22 32 2 0
BITMAP
03FF00
03FF00
03FF00
000000
000000
000000
000000
01FC00
07FF80
0FFFC0
1F07E0
3E01F0
7C00F0
7800F8
780078
F80078
F00078
F0007C
F0007C
F0007C
F0007C
F0007C
F00078
F00078
780078
7800F8
7C00F0
3E01F0
1F07E0
0FFFC0
07FF80
01FC00
ENDCHAR
STARTCHAR 014D
ENCODING 333
SWIDTH 555 0
DWIDTH 20 0
BBX 17 26 2 0
BITMAP
1FF800
1FF800
1FF800
000000
000000
000000
000000
07E000
1FF800
3FFC00
7C3E00
780F00
F00F00
F00F00
F00780
F00780
F00780
F00780
F00780
F00F00
F00F00
780F00
7C3E00
3FFC00
1FF800
07E000
ENDCHAR
STARTCHAR 014E
ENCODING 334
SWIDTH 722 0
DWIDTH 26 0
BBX 22 33 2 0
BITMAP
020300
070380
078700
03FF00
01FE00
00F800
000000
000000
01FC00
07FF80
0FFFC0
1F07E0
3E01F0
7C00F0
7800F8
780078
F80078
F00078
F0007C
F0007C
F0007C
F0007C
F0007C
F00078
F00078
780078
7800F8
7C00F0
3E01F0
1F07E0
0FFFC0
07FF80
01FC00
ENDCHAR
STARTCHAR 014F
ENCODING 335
SWIDTH 555 0
DWIDTH 20 0
BBX 17 27 2 0
BITMAP
180800
381C00
1C3C00
1FF800
0FF000
03E000
000000
000000
07E000
1FF800
3FFC00
7C3E00
780F00
F00F00
F00F00
F00780
F00780
F00780
F00780
F00780
F00F00
F00F00
780F00
7C3E00
3FFC00
1FF800
07E000
ENDCHAR
STARTCHAR 0150
ENCODING 336
SWIDTH 722 0
DWIDTH 26 0
BBX 22 35 2 0
BITMAP
008100
00E1C0
00F3E0
01E3C0
01C780
03C700
038E00
010600
000000
000000
01FC00
07FF80
0FFFC0
1F07E0
3E01F0
7C00F0
7800F8
780078
F80078
F00078
F0007C
F0007C
F0007C
F0007C
F0007C
F00078
F00078
780078
7800F8
7C00F0
3E01F0
1F07E0
0FFFC0
07FF80
01FC00
ENDCHAR
STARTCHAR 0151
ENCODING 337
SWIDTH 555 0
DWIDTH 20 0
BBX 17 29 2 0
BITMAP
040800
038E00
07CF00
071E00
0F1C00
0E3C00
1C3800
0C5000
000000
000000
07E000
1FF800
3FFC00
7C3E00
780F00
F00F00
F00F00
F00780
F00780
F00780
F00780
F00780
F00F00
F00F00
780F00
7C3E00
3FFC00
1FF800
07E000
ENDCHAR
STARTCHAR 0152
ENCODING 338
SWIDTH 1000 0
DWIDTH 36 0
BBX 31 25 2 0
BITMAP
01FFFFFE
07FFFFFE
0FFFFFFE
1F01E000
3E01E000
7C01E000
7801E000
7801E000
F001E000
F001E000
F001E000
F001FFFC
F001FFFC
F001FFFC
F001E000
F001E000
F001E000
7801E000
7801E000
7C01E000
3E01E000
1F01E000
0FFFFFFE
07FFFFFE
01FFFFFE
ENDCHAR
STARTCHAR 0153
ENCODING 339
SWIDTH 916 0
DWIDTH 33 0
BBX 30 19 2 0
BITMAP
07E03F00
1FF8FFC0
3FFDFFE0
7C3FE1F0
780FC078
F00F8078
F00F8078
F0078078
F007FFFC
F007FFFC
F007FFFC
F0078000
F00F8000
F00F8020
780FC030
7C3FE0F8
3FFDFFF0
1FF8FFE0
07E03F80
ENDCHAR
STARTCHAR 0154
ENCODING 340
SWIDTH 666 0
DWIDTH 24 0
BBX 19 35 3 0
BITMAP
004000
007000
00F800
00F000
01E000
01C000
03C000
008000
000000
000000
FFFC00
FFFF00
FFFF80
F00F80
F007C0
F003C0
F003C0
F003C0
F003C0
F003C0
F007C0
F00780
FFFF80
FFFF00
FFFC00
F07C00
F03C00
F03E00
F01E00
F01F00
F00F00
F00F80
F00780
F007C0
F003E0
ENDCHAR
STARTCHAR 0155
ENCODING 341
SWIDTH 388 0
DWIDTH 14 0
BBX 10 29 3 0
BITMAP
0200
0380
07C0
0780
0F00
0E00
1C00
0C00
0000
0000
F3C0
F7C0
FFC0
FC00
F000
F000
F000
F000
F000
F000
F000
F000
F000
F000
F000
F000
F000
F000
F000
ENDCHAR
STARTCHAR 0156
ENCODING 342
SWIDTH 666 0
DWIDTH 24 0
BBX 19 34 3 -9
BITMAP
FFFC00
FFFF00
FFFF80
F00F80
F007C0
F003C0
F003C0
F003C0
F003C0
F003C0
F007C0
F00780
FFFF80
FFFF00
FFFC00
F07C00
F03C00
F03E00
F01E00
F01F00
F00F00
F00F80
F00780
F007C0
F003C0
000020
000000
01E000
01E000
01E000
01E000
00E000
00C000
038000
ENDCHAR
STARTCHAR 0157
ENCODING 343
SWIDTH 388 0
DWIDTH 14 0
BBX 11 28 2 -9
BITMAP
79E0
7BE0
7FE0
7E00
7800
7800
7800
7800
7800
7800
7800
7800
7800
7800
7800
7800
7800
7800
7800
0000
0000
7000
7800
7800
7800
3000
7000
E000
ENDCHAR
STARTCHAR 0158
ENCODING 344
SWIDTH 666 0
DWIDTH 24 0
BBX 19 34 3 0
BITMAP
180800
3C1E00
1E3C00
0F7800
0FF000
07E000
03E000
000000
000000
FFFC00
FFFF00
FFFF80
F00F80
F007C0
F003C0
F003C0
F003C0
F003C0
F003C0
F007C0
F00780
FFFF80
FFFF00
FFFC00
F07C00
F03C00
F03E00
F01E00
F01F00
F00F00
F00F80
F00780
F007C0
F003E0
ENDCHAR
STARTCHAR 0159
ENCODING 345
SWIDTH 388 0
DWIDTH 14 0
BBX 12 28 2 0
BITMAP
4020
E070
F0F0
79E0
3FC0
1F80
0F00
0000
0000
79E0
7BE0
7FE0
7E00
7800
7800
7800
7800
7800
7800
7800
7800
7800
7800
7800
7800
7800
7800
7800
ENDCHAR
STARTCHAR 015A
ENCODING 346
SWIDTH 611 0
DWIDTH 22 0
BBX 19 35 1 0
BITMAP
002000
003800
003C00
007800
007800
00F000
00E000
004000
000000
000000
03FC00
0FFF00
1FFF80
3E07C0
3C0380
780100
780000
780000
7C0000
3E0000
3FC000
1FFC00
07FF00
00FF80
000FC0
0003C0
0001E0
0001E0
0001E0
3003E0
7803C0
FE0FC0
3FFF80
1FFF00
03F800
ENDCHAR
STARTCHAR 015B
ENCODING 347
SWIDTH 500 0
DWIDTH 18 0
BBX 15 29 1 0
BITMAP
0080
00E0
00F0
01E0
01E0
03C0
0380
0180
0000
0000
07E0
1FF8
3FFC
7C3E
7808
7800
7800
7E00
3FF0
1FFC
07FC
003E
001E
201E
701E
F83E
7FFC
3FF8
0FE0
ENDCHAR
STARTCHAR 015C
ENCODING 348
SWIDTH 611 0
DWIDTH 22 0
BBX 19 34 1 0
BITMAP
01F000
03F800
03FC00
07BC00
0F1E00
1E0F00
040600
000000
000000
03FC00
0FFF00
1FFF80
3E07C0
3C0380
780100
780000
780000
7C0000
3E0000
3FC000
1FFC00
07FF00
00FF80
000FC0
0003C0
0001E0
0001E0
0001E0
3003E0
7803C0
FE0FC0
3FFF80
1FFF00
03F800
ENDCHAR
STARTCHAR 015D
ENCODING 349
SWIDTH 500 0
DWIDTH 18 0
BBX 15 28 1 0
BITMAP
07C0
07E0
0FF0
1EF8
3C78
783C
1008
0000
0000
07E0
1FF8
3FFC
7C3E
7808
7800
7800
7E00
3FF0
1FFC
07FC
003E
001E
201E
701E
F83E
7FFC
3FF8
0FE0
ENDCHAR
STARTCHAR 015E
ENCODING 350
SWIDTH 611 0
DWIDTH 22 0
BBX 19 32 1 -7
BITMAP
03FC00
0FFF00
1FFFC0
3E07C0
3C0380
780100
780000
780000
7C0000
3E0000
3FC000
1FFC00
07FF00
00FF80
000FC0
0003C0
0001E0
0001E0
0001E0
3003E0
7803C0
FE0FC0
3FFF80
1FFF00
07FC00
00C000
00C000
00FC00
001C00
011C00
03FC00
01F800
ENDCHAR
STARTCHAR 015F
ENCODING 351
SWIDTH 500 0
DWIDTH 18 0
BBX 15 26 1 -7
BITMAP
07E0
1FF8
3FFC
7C3E
7808
7800
7800
7E00
3FF0
1FFC
07FC
003E
001E
201E
701E
F83E
7FFC
3FF8
0FE0
0180
0300
03F0
0070
0478
0FF0
03E0
ENDCHAR
STARTCHAR 0160
ENCODING 352
SWIDTH 611 0
DWIDTH 22 0
BBX 19 34 1 0
BITMAP
040600
1E0F00
0F1E00
07BC00
03FC00
03F800
01F000
000000
000000
03FC00
0FFF00
1FFF80
3E07C0
3C0380
780100
780000
780000
7C0000
3E0000
3FC000
1FFC00
07FF00
00FF80
000FC0
0003C0
0001E0
0001E0
0001E0
3003E0
7803C0
FE0FC0
3FFF80
1FFF00
03F800
ENDCHAR
STARTCHAR 0161
ENCODING 353
SWIDTH 500 0
DWIDTH 18 0
BBX 15 28 1 0
BITMAP
1008
383C
7C78
1EF8
0FF0
07E0
07C0
0000
0000
07E0
1FF8
3FFC
7C3E
7808
7800
7800
7E00
3FF0
1FFC
07FC
003E
001E
201E
701E
F83E
7FFC
3FF8
0FE0
ENDCHAR
STARTCHAR 0162
ENCODING 354
SWIDTH 583 0
DWIDTH 21 0
BBX 19 32 1 -7
BITMAP
FFFFE0
FFFFE0
FFFFE0
01E000
01E000
01E000
01E000
01E000
01E000
01E000
01E000
01E000
01E000
01E000
01E000
01E000
01E000
01E000
01E000
01E000
01E000
01E000
01E000
01E000
01E000
00C000
00C000
00F800
001C00
011C00
03FC00
01F000
ENDCHAR
STARTCHAR 0163
ENCODING 355
SWIDTH 361 0
DWIDTH 13 0
BBX 12 31 1 -7
BITMAP
1E00
1E00
1E00
1E00
1E00
FFE0
FFE0
FFE0
1E00
1E00
1E00
1E00
1E00
1E00
1E00
1E00
1E00
1E00
1E00
1E00
1E00
1FC0
0FC0
07C0
0300
0300
07E0
00F0
0C70
0FE0
17C0
ENDCHAR
STARTCHAR 0164
ENCODING 356
SWIDTH 583 0
DWIDTH 21 0
BBX 19 34 1 0
BITMAP
0C0400
1E0F00
0F1E00
07BC00
07F800
03F800
01F000
000000
000000
FFFFE0
FFFFE0
FFFFE0
01E000
01E000
01E000
01E000
01E000
01E000
01E000
01E000
01E000
01E000
01E000
01E000
01E000
01E000
01E000
01E000
01E000
01E000
01E000
01E000
01E000
01E000
ENDCHAR
STARTCHAR 0165
ENCODING 357
SWIDTH 361 0
DWIDTH 13 0
BBX 14 28 1 0
BITMAP
007C
0078
0078
0078
1E78
1E70
1E70
1E00
1E00
FFE0
FFE0
FFE0
1E00
1E00
1E00
1E00
1E00
1E00
1E00
1E00
1E00
1E00
1E00
1E00
1E00
1FC0
0FC0
07C0
ENDCHAR
STARTCHAR 0166
ENCODING 358
SWIDTH 583 0
DWIDTH 21 0
BBX 19 25 1 0
BITMAP
FFFFE0
FFFFE0
FFFFE0
00F000
00F000
00F000
00F000
00F000
00F000
00F000
00F000
3FFF80
3FFF80
3FFF80
00F000
00F000
00F000
00F000
00F000
00F000
00F000
00F000
00F000
00F000
00F000
ENDCHAR
STARTCHAR 0167
ENCODING 359
SWIDTH 361 0
DWIDTH 13 0
BBX 11 24 1 0
BITMAP
1E00
1E00
1E00
1E00
1E00
FFE0
FFE0
FFE0
1E00
1E00
1E00
1E00
1E00
7FC0
7FC0
7FC0
1E00
1E00
1E00
1E00
1E00
1FE0
0FE0
07E0
ENDCHAR
STARTCHAR 0168
ENCODING 360
SWIDTH 694 0
DWIDTH 25 0
BBX 19 33 3 0
BITMAP
078200
0FC600
1FFF00
08FE00
083C00
000000
000000
000000
F001E0
F001E0
F001E0
F001E0
F001E0
F001E0
F001E0
F001E0
F001E0
F001E0
F001E0
F001E0
F001E0
F001E0
F001E0
F001E0
F001E0
F001E0
F003C0
7803C0
7807C0
7E0F80
3FFF80
1FFE00
07F800
ENDCHAR
STARTCHAR 0169
ENCODING 361
SWIDTH 583 0
DWIDTH 21 0
BBX 15 27 3 0
BITMAP
1E08
3F98
7FFC
33F8
20F0
0000
0000
0000
F01E
F01E
F01E
F01E
F01E
F01E
F01E
F01E
F01E
F01E
F01E
F01E
F01E
F01E
F01E
F87E
7FFE
3FDE
1F1E
ENDCHAR
STARTCHAR 016A
ENCODING 362
SWIDTH 694 0
DWIDTH 25 0
BBX 19 32 3 0
BITMAP
0FFE00
0FFE00
0FFE00
000000
000000
000000
000000
F001E0
F001E0
F001E0
F001E0
F001E0
F001E0
F001E0
F001E0
F001E0
F001E0
F001E0
F001E0
F001E0
F001E0
F001E0
F001E0
F001E0
F001E0
F003C0
7803C0
7807C0
7E0F80
3FFF80
1FFE00
07F800
ENDCHAR
STARTCHAR 016B
ENCODING 363
SWIDTH 583 0
DWIDTH 21 0
BBX 15 26 3 0
BITMAP
3FF8
3FF8
3FF8
0000
0000
0000
0000
F01E
F01E
F01E
F01E
F01E
F01E
F01E
F01E
F01E
F01E
F01E
F01E
F01E
F01E
F01E
F87E
7FFE
3FDE
1F1E
ENDCHAR
STARTCHAR 016C
ENCODING 364
SWIDTH 694 0
DWIDTH 25 0
BBX 19 33 3 0
BITMAP
0C0400
1C0E00
0E1E00
0FFC00
07F800
01F000
000000
000000
F001E0
F001E0
F001E0
F001E0
F001E0
F001E0
F001E0
F001E0
F001E0
F001E0
F001E0
F001E0
F001E0
F001E0
F001E0
F001E0
F001E0
F001E0
F003C0
7803C0
7807C0
7E0F80
3FFF80
1FFE00
07F800
ENDCHAR
STARTCHAR 016D
ENCODING 365
SWIDTH 583 0
DWIDTH 21 0
BBX 15 27 3 0
BITMAP
3010
7838
3C78
3FF0
1FE0
07C0
0000
0000
F01E
F01E
F01E
F01E
F01E
F01E
F01E
F01E
F01E
F01E
F01E
F01E
F01E
F01E
F01E
F87E
7FFE
3FDE
1F1E
ENDCHAR
STARTCHAR 016E
ENCODING 366
SWIDTH 694 0
DWIDTH 25 0
BBX 19 35 3 0
BITMAP
01E000
03F800
071C00
061C00
061C00
061C00
071C00
03F800
01F000
000000
F001E0
F001E0
F001E0
F001E0
F001E0
F001E0
F001E0
F001E0
F001E0
F001E0
F001E0
F001E0
F001E0
F001E0
F001E0
F001E0
F001E0
F001E0
F003C0
7803C0
7807C0
7E0F80
3FFF80
1FFE00
07F800
ENDCHAR
STARTCHAR 016F
ENCODING 367
SWIDTH 583 0
DWIDTH 21 0
BBX 15 29 3 0
BITMAP
07C0
0FE0
1C70
1870
1870
1870
1C70
0FE0
07C0
0000
F01E
F01E
F01E
F01E
F01E
F01E
F01E
F01E
F01E
F01E
F01E
F01E
F01E
F01E
F01E
F87E
7FFE
3FDE
1F1E
ENDCHAR
STARTCHAR 0170
ENCODING 368
SWIDTH 694 0
DWIDTH 25 0
BBX 19 35 3 0
BITMAP
010400
01C700
03E780
03CF00
078E00
071E00
0F1C00
060800
000000
000000
F001E0
F001E0
F001E0
F001E0
F001E0
F001E0
F001E0
F001E0
F001E0
F001E0
F001E0
F001E0
F001E0
F001E0
F001E0
F001E0
F001E0
F001E0
F003C0
7803C0
7807C0
7E0F80
3FFF80
1FFE00
07F800
ENDCHAR
STARTCHAR 0171
ENCODING 369
SWIDTH 583 0
DWIDTH 21 0
BBX 15 29 3 0
BITMAP
0410
071C
079E
0F3C
0E38
1C78
1C70
3820
0000
0000
F01E
F01E
F01E
F01E
F01E
F01E
F01E
F01E
F01E
F01E
F01E
F01E
F01E
F01E
F01E
F87E
7FFE
3FDE
1F1E
ENDCHAR
STARTCHAR 0172
ENCODING 370
SWIDTH 694 0
DWIDTH 25 0
BBX 19 32 3 -7
BITMAP
F001E0
F001E0
F001E0
F001E0
F001E0
F001E0
F001E0
F001E0
F001E0
F001E0
F001E0
F001E0
F001E0
F001E0
F001E0
F001E0
F001E0
F001E0
F003C0
F803C0
7807C0
7E0F80
3FFF80
1FFF00
07FE00
001C00
003800
007000
00E000
00E200
007F00
003E00
ENDCHAR
STARTCHAR 0173
ENCODING 371
SWIDTH 583 0
DWIDTH 21 0
BBX 16 26 3 -7
BITMAP
F01E
F01E
F01E
F01E
F01E
F01E
F01E
F01E
F01E
F01E
F01E
F01E
F01E
F01E
F01E
F87E
7FFE
3FDE
1F1E
000C
0038
0070
0060
00E2
007F
003E
ENDCHAR
STARTCHAR 0174
ENCODING 372
SWIDTH 916 0
DWIDTH 33 0
BBX 31 34 1 0
BITMAP
0007C000
0007E000
000FF000
001EF000
003C7800
00783C00
00101800
00000000
00000000
F007C01E
F007C01E
F807E01E
7807E01E
780FE03C
780EE03C
780EF03C
3C0EF03C
3C1E7038
3C1C7078
3C1C7878
1C1C7878
1E3C3870
1E3838F0
1E383CF0
0E383CF0
0F781CE0
0F701CE0
0F701DE0
0F701FE0
07F00FC0
07E00FC0
07E00FC0
07E00FC0
03E00780
ENDCHAR
STARTCHAR 0175
ENCODING 373
SWIDTH 805 0
DWIDTH 29 0
BBX 27 28 1 0
BITMAP
001F0000
003F8000
007F8000
007BC000
00F1E000
01E0F000
00C04000
00000000
00000000
F00E01E0
F01F01C0
701F01C0
781F03C0
783F83C0
783B8380
383B8380
3C3B8780
3C73C780
3C71C700
1C71C700
1CF1CF00
1EE0EF00
0EE0EE00
0EE0EE00
0FC0FE00
0FC07C00
07C07C00
07C07C00
ENDCHAR
STARTCHAR 0176
ENCODING 374
SWIDTH 611 0
DWIDTH 22 0
BBX 22 34 0 0
BITMAP
007C00
00FC00
01FE00
03EF00
03C780
070380
020100
000000
000000
F8007C
7C0078
3C00F0
3E01F0
1F01E0
0F03E0
0F83C0
078780
07C780
03CF00
03EF00
01FE00
00FE00
00FC00
007800
007800
007800
007800
007800
007800
007800
007800
007800
007800
007800
ENDCHAR
STARTCHAR 0177
ENCODING 375
SWIDTH 527 0
DWIDTH 19 0
BBX 18 35 0 -7
BITMAP
01F000
03F800
07F800
07BC00
0F1E00
1E0F00
0C0400
000000
000000
F803C0
7803C0
780780
3C0780
3C0780
3C0F00
1E0F00
1E0E00
1E1E00
0F1E00
0F1C00
0F3C00
073C00
07B800
07B800
03F800
03F000
03F000
01F000
01E000
01E000
01E000
03C000
1FC000
1F8000
1F0000
ENDCHAR
STARTCHAR 0178
ENCODING 376
SWIDTH 611 0
DWIDTH 22 0
BBX 22 33 0 0
BITMAP
038700
07C780
07CF80
07C780
038700
000000
000000
000000
F8007C
7C0078
3C00F0
3E01F0
1F01E0
0F03E0
0F83C0
078780
07C780
03CF00
03EF00
01FE00
00FE00
00FC00
007800
007800
007800
007800
007800
007800
007800
007800
007800
007800
007800
ENDCHAR
STARTCHAR 0179
ENCODING 377
SWIDTH 583 0
DWIDTH 21 0
BBX 19 35 1 0
BITMAP
002000
003800
003C00
007800
007800
00F000
00E000
006000
000000
000000
7FFFE0
7FFFE0
7FFFE0
0003C0
000780
000F80
001F00
001E00
003E00
007C00
007800
00F000
01F000
03E000
03C000
07C000
0F8000
0F0000
1E0000
3E0000
7C0000
780000
FFFFE0
FFFFE0
FFFFE0
ENDCHAR
STARTCHAR 017A
ENCODING 378
SWIDTH 500 0
DWIDTH 18 0
BBX 15 29 1 0
BITMAP
0080
00E0
00F0
01E0
01E0
03C0
0380
0180
0000
0000
7FFE
7FFE
7FFE
003C
007C
00F8
00F0
01E0
03E0
07C0
0780
0F00
1F00
3E00
7C00
7800
FFFE
FFFE
FFFE
ENDCHAR
STARTCHAR 017B
ENCODING 379
SWIDTH 583 0
DWIDTH 21 0
BBX 19 33 1 0
BITMAP
00F000
01F000
01F000
01F000
00F000
000000
000000
000000
7FFFE0
7FFFE0
7FFFE0
0003C0
000780
000F80
001F00
001E00
003E00
007C00
007800
00F000
01F000
03E000
03C000
07C000
0F8000
0F0000
1E0000
3E0000
7C0000
780000
FFFFE0
FFFFE0
FFFFE0
ENDCHAR
STARTCHAR 017C
ENCODING 380
SWIDTH 500 0
DWIDTH 18 0
BBX 15 27 1 0
BITMAP
0380
07C0
07C0
07C0
03C0
0000
0000
0000
7FFE
7FFE
7FFE
003C
007C
00F8
00F0
01E0
03E0
07C0
0780
0F00
1F00
3E00
7C00
7800
FFFE
FFFE
FFFE
ENDCHAR
STARTCHAR 017D
ENCODING 381
SWIDTH 583 0
DWIDTH 21 0
BBX 19 34 1 0
BITMAP
040200
0E0F00
1F1E00
07BE00
03FC00
01F800
01F000
000000
000000
7FFFE0
7FFFE0
7FFFE0
0003C0
000780
000F80
001F00
001E00
003E00
007C00
007800
00F000
01F000
03E000
03C000
07C000
0F8000
0F0000
1E0000
3E0000
7C0000
780000
FFFFE0
FFFFE0
FFFFE0
ENDCHAR
STARTCHAR 017E
ENCODING 382
SWIDTH 500 0
DWIDTH 18 0
BBX 15 28 1 0
BITMAP
1008
383C
3C78
1EF8
0FF0
07E0
07C0
0000
0000
7FFE
7FFE
7FFE
003C
007C
00F8
00F0
01E0
03E0
07C0
0780
0F00
1F00
3E00
7C00
7800
FFFE
FFFE
FFFE
ENDCHAR
STARTCHAR 017F
ENCODING 383
SWIDTH 305 0
DWIDTH 11 0
BBX 11 27 1 0
BITMAP
07E0
0FE0
1FE0
1E00
1E00
1E00
1E00
1E00
FE00
FE00
FE00
1E00
1E00
1E00
1E00
1E00
1E00
1E00
1E00
1E00
1E00
1E00
1E00
1E00
1E00
1E00
1E00
ENDCHAR
STARTCHAR 018F
ENCODING 399
SWIDTH 722 0
DWIDTH 26 0
BBX 22 25 2 0
BITMAP
01FC00
07FF80
0FFFC0
1F07E0
3E01F0
7C00F0
7800F8
180078
000078
000078
00007C
00007C
FFFFFC
FFFFFC
FFFFFC
F00078
F00078
F80078
780078
7C00F0
3E01F0
3F07E0
1FFFC0
07FF80
01FC00
ENDCHAR
STARTCHAR 0192
ENCODING 402
SWIDTH 472 0
DWIDTH 17 0
BBX 17 30 0 -5
BITMAP
003F80
007F80
00FF00
00E000
01E000
01E000
01E000
01E000
01E000
01E000
01E000
01E000
3FFF00
3FFF00
3FFF00
03C000
03C000
03C000
03C000
03C000
03C000
03C000
038000
078000
078000
078000
078000
FF8000
FF0000
FE0000
ENDCHAR
STARTCHAR 01A0
ENCODING 416
SWIDTH 722 0
DWIDTH 26 0
BBX 22 29 2 0
BITMAP
00001C
00001C
00001C
00001C
01FFFC
07FFF8
0FFFE0
1F07E0
3E01F0
7C00F8
7800F8
780078
F80078
F0007C
F0007C
F0007C
F0007C
F0007C
F0007C
F00078
F00078
780078
7800F8
7C00F0
3E01F0
1F07E0
0FFFC0
07FF80
01FC00
ENDCHAR
STARTCHAR 01A1
ENCODING 417
SWIDTH 555 0
DWIDTH 20 0
BBX 17 23 2 0
BITMAP
000380
000380
000380
000380
07FF80
1FFF00
3FFE00
7C3F00
780F00
F00F00
F00F80
F00780
F00780
F00780
F00780
F00780
F00F00
F00F00
780F00
7C3E00
3FFC00
1FF800
07E000
ENDCHAR
STARTCHAR 01AF
ENCODING 431
SWIDTH 694 0
DWIDTH 25 0
BBX 21 29 3 0
BITMAP
000038
000038
000038
000038
F001F8
F001F0
F001E0
F001E0
F001E0
F001E0
F001E0
F001E0
F001E0
F001E0
F001E0
F001E0
F001E0
F001E0
F001E0
F001E0
F001E0
F001E0
F003C0
7803C0
7807C0
7E0F80
3FFF80
1FFE00
07F800
ENDCHAR
STARTCHAR 01B0
ENCODING 432
SWIDTH 583 0
DWIDTH 21 0
BBX 18 23 3 0
BITMAP
0003C0
0003C0
0003C0
0003C0
F01FC0
F01F80
F01E00
F01E00
F01E00
F01E00
F01E00
F01E00
F01E00
F01E00
F01E00
F01E00
F01E00
F01E00
F01E00
F87E00
7FFE00
3FDE00
1F1E00
ENDCHAR
STARTCHAR 01CD
ENCODING 461
SWIDTH 666 0
DWIDTH 24 0
BBX 22 34 1 0
BITMAP
020100
070380
078F00
03DF00
01FE00
00FC00
00F800
000000
000000
00FC00
00FC00
01FC00
01FE00
01DE00
03DE00
03CF00
03CF00
078F00
078780
078780
0F0780
0F03C0
0F03C0
1E03C0
1FFFE0
1FFFE0
3FFFE0
3C00F0
3C00F0
7800F8
780078
780078
F0007C
F0003C
ENDCHAR
STARTCHAR 01CE
ENCODING 462
SWIDTH 555 0
DWIDTH 20 0
BBX 18 28 1 0
BITMAP
180800
3C1E00
1E3C00
0F7800
0FF000
07F000
03E000
000000
000000
07F000
1FFC00
3FFE00
7C3E00
301E00
000F00
000F00
000F00
0FFF00
3FFF00
7FFF00
7C0F00
F80F00
F00F00
F81F00
783F00
7FFFC0
3FE7C0
0F83C0
ENDCHAR
STARTCHAR 01CF
ENCODING 463
SWIDTH 416 0
DWIDTH 15 0
BBX 13 34 1 0
BITMAP
2020
F078
78F0
3DE0
1FC0
1FC0
0F80
0000
0000
7FF0
7FF0
7FF0
0F80
0F80
0F80
0F80
0F80
0F80
0F80
0F80
0F80
0F80
0F80
0F80
0F80
0F80
0F80
0F80
0F80
0F80
0F80
7FF0
7FF0
7FF0
ENDCHAR
STARTCHAR 01D0
ENCODING 464
SWIDTH 277 0
DWIDTH 10 0
BBX 12 28 -1 0
BITMAP
4020
E0F0
F1E0
7BE0
3FC0
1F80
1F00
0000
0000
0F00
0F00
0F00
0F00
0F00
0F00
0F00
0F00
0F00
0F00
0F00
0F00
0F00
0F00
0F00
0F00
0F00
0F00
0F00
ENDCHAR
STARTCHAR 01D1
ENCODING 465
SWIDTH 722 0
DWIDTH 26 0
BBX 22 34 2 0
BITMAP
020100
070780
0F8F00
03DF00
01FE00
00FC00
00F800
000000
000000
01FC00
07FF80
0FFFC0
1F07E0
3E01F0
7C00F0
7800F8
780078
F80078
F00078
F0007C
F0007C
F0007C
F0007C
F0007C
F00078
F00078
780078
7800F8
7C00F0
3E01F0
1F07E0
0FFFC0
07FF80
01FC00
ENDCHAR
STARTCHAR 01D2
ENCODING 466
SWIDTH 555 0
DWIDTH 20 0
BBX 17 28 2 0
BITMAP
100800
381C00
1E3C00
1F7800
0FF000
07E000
03E000
000000
000000
07E000
1FF800
3FFC00
7C3E00
780F00
F00F00
F00F00
F00780
F00780
F00780
F00780
F00780
F00F00
F00F00
780F00
7C3E00
3FFC00
1FF800
07E000
ENDCHAR
STARTCHAR 01D3
ENCODING 467
SWIDTH 694 0
DWIDTH 25 0
BBX 19 34 3 0
BITMAP
0C0400
1E0F00
0F1E00
07BC00
07F800
03F000
01F000
000000
000000
F001E0
F001E0
F001E0
F001E0
F001E0
F001E0
F001E0
F001E0
F001E0
F001E0
F001E0
F001E0
F001E0
F001E0
F001E0
F001E0
F001E0
F001E0
F003C0
7803C0
7807C0
7E0F80
3FFF80
1FFE00
07F800
ENDCHAR
STARTCHAR 01D4
ENCODING 468
SWIDTH 583 0
DWIDTH 21 0
BBX 15 28 3 0
BITMAP
3010
783C
3C78
1EF0
1FE0
0FE0
07C0
0000
0000
F01E
F01E
F01E
F01E
F01E
F01E
F01E
F01E
F01E
F01E
F01E
F01E
F01E
F01E
F01E
F87E
7FFE
3FDE
1F1E
ENDCHAR
STARTCHAR 01D5
ENCODING 469
SWIDTH 694 0
DWIDTH 25 0
BBX 19 37 3 0
BITMAP
0FFE00
0FFE00
0FFE00
000000
000000
0E1E00
1F1E00
1F1E00
1F1E00
0E1E00
000000
000000
F001E0
F001E0
F001E0
F001E0
F001E0
F001E0
F001E0
F001E0
F001E0
F001E0
F001E0
F001E0
F001E0
F001E0
F001E0
F001E0
F001E0
F001E0
F003C0
7803C0
7807C0
7E0F80
3FFF80
1FFE00
07F800
ENDCHAR
STARTCHAR 01D6
ENCODING 470
SWIDTH 583 0
DWIDTH 21 0
BBX 15 30 3 0
BITMAP
3FF8
3FF8
3FF8
0000
0000
3878
7C78
7C78
3878
0000
0000
F01E
F01E
F01E
F01E
F01E
F01E
F01E
F01E
F01E
F01E
F01E
F01E
F01E
F01E
F01E
F87E
7FFE
3FDE
1F1E
ENDCHAR
STARTCHAR 01D7
ENCODING 471
SWIDTH 694 0
DWIDTH 25 0
BBX 19 39 3 0
BITMAP
003800
003C00
007800
007000
00F000
00E000
01C000
0E1E00
1F1E00
1F1E00
1F1E00
0E1E00
000000
000000
F001E0
F001E0
F001E0
F001E0
F001E0
F001E0
F001E0
F001E0
F001E0
F001E0
F001E0
F001E0
F001E0
F001E0
F001E0
F001E0
F001E0
F001E0
F003C0
7803C0
7807C0
7E0F80
3FFF80
1FFE00
07F800
ENDCHAR
STARTCHAR 01D8
ENCODING 472
SWIDTH 583 0
DWIDTH 21 0
BBX 15 32 3 0
BITMAP
00E0
00F0
01E0
01C0
03C0
0380
0100
3878
7C78
7C78
3878
0000
0000
F01E
F01E
F01E
F01E
F01E
F01E
F01E
F01E
F01E
F01E
F01E
F01E
F01E
F01E
F01E
F87E
7FFE
3FDE
1F1E
ENDCHAR
STARTCHAR 01D9
ENCODING 473
SWIDTH 694 0
DWIDTH 25 0
BBX 19 40 3 0
BITMAP
080400
1E0E00
0F1F00
07BC00
07F800
03F000
01E000
000000
0E1E00
1F1E00
1F1E00
1F1E00
0E1E00
000000
000000
F001E0
F001E0
F001E0
F001E0
F001E0
F001E0
F001E0
F001E0
F001E0
F001E0
F001E0
F001E0
F001E0
F001E0
F001E0
F001E0
F001E0
F001E0
F003C0
7803C0
7807C0
7E0F80
3FFF80
1FFE00
07F800
ENDCHAR
STARTCHAR 01DA
ENCODING 474
SWIDTH 583 0
DWIDTH 21 0
BBX 15 33 3 0
BITMAP
3010
7838
3C7C
1EF0
1FE0
0FC0
07C0
0000
3878
7C78
7C78
3878
0000
0000
F01E
F01E
F01E
F01E
F01E
F01E
F01E
F01E
F01E
F01E
F01E
F01E
F01E
F01E
F01E
F87E
7FFE
3FDE
1F1E
ENDCHAR
STARTCHAR 01DB
ENCODING 475
SWIDTH 694 0
DWIDTH 25 0
BBX 19 39 3 0
BITMAP
030000
078000
038000
03C000
01C000
00E000
00C000
0E1E00
1F1E00
1F1E00
1F1E00
0E1E00
000000
000000
F001E0
F001E0
F001E0
F001E0
F001E0
F001E0
F001E0
F001E0
F001E0
F001E0
F001E0
F001E0
F001E0
F001E0
F001E0
F001E0
F001E0
F001E0
F003C0
7803C0
7807C0
7E0F80
3FFF80
1FFE00
07F800
ENDCHAR
STARTCHAR 01DC
ENCODING 476
SWIDTH 583 0
DWIDTH 21 0
BBX 15 32 3 0
BITMAP
0C00
1E00
0E00
0F00
0700
0380
0100
3878
7C78
7C78
3878
0000
0000
F01E
F01E
F01E
F01E
F01E
F01E
F01E
F01E
F01E
F01E
F01E
F01E
F01E
F01E
F01E
F87E
7FFE
3FDE
1F1E
ENDCHAR
STARTCHAR 01FA
ENCODING 506
SWIDTH 666 0
DWIDTH 24 0
BBX 22 40 1 0
BITMAP
000C00
001E00
003C00
007800
003000
000000
00F800
01FE00
038E00
038700
038700
038E00
01FE00
00F800
000000
00FC00
00FC00
01FC00
01FE00
01DE00
03DE00
03CF00
03CF00
078F00
078780
078780
0F0780
0F03C0
0F03C0
1E03C0
1FFFE0
1FFFE0
3FFFE0
3C00F0
3C00F0
7800F8
780078
780078
F0007C
F0003C
ENDCHAR
STARTCHAR 01FB
ENCODING 507
SWIDTH 555 0
DWIDTH 20 0
BBX 18 35 1 0
BITMAP
006000
007000
007800
00E000
01C000
008000
000000
03E000
07F000
0E3800
0C3800
0C3800
0E3800
07F000
03E000
000000
07F000
1FFC00
3FFE00
7C3E00
301E00
000F00
000F00
000F00
0FFF00
3FFF00
7FFF00
7C0F00
F80F00
F00F00
F81F00
783F00
7FFFC0
3FE7C0
0F83C0
ENDCHAR
STARTCHAR 01FC
ENCODING 508
SWIDTH 944 0
DWIDTH 34 0
BBX 31 35 0 0
BITMAP
00000200
00000380
000003C0
00000780
00000780
00000F00
00000E00
00000600
00000000
00000000
000FFFFE
000FFFFE
001FFFFE
001DE000
003DE000
003DE000
0079E000
0079E000
00F1E000
00F1E000
01E1E000
01E1FFFC
03C1FFFC
03C1FFFC
0781E000
07FFE000
0FFFE000
0FFFE000
1E01E000
1E01E000
3C01E000
3C01E000
7801FFFE
7801FFFE
F001FFFE
ENDCHAR
STARTCHAR 01FD
ENCODING 509
SWIDTH 861 0
DWIDTH 31 0
BBX 29 29 1 0
BITMAP
00010000
0001C000
0003E000
0003C000
00078000
00070000
000F0000
00020000
00000000
00000000
07E03E00
1FF8FF80
3FF9FFC0
7C3FC3E0
301F81F0
100F00F0
000F00F0
000F00F0
07FFFFF8
3FFFFFF8
7FFFFFF8
7C0F0000
780F0000
F00F0040
F81F8060
783BC1F0
7FF3FFE0
3FE1FFC0
0FC07F00
ENDCHAR
STARTCHAR 01FE
ENCODING 510
SWIDTH 722 0
DWIDTH 26 0
BBX 22 36 2 -1
BITMAP
001000
001C00
001E00
003C00
003C00
007800
007000
003000
000000
000030
01FC78
07FFF0
0FFFF0
1F07E0
3E01F0
7C03F0
7807F8
780778
F00E78
F01C78
F01C7C
F0387C
F0707C
F0F07C
F0E07C
F1C078
F3C078
7B8078
7F0078
7F00F0
3E01F0
1F07E0
3FFFC0
7FFF80
F1FC00
700000
ENDCHAR
STARTCHAR 01FF
ENCODING 511
SWIDTH 583 0
DWIDTH 21 0
BBX 19 30 1 -1
BITMAP
002000
003800
007C00
007800
00F000
00E000
01E000
00C000
000000
000080
03F1E0
0FFFC0
1FFF80
3E1F00
3C0F80
781F80
783BC0
787BC0
78F3C0
78E3C0
79C3C0
7B83C0
7F03C0
7F0780
3E0780
3E1F00
3FFE00
7FFC00
F3F000
600000
ENDCHAR
STARTCHAR 0218
ENCODING 536
SWIDTH 611 0
DWIDTH 22 0
BBX 19 34 1 -9
BITMAP
03FC00
0FFF00
1FFF80
3E07C0
3C0380
780100
780000
780000
7C0000
3E0000
3FC000
1FFC00
07FF00
00FF80
000FC0
0003C0
0001E0
0001E0
0001E0
3003E0
7803C0
FE0FC0
3FFF80
1FFF00
03F800
000000
000000
00E000
01F000
01F000
00F000
006000
00E000
01C000
ENDCHAR
STARTCHAR 0219
ENCODING 537
SWIDTH 500 0
DWIDTH 18 0
BBX 15 28 1 -9
BITMAP
07E0
1FF8
3FFC
7C3E
7808
7800
7800
7E00
3FF0
1FFC
07FC
003E
001E
201E
701E
F83E
7FFC
3FF8
0FE0
0000
0000
0380
03C0
03C0
03C0
0180
0380
0700
ENDCHAR
STARTCHAR 021A
ENCODING 538
SWIDTH 583 0
DWIDTH 21 0
BBX 19 34 1 -9
BITMAP
FFFFE0
FFFFE0
FFFFE0
01E000
01E000
01E000
01E000
01E000
01E000
01E000
01E000
01E000
01E000
01E000
01E000
01E000
01E000
01E000
01E000
01E000
01E000
01E000
01E000
01E000
01E000
000000
000000
00E000
01E000
01E000
00E000
006000
00C000
01C000
ENDCHAR
STARTCHAR 021B
ENCODING 539
SWIDTH 361 0
DWIDTH 13 0
BBX 11 33 1 -9
BITMAP
1E00
1E00
1E00
1E00
1E00
FFE0
FFE0
FFE0
1E00
1E00
1E00
1E00
1E00
1E00
1E00
1E00
1E00
1E00
1E00
1E00
1E00
1FC0
0FC0
07C0
0000
0000
0780
0780
0780
0780
0380
0300
0E00
ENDCHAR
STARTCHAR 0237
ENCODING 567
SWIDTH 277 0
DWIDTH 10 0
BBX 7 26 0 -7
BITMAP
1E
1E
1E
1E
1E
1E
1E
1E
1E
1E
1E
1E
1E
1E
1E
1E
1E
1E
1E
1E
1E
1E
1E
FC
FC
F8
ENDCHAR
STARTCHAR 0259
ENCODING 601
SWIDTH 555 0
DWIDTH 20 0
BBX 16 19 2 0
BITMAP
0FE0
3FF8
7FFC
F83E
301E
200F
000F
000F
FFFF
FFFF
FFFF
F00F
F00F
F00F
781E
7C3E
3FFC
1FF8
07E0
ENDCHAR
STARTCHAR 02BB
ENCODING 699
SWIDTH 611 0
DWIDTH 22 0
BBX 4 7 9 22
BITMAP
70
60
E0
F0
F0
F0
E0
ENDCHAR
STARTCHAR 02BC
ENCODING 700
SWIDTH 611 0
DWIDTH 22 0
BBX 5 7 8 20
BITMAP
78
78
F0
F0
F0
E0
E0
ENDCHAR
STARTCHAR 02C6
ENCODING 710
SWIDTH 611 0
DWIDTH 22 0
BBX 13 7 4 21
BITMAP
0F80
0FC0
1FE0
3DF0
78F0
F078
2010
ENDCHAR
STARTCHAR 02C7
ENCODING 711
SWIDTH 611 0
DWIDTH 22 0
BBX 13 7 4 21
BITMAP
2010
7078
F8F0
3DF0
1FE0
0FC0
0F80
ENDCHAR
STARTCHAR 02D8
ENCODING 728
SWIDTH 611 0
DWIDTH 22 0
BBX 12 6 5 21
BITMAP
4060
E070
F0E0
7FE0
3FC0
1F00
ENDCHAR
STARTCHAR 02D9
ENCODING 729
SWIDTH 611 0
DWIDTH 22 0
BBX 5 5 8 22
BITMAP
70
F8
F8
F8
70
ENDCHAR
STARTCHAR 02DA
ENCODING 730
SWIDTH 611 0
DWIDTH 22 0
BBX 9 9 6 20
BITMAP
1E00
7F00
6380
E180
E180
E180
6380
7F00
1E00
ENDCHAR
STARTCHAR 02DB
ENCODING 731
SWIDTH 611 0
DWIDTH 22 0
BBX 7 8 5 -7
BITMAP
0C
1C
70
E0
E0
E4
FE
7C
ENDCHAR
STARTCHAR 02DC
ENCODING 732
SWIDTH 611 0
DWIDTH 22 0
BBX 13 5 4 22
BITMAP
3C10
7F18
FFF8
63F0
40E0
ENDCHAR
STARTCHAR 02DD
ENCODING 733
SWIDTH 611 0
DWIDTH 22 0
BBX 13 8 6 21
BITMAP
2040
3870
3CF8
78F0
71E0
F1C0
E380
4180
ENDCHAR
STARTCHAR 0300
ENCODING 768
SWIDTH 0 0
DWIDTH 0 0
BBX 7 8 -5 21
BITMAP
10
70
F8
78
3C
1C
0E
0C
ENDCHAR
STARTCHAR 0301
ENCODING 769
SWIDTH 0 0
DWIDTH 0 0
BBX 7 8 -2 21
BITMAP
10
1C
3E
3C
78
70
F0
60
ENDCHAR
STARTCHAR 0302
ENCODING 770
SWIDTH 0 0
DWIDTH 0 0
BBX 12 7 -6 21
BITMAP
0F00
1F80
3FC0
7DE0
F0F0
E070
4020
ENDCHAR
STARTCHAR 0303
ENCODING 771
SWIDTH 0 0
DWIDTH 0 0
BBX 12 5 -6 22
BITMAP
7820
FE30
FFF0
C7F0
81E0
ENDCHAR
STARTCHAR 0304
ENCODING 772
SWIDTH 0 0
DWIDTH 0 0
BBX 10 3 -5 23
BITMAP
FFC0
FFC0
FFC0
ENDCHAR
STARTCHAR 0306
ENCODING 774
SWIDTH 0 0
DWIDTH 0 0
BBX 12 6 -6 21
BITMAP
4020
E070
70E0
7FE0
3FC0
1F80
ENDCHAR
STARTCHAR 0307
ENCODING 775
SWIDTH 0 0
DWIDTH 0 0
BBX 4 5 -2 22
BITMAP
F0
F0
F0
F0
F0
ENDCHAR
STARTCHAR 0308
ENCODING 776
SWIDTH 0 0
DWIDTH 0 0
BBX 12 4 -6 22
BITMAP
70E0
F9F0
F9F0
70E0
ENDCHAR
STARTCHAR 0309
ENCODING 777
SWIDTH 0 0
DWIDTH 0 0
BBX 8 8 -4 21
BITMAP
FE
FF
FF
0F
0E
0E
1C
08
ENDCHAR
STARTCHAR 030A
ENCODING 778
SWIDTH 0 0
DWIDTH 0 0
BBX 10 9 -5 20
BITMAP
1E00
7F80
7180
E1C0
E1C0
E1C0
7180
7F80
1E00
ENDCHAR
STARTCHAR 030B
ENCODING 779
SWIDTH 0 0
DWIDTH 0 0
BBX 13 8 -5 21
BITMAP
2040
1870
3C78
38F0
78E0
71C0
E1C0
6380
ENDCHAR
STARTCHAR 030C
ENCODING 780
SWIDTH 0 0
DWIDTH 0 0
BBX 12 7 -6 21
BITMAP
4020
E070
70F0
7DE0
3FC0
1F80
0F00
ENDCHAR
STARTCHAR 0312
ENCODING 786
SWIDTH 0 0
DWIDTH 0 0
BBX 5 7 -2 22
BITMAP
38
60
E0
F0
F0
F0
F0
ENDCHAR
STARTCHAR 0315
ENCODING 789
SWIDTH 0 0
DWIDTH 0 0
BBX 5 7 0 20
BITMAP
F8
F0
F0
F0
E0
E0
E0
ENDCHAR
STARTCHAR 031B
ENCODING 795
SWIDTH 0 0
DWIDTH 0 0
BBX 6 6 -3 17
BITMAP
1C
1C
1C
1C
FC
FC
ENDCHAR
STARTCHAR 0323
ENCODING 803
SWIDTH 0 0
DWIDTH 0 0
BBX 4 4 -2 -6
BITMAP
F0
F0
F0
F0
ENDCHAR
STARTCHAR 0326
ENCODING 806
SWIDTH 0 0
DWIDTH 0 0
BBX 5 7 -3 -9
BITMAP
78
78
78
78
38
30
E0
ENDCHAR
STARTCHAR 0327
ENCODING 807
SWIDTH 0 0
DWIDTH 0 0
BBX 8 8 -3 -8
BITMAP
30
30
3E
4F
07
47
FE
7C
ENDCHAR
STARTCHAR 0328
ENCODING 808
SWIDTH 0 0
DWIDTH 0 0
BBX 8 8 -7 -7
BITMAP
0E
1C
38
70
E0
F2
7F
3E
ENDCHAR
STARTCHAR 037E
ENCODING 894
SWIDTH 305 0
DWIDTH 11 0
BBX 6 24 2 -5
BITMAP
38
7C
7C
7C
38
00
00
00
00
00
00
00
00
00
38
7C
7C
7C
3C
1C
38
38
70
E0
ENDCHAR
STARTCHAR 0384
ENCODING 900
SWIDTH 611 0
DWIDTH 22 0
BBX 5 8 10 21
BITMAP
70
78
F0
F0
E0
E0
E0
E0
ENDCHAR
STARTCHAR 0385
ENCODING 901
SWIDTH 611 0
DWIDTH 22 0
BBX 13 8 5 21
BITMAP
0380
0700
0700
E770
E778
F678
E670
0E00
ENDCHAR
STARTCHAR 0386
ENCODING 902
SWIDTH 666 0
DWIDTH 24 0
BBX 22 29 1 0
BITMAP
780000
780000
780000
700000
70FC00
70FC00
61FC00
E1FE00
01DE00
03DE00
03CF00
03CF00
078F00
078780
078780
0F0780
0F03C0
0F03C0
1E03C0
1FFFE0
1FFFE0
3FFFE0
3C00F0
3C00F0
7800F8
780078
780078
F0007C
F0003C
ENDCHAR
STARTCHAR 0387
ENCODING 903
SWIDTH 305 0
DWIDTH 11 0
BBX 5 5 3 14
BITMAP
70
F8
F8
F8
70
ENDCHAR
STARTCHAR 0388
ENCODING 904
SWIDTH 638 0
DWIDTH 23 0
BBX 22 29 -1 0
BITMAP
780000
780000
780000
700000
73FFFC
73FFFC
E3FFFC
E3C000
03C000
03C000
03C000
03C000
03C000
03C000
03C000
03FFF8
03FFF8
03FFF8
03C000
03C000
03C000
03C000
03C000
03C000
03C000
03C000
03FFFC
03FFFC
03FFFC
ENDCHAR
STARTCHAR 0389
ENCODING 905
SWIDTH 777 0
DWIDTH 28 0
BBX 26 29 -1 0
BITMAP
78000000
78000000
78000000
70000000
73C003C0
73C003C0
E3C003C0
E3C003C0
03C003C0
03C003C0
03C003C0
03C003C0
03C003C0
03C003C0
03C003C0
03FFFFC0
03FFFFC0
03FFFFC0
03C003C0
03C003C0
03C003C0
03C003C0
03C003C0
03C003C0
03C003C0
03C003C0
03C003C0
03C003C0
03C003C0
ENDCHAR
STARTCHAR 038A
ENCODING 906
SWIDTH 500 0
DWIDTH 18 0
BBX 17 29 -1 0
BITMAP
780000
780000
780000
700000
73FF80
73FF80
E3FF80
E03C00
003C00
003C00
003C00
003C00
003C00
003C00
003C00
003C00
003C00
003C00
003C00
003C00
003C00
003C00
003C00
003C00
003C00
003C00
03FF80
03FF80
03FF80
ENDCHAR
STARTCHAR 038C
ENCODING 908
SWIDTH 722 0
DWIDTH 26 0
BBX 25 29 -1 0
BITMAP
78000000
78000000
78000000
70000000
701FC000
707FF000
E1FFFC00
E3F07E00
03C01E00
07800F00
07800F00
0F000780
0F000780
0F000780
0F000780
0F000780
0F000780
0F000780
0F000780
0F000780
0F000780
0F000780
07800F00
07800F00
03C01E00
03F07E00
01FFFC00
007FF000
001FC000
ENDCHAR
STARTCHAR 038E
ENCODING 910
SWIDTH 722 0
DWIDTH 26 0
BBX 27 29 -1 0
BITMAP
78000000
78000000
78000000
70000000
77C003E0
73E007C0
E1E00780
E1F00F80
00F00F00
00F81F00
007C1E00
003C3C00
003E3C00
001E7800
001FF800
000FF000
000FE000
0007E000
0003C000
0003C000
0003C000
0003C000
0003C000
0003C000
0003C000
0003C000
0003C000
0003C000
0003C000
ENDCHAR
STARTCHAR 038F
ENCODING 911
SWIDTH 750 0
DWIDTH 27 0
BBX 26 30 -1 -1
BITMAP
78000000
78000000
78000000
70000000
701FC000
707FF000
E1FFFC00
E3F07E00
03C01E00
07800F00
07800F00
0F000780
0F000780
0F000780
0F000780
0F000780
0F000780
0F000780
0F000780
0F800780
07800F80
07C00F00
03C01E00
01E03E00
00F07C00
00707000
0FF07FC0
0FF07FC0
0FF07FC0
00007FC0
ENDCHAR
STARTCHAR 0390
ENCODING 912
SWIDTH 305 0
DWIDTH 11 0
BBX 13 29 -1 0
BITMAP
0380
0700
0700
E770
E778
E678
E670
0600
0800
0000
0F00
0F00
0F00
0F00
0F00
0F00
0F00
0F00
0F00
0F00
0F00
0F00
0F00
0F00
0F00
0F00
0FE0
0FE0
03E0
ENDCHAR
STARTCHAR 0391
ENCODING 913
SWIDTH 666 0
DWIDTH 24 0
BBX 22 25 1 0
BITMAP
00FC00
00FC00
01FC00
01FE00
01DE00
03DE00
03CF00
03CF00
078F00
078780
078780
0F0780
0F03C0
0F03C0
1E03C0
1FFFE0
1FFFE0
3FFFE0
3C00F0
3C00F0
7800F8
780078
780078
F0007C
F0003C
ENDCHAR
STARTCHAR 0392
ENCODING 914
SWIDTH 666 0
DWIDTH 24 0
BBX 19 25 3 0
BITMAP
FFFC00
FFFF00
FFFF80
F00F80
F007C0
F003C0
F003C0
F003C0
F003C0
F00780
F00F80
FFFE00
FFFE00
FFFF80
F007C0
F003C0
F003E0
F001E0
F001E0
F003E0
F003C0
F007C0
FFFF80
FFFF00
FFFE00
ENDCHAR
STARTCHAR 0393
ENCODING 915
SWIDTH 500 0
DWIDTH 18 0
BBX 14 25 3 0
BITMAP
FFFC
FFFC
FFFC
F000
F000
F000
F000
F000
F000
F000
F000
F000
F000
F000
F000
F000
F000
F000
F000
F000
F000
F000
F000
F000
F000
ENDCHAR
STARTCHAR 0394
ENCODING 916
SWIDTH 666 0
DWIDTH 24 0
BBX 20 25 2 0
BITMAP
01F800
01F800
03F800
03FC00
03BC00
07BC00
079E00
079E00
0F1E00
0F0F00
0F0F00
1E0F80
1E0780
1E0780
3C07C0
3C03C0
7C03C0
7803E0
7801E0
F801E0
F001F0
F000F0
FFFFF0
FFFFF0
FFFFF0
ENDCHAR
STARTCHAR 0395
ENCODING 917
SWIDTH 583 0
DWIDTH 21 0
BBX 16 25 3 0
BITMAP
FFFF
FFFF
FFFF
F000
F000
F000
F000
F000
F000
F000
F000
FFFE
FFFE
FFFE
F000
F000
F000
F000
F000
F000
F000
F000
FFFF
FFFF
FFFF
ENDCHAR
STARTCHAR 0396
ENCODING 918
SWIDTH 583 0
DWIDTH 21 0
BBX 19 25 1 0
BITMAP
7FFFE0
7FFFE0
7FFFE0
0003C0
000780
000F80
001F00
001E00
003E00
007C00
007800
00F000
01F000
03E000
03C000
07C000
0F8000
0F0000
1E0000
3E0000
7C0000
780000
FFFFE0
FFFFE0
FFFFE0
ENDCHAR
STARTCHAR 0397
ENCODING 919
SWIDTH 722 0
DWIDTH 26 0
BBX 20 25 3 0
BITMAP
F000F0
F000F0
F000F0
F000F0
F000F0
F000F0
F000F0
F000F0
F000F0
F000F0
F000F0
FFFFF0
FFFFF0
FFFFF0
F000F0
F000F0
F000F0
F000F0
F000F0
F000F0
F000F0
F000F0
F000F0
F000F0
F000F0
ENDCHAR
STARTCHAR 0398
ENCODING 920
SWIDTH 722 0
DWIDTH 26 0
BBX 22 25 2 0
BITMAP
01FC00
07FF80
0FFFC0
1F03E0
3E01F0
7C00F0
780078
780078
F80078
F0007C
F0007C
F3FE7C
F3FE7C
F3FE7C
F0007C
F0007C
F00078
780078
780078
7C00F0
3E01F0
1F03E0
0FFFC0
07FF80
01FC00
ENDCHAR
STARTCHAR 0399
ENCODING 921
SWIDTH 416 0
DWIDTH 15 0
BBX 11 25 2 0
BITMAP
FFE0
FFE0
FFE0
1F00
1F00
1F00
1F00
1F00
1F00
1F00
1F00
1F00
1F00
1F00
1F00
1F00
1F00
1F00
1F00
1F00
1F00
1F00
FFE0
FFE0
FFE0
ENDCHAR
STARTCHAR 039A
ENCODING 922
SWIDTH 666 0
DWIDTH 24 0
BBX 20 25 3 0
BITMAP
F003E0
F007C0
F00780
F00F00
F01F00
F03E00
F07C00
F0F800
F0F000
F1E000
F3E000
F7E000
FFF000
FEF000
FEF800
FC7C00
F83C00
F03E00
F01F00
F00F00
F00F80
F007C0
F003C0
F003E0
F001F0
ENDCHAR
STARTCHAR 039B
ENCODING 923
SWIDTH 638 0
DWIDTH 23 0
BBX 22 25 1 0
BITMAP
00F800
00FC00
01FC00
01FC00
01DE00
03DE00
03DE00
038F00
078F00
078F00
078780
0F0780
0F0780
0F03C0
1E03C0
1E03C0
1E01E0
3C01E0
3C01E0
3C01F0
7800F0
7800F0
7800F8
F00078
F0007C
ENDCHAR
STARTCHAR 039C
ENCODING 924
SWIDTH 805 0
DWIDTH 29 0
BBX 23 25 3 0
BITMAP
F8003E
FC003E
FC007E
FE007E
FE00FE
FF00FE
FF01FE
F781DE
F783DE
F3C39E
F3C79E
F1E71E
F0FF1E
F0FE1E
F07E1E
F07C1E
F03C1E
F0381E
F0101E
F0101E
F0001E
F0001E
F0001E
F0001E
F0001E
ENDCHAR
STARTCHAR 039D
ENCODING 925
SWIDTH 722 0
DWIDTH 26 0
BBX 20 25 3 0
BITMAP
F800F0
FC00F0
FC00F0
FE00F0
FE00F0
FF00F0
FF80F0
F780F0
F7C0F0
F3C0F0
F3E0F0
F1E0F0
F0F0F0
F0F8F0
F078F0
F07CF0
F03CF0
F01EF0
F01EF0
F00FF0
F00FF0
F007F0
F003F0
F003F0
F001F0
ENDCHAR
STARTCHAR 039E
ENCODING 926
SWIDTH 583 0
DWIDTH 21 0
BBX 17 25 2 0
BITMAP
FFFF80
FFFF80
FFFF80
000000
000000
000000
000000
000000
000000
000000
000000
3FFE00
3FFE00
3FFE00
000000
000000
000000
000000
000000
000000
000000
000000
FFFF80
FFFF80
FFFF80
ENDCHAR
STARTCHAR 039F
ENCODING 927
SWIDTH 722 0
DWIDTH 26 0
BBX 22 25 2 0
BITMAP
01FC00
07FF80
0FFFC0
1F07E0
3E01F0
7C00F0
7800F8
780078
F80078
F00078
F0007C
F0007C
F0007C
F0007C
F0007C
F00078
F00078
780078
7800F8
7C00F0
3E01F0
1F07E0
0FFFC0
07FF80
01FC00
ENDCHAR
STARTCHAR 03A0
ENCODING 928
SWIDTH 694 0
DWIDTH 25 0
BBX 19 25 3 0
BITMAP
FFFFE0
FFFFE0
FFFFE0
F001E0
F001E0
F001E0
F001E0
F001E0
F001E0
F001E0
F001E0
F001E0
F001E0
F001E0
F001E0
F001E0
F001E0
F001E0
F001E0
F001E0
F001E0
F001E0
F001E0
F001E0
F001E0
ENDCHAR
STARTCHAR 03A1
ENCODING 929
SWIDTH 638 0
DWIDTH 23 0
BBX 18 25 3 0
BITMAP
FFFC00
FFFF00
FFFF80
F00F80
F007C0
F003C0
F003C0
F003C0
F003C0
F003C0
F007C0
F00780
FFFF80
FFFF00
FFFC00
F00000
F00000
F00000
F00000
F00000
F00000
F00000
F00000
F00000
F00000
ENDCHAR
STARTCHAR 03A3
ENCODING 931
SWIDTH 583 0
DWIDTH 21 0
BBX 17 25 2 0
BITMAP
FFFF80
FFFF80
FFFF80
F80000
7C0000
3E0000
1F0000
0F8000
07C000
07C000
03E000
01F000
00F800
01F000
03E000
07C000
0F8000
1F0000
1E0000
3C0000
7C0000
F80000
FFFF80
FFFF80
FFFF80
ENDCHAR
STARTCHAR 03A4
ENCODING 932
SWIDTH 583 0
DWIDTH 21 0
BBX 19 25 1 0
BITMAP
FFFFE0
FFFFE0
FFFFE0
01E000
01E000
01E000
01E000
01E000
01E000
01E000
01E000
01E000
01E000
01E000
01E000
01E000
01E000
01E000
01E000
01E000
01E000
01E000
01E000
01E000
01E000
ENDCHAR
STARTCHAR 03A5
ENCODING 933
SWIDTH 611 0
DWIDTH 22 0
BBX 22 25 0 0
BITMAP
F8007C
7C0078
3C00F0
3E01F0
1F01E0
0F03E0
0F83C0
078780
07C780
03CF00
03EF00
01FE00
00FE00
00FC00
007800
007800
007800
007800
007800
007800
007800
007800
007800
007800
007800
ENDCHAR
STARTCHAR 03A6
ENCODING 934
SWIDTH 861 0
DWIDTH 31 0
BBX 27 27 2 -1
BITMAP
001E0000
001E0000
01FFF000
07FFFC00
1FFFFE00
3F1E3F00
3C1E0F80
781E07C0
781E03C0
F01E03C0
F01E03E0
F01E01E0
F01E01E0
F01E01E0
F01E01E0
F01E01E0
F01E03E0
F01E03C0
781E03C0
781E07C0
3C1E0F80
3F1E3F00
1FFFFE00
07FFFC00
01FFF000
001E0000
001E0000
ENDCHAR
STARTCHAR 03A7
ENCODING 935
SWIDTH 638 0
DWIDTH 23 0
BBX 21 25 1 0
BITMAP
F800F8
7C01F0
3C01E0
3E03E0
1F03C0
0F0780
0F8F80
078F00
07DE00
03FE00
01FC00
01F800
00F800
01FC00
03FE00
03DE00
079F00
078F00
0F0F80
1F07C0
1E03C0
3C03E0
7C01F0
7800F0
F800F8
ENDCHAR
STARTCHAR 03A8
ENCODING 936
SWIDTH 805 0
DWIDTH 29 0
BBX 25 25 2 0
BITMAP
F01E0780
F01E0780
F01E0780
F01E0780
F01E0780
F01E0780
F01E0780
F01E0780
F01E0780
F81E0780
781E0F80
781E0F00
781E0F00
3C1E1F00
3F1E7E00
1FFFFC00
0FFFF800
01FFC000
001E0000
001E0000
001E0000
001E0000
001E0000
001E0000
001E0000
ENDCHAR
STARTCHAR 03A9
ENCODING 937
SWIDTH 722 0
DWIDTH 26 0
BBX 22 26 2 -1
BITMAP
01FC00
07FF80
0FFFC0
1F07E0
3E01F0
7C00F0
780078
780078
F80078
F0007C
F0007C
F0007C
F0007C
F0007C
F8007C
780078
780078
7C00F0
3E01F0
1F03E0
0F87C0
078780
FF87FC
FF87FC
FF87FC
0007FC
ENDCHAR
STARTCHAR 03AA
ENCODING 938
SWIDTH 416 0
DWIDTH 15 0
BBX 11 33 2 0
BITMAP
E0E0
F1E0
F1E0
F1E0
F1E0
0000
0000
0000
FFE0
FFE0
FFE0
1F00
1F00
1F00
1F00
1F00
1F00
1F00
1F00
1F00
1F00
1F00
1F00
1F00
1F00
1F00
1F00
1F00
1F00
1F00
FFE0
FFE0
FFE0
ENDCHAR
STARTCHAR 03AB
ENCODING 939
SWIDTH 611 0
DWIDTH 22 0
BBX 22 33 0 0
BITMAP
038700
07CF80
07CF80
07CF80
038700
000000
000000
000000
F8007C
7C0078
3C00F0
3E01F0
1F01E0
0F03E0
0F83C0
078780
07C780
03CF00
03EF00
01FE00
00FE00
00FC00
007800
007800
007800
007800
007800
007800
007800
007800
007800
007800
007800
ENDCHAR
STARTCHAR 03AC
ENCODING 940
SWIDTH 666 0
DWIDTH 24 0
BBX 20 29 2 0
BITMAP
00E000
01E000
01E000
01E000
01C000
01C000
01C000
018000
000000
000000
0FC0F0
1FF1E0
3FF9E0
7C79E0
783DC0
F01FC0
F01F80
F00F80
F00F80
F00F00
F00F00
F00F80
F01F80
F01F80
783BC0
7C79C0
3FF1F0
1FF1F0
0FC0F0
ENDCHAR
STARTCHAR 03AD
ENCODING 941
SWIDTH 527 0
DWIDTH 19 0
BBX 16 29 2 0
BITMAP
01E0
01E0
01E0
01C0
01C0
01C0
01C0
0380
0000
0000
0FF0
3FFC
7FFE
7C1F
F80C
F000
F000
7800
3FE0
0FE0
7FE0
F800
F000
F004
F006
F81F
7FFE
3FFC
0FE0
ENDCHAR
STARTCHAR 03AE
ENCODING 942
SWIDTH 583 0
DWIDTH 21 0
BBX 18 36 1 -7
BITMAP
003800
007800
007800
007000
007000
007000
007000
006000
008000
000000
F87C00
FDFF00
FDFF00
3F0F80
3E0780
3C0780
3C03C0
3C03C0
3C03C0
3C03C0
3C03C0
3C03C0
3C03C0
3C03C0
3C03C0
3C03C0
3C03C0
3C03C0
3C03C0
0003C0
0003C0
0003C0
0003C0
0003C0
0003C0
0003C0
ENDCHAR
STARTCHAR 03AF
ENCODING 943
SWIDTH 305 0
DWIDTH 11 0
BBX 7 29 3 0
BITMAP
38
78
78
78
70
70
70
60
00
00
F0
F0
F0
F0
F0
F0
F0
F0
F0
F0
F0
F0
F0
F0
F0
F0
FE
FE
3E
ENDCHAR
STARTCHAR 03B0
ENCODING 944
SWIDTH 583 0
DWIDTH 21 0
BBX 15 29 3 0
BITMAP
01C0
01C0
01C0
319C
7BBC
7BBC
331C
0300
0000
0000
E01E
E01E
E01E
E01E
E01E
E01E
E01E
E01E
E01E
E01E
E01E
E01E
F01E
F01E
F03C
787C
7FF8
3FF0
0FE0
ENDCHAR
STARTCHAR 03B1
ENCODING 945
SWIDTH 666 0
DWIDTH 24 0
BBX 20 19 2 0
BITMAP
0FC0F0
1FF1E0
3FF9E0
7C79E0
783DC0
F01FC0
F01F80
F00F80
F00F80
F00F00
F00F00
F00F80
F01F80
F01F80
783BC0
7C79C0
3FF1F0
1FF1F0
0FC0F0
ENDCHAR
STARTCHAR 03B2
ENCODING 946
SWIDTH 583 0
DWIDTH 21 0
BBX 17 34 3 -7
BITMAP
07E000
1FF800
3FFC00
7C3E00
701E00
F01E00
F01E00
F01E00
F01E00
F01E00
F03C00
F3F800
F3E000
F3FC00
F03E00
F00F00
F00F00
F00F80
F00780
F00780
F00F80
F00F00
F00F00
F83F00
FFFE00
F7FC00
F3F000
F00000
F00000
F00000
F00000
F00000
F00000
F00000
ENDCHAR
STARTCHAR 03B3
ENCODING 947
SWIDTH 527 0
DWIDTH 19 0
BBX 18 26 0 -7
BITMAP
F003C0
F803C0
FC0380
3C0780
1C0780
1E0F00
1E0F00
0E0E00
0F1E00
0F1E00
071C00
071C00
07BC00
03B800
03B800
03F800
01F000
01F000
01F000
01E000
01E000
01E000
01E000
01E000
01E000
01E000
ENDCHAR
STARTCHAR 03B4
ENCODING 948
SWIDTH 555 0
DWIDTH 20 0
BBX 17 27 2 0
BITMAP
3FFE00
3FFE00
3FFE00
3C0000
3F0000
0F8000
07C000
03E000
03F800
1FFC00
3C3C00
781E00
781F00
F00F00
F00F00
F00F80
F00780
F00780
F00780
F00780
F00F00
F00F00
780F00
7C3E00
3FFC00
1FF800
07E000
ENDCHAR
STARTCHAR 03B5
ENCODING 949
SWIDTH 527 0
DWIDTH 19 0
BBX 16 19 2 0
BITMAP
0FF0
3FFC
7FFE
7C1F
F80C
F000
F000
7800
3FE0
0FE0
7FE0
F800
F000
F004
F006
F81F
7FFE
3FFC
0FE0
ENDCHAR
STARTCHAR 03B6
ENCODING 950
SWIDTH 444 0
DWIDTH 16 0
BBX 13 33 2 -6
BITMAP
FFF8
FFF8
FFF8
0078
00F0
01E0
03C0
07C0
0780
0F00
1E00
3E00
3C00
7800
F800
F000
F000
F000
F000
F000
F000
F000
FC00
7F00
3FE0
0FF0
01F8
0078
0078
00F0
00F0
00F0
0020
ENDCHAR
STARTCHAR 03B7
ENCODING 951
SWIDTH 583 0
DWIDTH 21 0
BBX 18 26 1 -7
BITMAP
F87C00
FDFF00
FDFF00
3F0F80
3E0780
3C0780
3C03C0
3C03C0
3C03C0
3C03C0
3C03C0
3C03C0
3C03C0
3C03C0
3C03C0
3C03C0
3C03C0
3C03C0
3C03C0
0003C0
0003C0
0003C0
0003C0
0003C0
0003C0
0003C0
ENDCHAR
STARTCHAR 03B8
ENCODING 952
SWIDTH 555 0
DWIDTH 20 0
BBX 17 27 2 0
BITMAP
07E000
1FF800
3FFC00
3C3E00
781E00
780F00
F00F00
F00F00
F00F00
F00700
F00780
F00780
FFFF80
FFFF80
FFFF80
F00780
F00780
F00F00
F00F00
F00F00
700F00
780F00
781E00
3C3E00
3FFC00
1FF800
07E000
ENDCHAR
STARTCHAR 03B9
ENCODING 953
SWIDTH 305 0
DWIDTH 11 0
BBX 7 19 3 0
BITMAP
F0
F0
F0
F0
F0
F0
F0
F0
F0
F0
F0
F0
F0
F0
F0
F0
FE
FE
3E
ENDCHAR
STARTCHAR 03BA
ENCODING 954
SWIDTH 555 0
DWIDTH 20 0
BBX 16 19 3 0
BITMAP
F01E
F03E
F07E
F0F8
F0F0
F1E0
F3C0
F780
FF80
FFC0
FFE0
F9E0
F1F0
F0F8
F078
F07C
F03E
F01E
F01F
ENDCHAR
STARTCHAR 03BB
ENCODING 955
SWIDTH 527 0
DWIDTH 19 0
BBX 18 27 0 0
BITMAP
3F0000
3F8000
3F8000
03C000
03C000
01C000
01E000
01E000
01E000
01F000
03F000
03F000
03F800
07F800
073800
0F3800
0F3C00
0E3C00
1E1C00
1E1E00
1C1E00
3C0E00
3C0F00
780F00
7807C0
7807C0
F003C0
ENDCHAR
STARTCHAR 03BC
ENCODING 956
SWIDTH 583 0
DWIDTH 21 0
BBX 17 26 3 -7
BITMAP
F01E00
F01E00
F01E00
F01E00
F01E00
F01E00
F01E00
F01E00
F01E00
F01E00
F01E00
F01E00
F01E00
F01E00
F01E00
F83E00
FFEF80
EFCF80
E78780
E00000
F00000
F00000
F00000
F00000
F00000
F00000
ENDCHAR
STARTCHAR 03BD
ENCODING 957
SWIDTH 527 0
DWIDTH 19 0
BBX 18 19 0 0
BITMAP
F003C0
F803C0
FC0380
3C0780
1C0780
1E0700
1E0F00
0E0F00
0F0E00
0F1E00
071E00
071C00
07BC00
07BC00
03B800
03F800
03F800
01F000
01F000
ENDCHAR
STARTCHAR 03BE
ENCODING 958
SWIDTH 444 0
DWIDTH 16 0
BBX 15 33 1 -6
BITMAP
FFFE
FFFE
FFFE
0F00
1E00
3C00
3C00
3C00
3C00
3C00
1F00
0FF0
03F0
1FF0
3E00
3C00
7800
7800
7800
7800
7800
7C00
3E00
3FC0
1FF8
07FC
00FC
003C
003C
0078
0078
0078
0010
ENDCHAR
STARTCHAR 03BF
ENCODING 959
SWIDTH 555 0
DWIDTH 20 0
BBX 17 19 2 0
BITMAP
07E000
1FF800
3FFC00
7C3E00
780F00
F00F00
F00F00
F00780
F00780
F00780
F00780
F00780
F00F00
F00F00
780F00
7C3E00
3FFC00
1FF800
07E000
ENDCHAR
STARTCHAR 03C0
ENCODING 960
SWIDTH 638 0
DWIDTH 23 0
BBX 21 19 1 0
BITMAP
FFFFF8
FFFFF8
FFFFF8
1E0780
1E0780
1E0780
1E0780
1E0780
1E0780
1E0780
1E0780
1E0780
1E0780
1E0780
1E0780
1E0780
1E07E0
1E03E0
1E01E0
ENDCHAR
STARTCHAR 03C1
ENCODING 961
SWIDTH 555 0
DWIDTH 20 0
BBX 17 26 2 -7
BITMAP
07F000
1FFC00
3FFE00
7C3E00
781F00
F00F00
F00F00
F00F00
F00F80
F00F80
F00F80
F00F00
F00F00
F00F00
F01F00
FC3E00
FFFE00
F7FC00
F1F000
F00000
F00000
F00000
F00000
F00000
F00000
F00000
ENDCHAR
STARTCHAR 03C2
ENCODING 962
SWIDTH 500 0
DWIDTH 18 0
BBX 15 25 2 -6
BITMAP
07E0
1FF8
3FFC
7C3C
F81E
F010
F000
F000
F000
F000
F000
F000
F000
F800
7C00
7F80
1FF0
07F8
00F8
003C
0078
0078
0078
00F0
0030
ENDCHAR
STARTCHAR 03C3
ENCODING 963
SWIDTH 583 0
DWIDTH 21 0
BBX 18 19 2 0
BITMAP
07FFC0
1FFFC0
3FFFC0
7C1C00
780E00
F00F00
F00F00
F00780
F00780
F00780
F00780
F00780
F00F00
F00F00
780F00
7C3E00
3FFC00
1FF800
07E000
ENDCHAR
STARTCHAR 03C4
ENCODING 964
SWIDTH 500 0
DWIDTH 18 0
BBX 15 19 1 0
BITMAP
FFFE
FFFE
FFFE
0780
0780
0780
0780
0780
0780
0780
0780
0780
0780
0780
0780
0780
03F8
03F8
01F8
ENDCHAR
STARTCHAR 03C5
ENCODING 965
SWIDTH 583 0
DWIDTH 21 0
BBX 15 19 3 0
BITMAP
E01E
E01E
E01E
E01E
E01E
E01E
E01E
E01E
E01E
E01E
E01E
E01E
F01E
F01E
F03C
787C
7FF8
3FF0
0FE0
ENDCHAR
STARTCHAR 03C6
ENCODING 966
SWIDTH 750 0
DWIDTH 27 0
BBX 23 26 2 -7
BITMAP
0807E0
1C1FF8
3E1FF8
7C3C7C
78383C
F0781E
F0781E
F0781E
F0781E
F0781E
F0781E
F0781E
F0781E
F0783C
78787C
7E78F8
3FFFF0
0FFFE0
03FF80
007800
007800
007800
007800
007800
007800
007800
ENDCHAR
STARTCHAR 03C7
ENCODING 967
SWIDTH 527 0
DWIDTH 19 0
BBX 17 26 1 -7
BITMAP
F00780
F80F00
FC0F00
3C1E00
1C1E00
1E3C00
1E3C00
0F7800
0F7800
077000
07F000
03E000
03E000
03E000
07E000
07F000
0F7000
0E7800
1E7800
1E3C00
3C3C00
3C1C00
781E00
781F80
F00F80
F00780
ENDCHAR
STARTCHAR 03C8
ENCODING 968
SWIDTH 750 0
DWIDTH 27 0
BBX 21 32 3 -7
BITMAP
00F000
00F000
00F000
00F000
00F000
00F000
E0F078
E0F078
E0F078
E0F078
E0F078
E0F078
E0F078
E0F078
E0F078
E0F078
E0F078
F0F078
F0F078
F0F070
F8F0F0
7CF1F0
3FFFE0
1FFFC0
07FF00
00F000
00F000
00F000
00F000
00F000
00F000
00F000
ENDCHAR
STARTCHAR 03C9
ENCODING 969
SWIDTH 750 0
DWIDTH 27 0
BBX 23 19 2 0
BITMAP
080020
1E0078
3C00F8
78003C
78003C
F0001E
F0381E
F0381E
F0381E
F0381E
F0381E
F0381E
F03C1E
F07C1E
F06C1E
78EE3C
7FEFFC
3FC7F8
0F83E0
ENDCHAR
STARTCHAR 03CA
ENCODING 970
SWIDTH 305 0
DWIDTH 11 0
BBX 12 26 -1 0
BITMAP
70E0
F9F0
F9F0
70E0
0000
0000
0000
0F00
0F00
0F00
0F00
0F00
0F00
0F00
0F00
0F00
0F00
0F00
0F00
0F00
0F00
0F00
0F00
0FE0
0FE0
03E0
ENDCHAR
STARTCHAR 03CB
ENCODING 971
SWIDTH 583 0
DWIDTH 21 0
BBX 15 26 3 0
BITMAP
3C78
3C78
3C78
3C78
0000
0000
0000
E01E
E01E
E01E
E01E
E01E
E01E
E01E
E01E
E01E
E01E
E01E
E01E
F01E
F01E
F03C
787C
7FF8
3FF0
0FE0
ENDCHAR
STARTCHAR 03CC
ENCODING 972
SWIDTH 555 0
DWIDTH 20 0
BBX 17 29 2 0
BITMAP
00E000
00F000
01E000
01E000
01C000
01C000
01C000
018000
000000
000000
07E000
1FF800
3FFC00
7C3E00
780F00
F00F00
F00F00
F00780
F00780
F00780
F00780
F00780
F00F00
F00F00
780F00
7C3E00
3FFC00
1FF800
07E000
ENDCHAR
STARTCHAR 03CD
ENCODING 973
SWIDTH 583 0
DWIDTH 21 0
BBX 15 29 3 0
BITMAP
01E0
01E0
01C0
01C0
03C0
0380
0380
0380
0000
0000
E01E
E01E
E01E
E01E
E01E
E01E
E01E
E01E
E01E
E01E
E01E
E01E
F01E
F01E
F03C
787C
7FF8
3FF0
0FE0
ENDCHAR
STARTCHAR 03CE
ENCODING 974
SWIDTH 750 0
DWIDTH 27 0
BBX 23 29 2 0
BITMAP
001E00
001E00
001C00
001C00
001C00
003800
003800
003800
000000
000000
080020
1E0078
3C00F8
78003C
78003C
F0001E
F0381E
F0381E
F0381E
F0381E
F0381E
F0381E
F03C1E
F07C1E
F06C1E
78EE3C
7FEFFC
3FC7F8
0F83E0
ENDCHAR
STARTCHAR 0400
ENCODING 1024
SWIDTH 583 0
DWIDTH 21 0
BBX 16 35 3 0
BITMAP
0200
0600
1F00
0700
0780
0380
01C0
0180
0000
0000
FFFF
FFFF
FFFF
F000
F000
F000
F000
F000
F000
F000
F000
FFFE
FFFE
FFFE
F000
F000
F000
F000
F000
F000
F000
F000
FFFF
FFFF
FFFF
ENDCHAR
STARTCHAR 0401
ENCODING 1025
SWIDTH 583 0
DWIDTH 21 0
BBX 16 33 3 0
BITMAP
1C38
3E3C
3E7C
3E3C
1C38
0000
0000
0000
FFFF
FFFF
FFFF
F000
F000
F000
F000
F000
F000
F000
F000
FFFE
FFFE
FFFE
F000
F000
F000
F000
F000
F000
F000
F000
FFFF
FFFF
FFFF
ENDCHAR
STARTCHAR 0402
ENCODING 1026
SWIDTH 805 0
DWIDTH 29 0
BBX 26 31 1 -6
BITMAP
FFFFE000
FFFFE000
FFFFE000
01E00000
01E00000
01E00000
01E00000
01E00000
01E00000
01EFF000
01FFFE00
01FFFF00
01F01F00
01E00F80
01E00780
01E00780
01E007C0
01E003C0
01E003C0
01E003C0
01E003C0
01E003C0
01E003C0
01E007C0
01E007C0
00000780
00000780
00000F80
00007F00
00007E00
00007C00
ENDCHAR
STARTCHAR 0403
ENCODING 1027
SWIDTH 500 0
DWIDTH 18 0
BBX 14 35 3 0
BITMAP
0080
00E0
01F0
01E0
03C0
0380
0780
0300
0000
0000
FFFC
FFFC
FFFC
F000
F000
F000
F000
F000
F000
F000
F000
F000
F000
F000
F000
F000
F000
F000
F000
F000
F000
F000
F000
F000
F000
ENDCHAR
STARTCHAR 0404
ENCODING 1028
SWIDTH 638 0
DWIDTH 23 0
BBX 20 25 2 0
BITMAP
01FE00
07FF80
0FFFC0
1F03E0
3E01F0
7C00E0
780080
780000
F80000
F80000
F00000
FFFC00
FFFC00
FFFC00
F00000
F00000
F00000
780000
780040
7C00E0
3C01F0
3F03E0
1FFFC0
07FF80
01FE00
ENDCHAR
STARTCHAR 0405
ENCODING 1029
SWIDTH 611 0
DWIDTH 22 0
BBX 19 25 1 0
BITMAP
03FC00
0FFF00
1FFF80
3E07C0
3C0380
780100
780000
780000
7C0000
3E0000
3FC000
1FFC00
07FF00
00FF80
000FC0
0003C0
0001E0
0001E0
0001E0
3003E0
7803C0
FE0FC0
3FFF80
1FFF00
03F800
ENDCHAR
STARTCHAR 0406
ENCODING 1030
SWIDTH 416 0
DWIDTH 15 0
BBX 11 25 2 0
BITMAP
FFE0
FFE0
FFE0
1F00
1F00
1F00
1F00
1F00
1F00
1F00
1F00
1F00
1F00
1F00
1F00
1F00
1F00
1F00
1F00
1F00
1F00
1F00
FFE0
FFE0
FFE0
ENDCHAR
STARTCHAR 0407
ENCODING 1031
SWIDTH 416 0
DWIDTH 15 0
BBX 11 33 2 0
BITMAP
E0E0
F1E0
F1E0
F1E0
F1E0
0000
0000
0000
FFE0
FFE0
FFE0
1F00
1F00
1F00
1F00
1F00
1F00
1F00
1F00
1F00
1F00
1F00
1F00
1F00
1F00
1F00
1F00
1F00
1F00
1F00
FFE0
FFE0
FFE0
ENDCHAR
STARTCHAR 0408
ENCODING 1032
SWIDTH 527 0
DWIDTH 19 0
BBX 15 25 1 0
BITMAP
1FFE
1FFE
1FFE
001E
001E
001E
001E
001E
001E
001E
001E
001E
001E
001E
001E
001E
001E
001E
101E
F01E
F83E
7C7C
7FFC
3FF8
0FE0
ENDCHAR
STARTCHAR 0409
ENCODING 1033
SWIDTH 1027 0
DWIDTH 37 0
BBX 36 25 0 0
BITMAP
03FFFC0000
03FFFC0000
03FFFC0000
03C07C0000
03C07C0000
03C07C0000
03C07C0000
03C07C0000
03C07C0000
03C07C0000
03C07FFE00
03C07FFF80
03C07FFFC0
03C07C03E0
03C07C01E0
03C07C01E0
03807C01F0
07807C01F0
07807C01F0
07807C01E0
0F007C01E0
0F007C03E0
FE007FFFC0
FC007FFF80
F8007FFE00
ENDCHAR
STARTCHAR 040A
ENCODING 1034
SWIDTH 1027 0
DWIDTH 37 0
BBX 33 25 3 0
BITMAP
F001E00000
F001E00000
F001E00000
F001E00000
F001E00000
F001E00000
F001E00000
F001E00000
F001E00000
F001E00000
F001FFF800
FFFFFFFE00
FFFFFFFF00
FFFFE01F00
F001E00F80
F001E00780
F001E00780
F001E00780
F001E00780
F001E00780
F001E00F80
F001E01F00
F001FFFF00
F001FFFE00
F001FFF800
ENDCHAR
STARTCHAR 040B
ENCODING 1035
SWIDTH 805 0
DWIDTH 29 0
BBX 26 25 1 0
BITMAP
FFFFE000
FFFFE000
FFFFE000
01E00000
01E00000
01E00000
01E00000
01E00000
01E00000
01EFF800
01FFFE00
01FFFF00
01F01F80
01E00780
01E007C0
01E003C0
01E003C0
01E003C0
01E003C0
01E003C0
01E003C0
01E003C0
01E003C0
01E003C0
01E003C0
ENDCHAR
STARTCHAR 040C
ENCODING 1036
SWIDTH 666 0
DWIDTH 24 0
BBX 20 35 3 0
BITMAP
002000
003800
007C00
007800
00F000
00E000
01E000
00C000
000000
000000
F001E0
F003E0
F007E0
F00700
F00F00
F00E00
F01E00
F03C00
F03C00
F07800
F07800
FFF000
FFE000
FFF000
F07800
F07C00
F03C00
F01E00
F01E00
F00F00
F00F80
F00780
F007F0
F003F0
F001F0
ENDCHAR
STARTCHAR 040D
ENCODING 1037
SWIDTH 722 0
DWIDTH 26 0
BBX 20 35 3 0
BITMAP
008000
038000
07C000
03C000
01E000
00E000
00F000
006000
000000
000000
F000F0
F001F0
F003F0
F003F0
F007F0
F00FF0
F00EF0
F01EF0
F03CF0
F03CF0
F078F0
F0F8F0
F0F0F0
F1E0F0
F3E0F0
F3C0F0
F780F0
F780F0
FF00F0
FE00F0
FE00F0
FC00F0
F800F0
F800F0
F000F0
ENDCHAR
STARTCHAR 040E
ENCODING 1038
SWIDTH 611 0
DWIDTH 22 0
BBX 20 33 1 0
BITMAP
020600
0F0700
070F00
07FE00
03FC00
01F800
000000
000000
F000F0
F800F0
7801E0
7C01E0
3C03E0
3E03C0
1E03C0
1E0780
0F0780
0F0F00
078F00
078F00
03DE00
03DE00
03FC00
01FC00
01FC00
00F800
00F800
007000
00F000
00F000
0FE000
0FE000
0F8000
ENDCHAR
STARTCHAR 040F
ENCODING 1039
SWIDTH 694 0
DWIDTH 25 0
BBX 19 30 3 -5
BITMAP
F001E0
F001E0
F001E0
F001E0
F001E0
F001E0
F001E0
F001E0
F001E0
F001E0
F001E0
F001E0
F001E0
F001E0
F001E0
F001E0
F001E0
F001E0
F001E0
F001E0
F001E0
F001E0
FFFFE0
FFFFE0
FFFFE0
00E000
00E000
00E000
00E000
00E000
ENDCHAR
STARTCHAR 0410
ENCODING 1040
SWIDTH 666 0
DWIDTH 24 0
BBX 22 25 1 0
BITMAP
00FC00
00FC00
01FC00
01FE00
01DE00
03DE00
03CF00
03CF00
078F00
078780
078780
0F0780
0F03C0
0F03C0
1E03C0
1FFFE0
1FFFE0
3FFFE0
3C00F0
3C00F0
7800F8
780078
780078
F0007C
F0003C
ENDCHAR
STARTCHAR 0411
ENCODING 1041
SWIDTH 638 0
DWIDTH 23 0
BBX 18 25 3 0
BITMAP
FFFF00
FFFF00
FFFF00
F00000
F00000
F00000
F00000
F00000
F00000
F00000
FFFC00
FFFF00
FFFF80
F007C0
F003C0
F003C0
F003C0
F003C0
F003C0
F003C0
F003C0
F007C0
FFFF80
FFFF00
FFFC00
ENDCHAR
STARTCHAR 0412
ENCODING 1042
SWIDTH 666 0
DWIDTH 24 0
BBX 19 25 3 0
BITMAP
FFFC00
FFFF00
FFFF80
F00F80
F007C0
F003C0
F003C0
F003C0
F003C0
F00780
F00F80
FFFE00
FFFE00
FFFF80
F007C0
F003C0
F003E0
F001E0
F001E0
F003E0
F003C0
F007C0
FFFF80
FFFF00
FFFE00
ENDCHAR
STARTCHAR 0413
ENCODING 1043
SWIDTH 500 0
DWIDTH 18 0
BBX 14 25 3 0
BITMAP
FFFC
FFFC
FFFC
F000
F000
F000
F000
F000
F000
F000
F000
F000
F000
F000
F000
F000
F000
F000
F000
F000
F000
F000
F000
F000
F000
ENDCHAR
STARTCHAR 0414
ENCODING 1044
SWIDTH 777 0
DWIDTH 28 0
BBX 26 30 0 -5
BITMAP
03FFFE00
03FFFE00
03FFFE00
03C01E00
03C01E00
03C01E00
03C01E00
03C01E00
03C01E00
03C01E00
03C01E00
03C01E00
03C01E00
03C01E00
03C01E00
03C01E00
03C01E00
07801E00
07801E00
07801E00
0F801E00
1F001E00
FFFFFFC0
FFFFFFC0
FFFFFFC0
F00001C0
F00001C0
F00001C0
F00001C0
F00001C0
ENDCHAR
STARTCHAR 0415
ENCODING 1045
SWIDTH 583 0
DWIDTH 21 0
BBX 16 25 3 0
BITMAP
FFFF
FFFF
FFFF
F000
F000
F000
F000
F000
F000
F000
F000
FFFE
FFFE
FFFE
F000
F000
F000
F000
F000
F000
F000
F000
FFFF
FFFF
FFFF
ENDCHAR
STARTCHAR 0416
ENCODING 1046
SWIDTH 1000 0
DWIDTH 36 0
BBX 32 25 2 0
BITMAP
F003C01F
F803C03F
FC03C03F
1C03C078
1E03C078
1E03C0F0
0F03C0F0
0F03C1E0
0783C1E0
0783C1E0
03C3C3C0
03FFFF80
00FFFF00
03FFFFC0
07C3C3C0
0783C1E0
0F83C1E0
0F03C0F0
1F03C0F0
1E03C078
3E03C078
3C03C03C
FC03C03F
F803C01F
F003C00F
ENDCHAR
STARTCHAR 0417
ENCODING 1047
SWIDTH 611 0
DWIDTH 22 0
BBX 19 25 1 0
BITMAP
03F800
1FFE00
3FFF80
7E0F80
3807C0
1003C0
0003C0
0003C0
0003C0
0007C0
000F80
03FE00
03FC00
03FF00
000FC0
0003C0
0003E0
0003E0
0003E0
3003C0
7803C0
FE0FC0
3FFF80
1FFE00
07F800
ENDCHAR
STARTCHAR 0418
ENCODING 1048
SWIDTH 722 0
DWIDTH 26 0
BBX 20 25 3 0
BITMAP
F000F0
F001F0
F003F0
F003F0
F007F0
F00FF0
F00EF0
F01EF0
F03CF0
F03CF0
F078F0
F0F8F0
F0F0F0
F1E0F0
F3E0F0
F3C0F0
F780F0
F780F0
FF00F0
FE00F0
FE00F0
FC00F0
F800F0
F800F0
F000F0
ENDCHAR
STARTCHAR 0419
ENCODING 1049
SWIDTH 722 0
DWIDTH 26 0
BBX 20 33 3 0
BITMAP
020400
0E0F00
0F0E00
07FE00
03FC00
01F800
000000
000000
F000F0
F001F0
F003F0
F003F0
F007F0
F00FF0
F00EF0
F01EF0
F03CF0
F03CF0
F078F0
F0F8F0
F0F0F0
F1E0F0
F3E0F0
F3C0F0
F780F0
F780F0
FF00F0
FE00F0
FE00F0
FC00F0
F800F0
F800F0
F000F0
ENDCHAR
STARTCHAR 041A
ENCODING 1050
SWIDTH 666 0
DWIDTH 24 0
BBX 20 25 3 0
BITMAP
F001E0
F003E0
F007E0
F00700
F00F00
F00E00
F01E00
F03C00
F03C00
F07800
F07800
FFF000
FFE000
FFF000
F07800
F07C00
F03C00
F01E00
F01E00
F00F00
F00F80
F00780
F007F0
F003F0
F001F0
ENDCHAR
STARTCHAR 041B
ENCODING 1051
SWIDTH 694 0
DWIDTH 25 0
BBX 22 25 0 0
BITMAP
03FFFC
03FFFC
03FFFC
03C03C
03C03C
03C03C
03C03C
03C03C
03C03C
03C03C
03C03C
03C03C
03C03C
03C03C
03C03C
03C03C
03803C
07803C
07803C
07803C
0F003C
0F003C
FE003C
FC003C
F8003C
ENDCHAR
STARTCHAR 041C
ENCODING 1052
SWIDTH 805 0
DWIDTH 29 0
BBX 23 25 3 0
BITMAP
F8003E
FC003E
FC007E
FE007E
FE00FE
FF00FE
FF01FE
F781DE
F783DE
F3C39E
F3C79E
F1E71E
F0FF1E
F0FE1E
F07E1E
F07C1E
F03C1E
F0381E
F0101E
F0101E
F0001E
F0001E
F0001E
F0001E
F0001E
ENDCHAR
STARTCHAR 041D
ENCODING 1053
SWIDTH 722 0
DWIDTH 26 0
BBX 20 25 3 0
BITMAP
F000F0
F000F0
F000F0
F000F0
F000F0
F000F0
F000F0
F000F0
F000F0
F000F0
F000F0
FFFFF0
FFFFF0
FFFFF0
F000F0
F000F0
F000F0
F000F0
F000F0
F000F0
F000F0
F000F0
F000F0
F000F0
F000F0
ENDCHAR
STARTCHAR 041E
ENCODING 1054
SWIDTH 722 0
DWIDTH 26 0
BBX 22 25 2 0
BITMAP
01FC00
07FF80
0FFFC0
1F07E0
3E01F0
7C00F0
7800F8
780078
F80078
F00078
F0007C
F0007C
F0007C
F0007C
F0007C
F00078
F00078
780078
7800F8
7C00F0
3E01F0
1F07E0
0FFFC0
07FF80
01FC00
ENDCHAR
STARTCHAR 041F
ENCODING 1055
SWIDTH 694 0
DWIDTH 25 0
BBX 19 25 3 0
BITMAP
FFFFE0
FFFFE0
FFFFE0
F001E0
F001E0
F001E0
F001E0
F001E0
F001E0
F001E0
F001E0
F001E0
F001E0
F001E0
F001E0
F001E0
F001E0
F001E0
F001E0
F001E0
F001E0
F001E0
F001E0
F001E0
F001E0
ENDCHAR
STARTCHAR 0420
ENCODING 1056
SWIDTH 638 0
DWIDTH 23 0
BBX 18 25 3 0
BITMAP
FFFC00
FFFF00
FFFF80
F00F80
F007C0
F003C0
F003C0
F003C0
F003C0
F003C0
F007C0
F00780
FFFF80
FFFF00
FFFC00
F00000
F00000
F00000
F00000
F00000
F00000
F00000
F00000
F00000
F00000
ENDCHAR
STARTCHAR 0421
ENCODING 1057
SWIDTH 638 0
DWIDTH 23 0
BBX 20 25 2 0
BITMAP
01FC00
07FF80
1FFFC0
1F07E0
3C01E0
7C01E0
780080
780000
F00000
F00000
F00000
F00000
F00000
F00000
F00000
F00000
F00000
780000
780080
7C01E0
3C01F0
1F07E0
1FFFC0
07FF00
01FC00
ENDCHAR
STARTCHAR 0422
ENCODING 1058
SWIDTH 583 0
DWIDTH 21 0
BBX 19 25 1 0
BITMAP
FFFFE0
FFFFE0
FFFFE0
01E000
01E000
01E000
01E000
01E000
01E000
01E000
01E000
01E000
01E000
01E000
01E000
01E000
01E000
01E000
01E000
01E000
01E000
01E000
01E000
01E000
01E000
ENDCHAR
STARTCHAR 0423
ENCODING 1059
SWIDTH 611 0
DWIDTH 22 0
BBX 20 25 1 0
BITMAP
F000F0
F800F0
7801E0
7C01E0
3C03E0
3E03C0
1E03C0
1E0780
0F0780
0F0F00
078F00
078F00
03DE00
03DE00
03FC00
01FC00
01FC00
00F800
00F800
007000
00F000
00F000
0FE000
0FE000
0F8000
ENDCHAR
STARTCHAR 0424
ENCODING 1060
SWIDTH 861 0
DWIDTH 31 0
BBX 28 27 2 -1
BITMAP
000F0000
000F0000
000F0000
01FFF800
0FFFFE00
1FFFFF00
3F0F0F80
7C0F07C0
780F03E0
F00F01E0
F00F01E0
F00F01F0
F00F01F0
F00F01F0
F00F01F0
F00F01F0
F00F01E0
F00F01E0
780F03E0
7C0F07C0
3F0F0F80
1FFFFF00
0FFFFE00
01FFF800
000F0000
000F0000
000F0000
ENDCHAR
STARTCHAR 0425
ENCODING 1061
SWIDTH 638 0
DWIDTH 23 0
BBX 21 25 1 0
BITMAP
F800F8
7C01F0
3C01E0
3E03E0
1F03C0
0F0780
0F8F80
078F00
07DE00
03FE00
01FC00
01F800
00F800
01FC00
03FE00
03DE00
079F00
078F00
0F0F80
1F07C0
1E03C0
3C03E0
7C01F0
7800F0
F800F8
ENDCHAR
STARTCHAR 0426
ENCODING 1062
SWIDTH 750 0
DWIDTH 27 0
BBX 23 30 3 -5
BITMAP
F001E0
F001E0
F001E0
F001E0
F001E0
F001E0
F001E0
F001E0
F001E0
F001E0
F001E0
F001E0
F001E0
F001E0
F001E0
F001E0
F001E0
F001E0
F001E0
F001E0
F001E0
F001E0
FFFFFE
FFFFFE
FFFFFE
00001E
00001E
00001E
00001E
00001E
ENDCHAR
STARTCHAR 0427
ENCODING 1063
SWIDTH 666 0
DWIDTH 24 0
BBX 19 25 2 0
BITMAP
F001E0
F001E0
F001E0
F001E0
F001E0
F001E0
F001E0
F001E0
F001E0
F001E0
F801E0
7801E0
7E03E0
3FFFE0
1FFFE0
07FDE0
0001E0
0001E0
0001E0
0001E0
0001E0
0001E0
0001E0
0001E0
0001E0
ENDCHAR
STARTCHAR 0428
ENCODING 1064
SWIDTH 1000 0
DWIDTH 36 0
BBX 29 25 3 0
BITMAP
F0078078
F0078078
F0078078
F0078078
F0078078
F0078078
F0078078
F0078078
F0078078
F0078078
F0078078
F0078078
F0078078
F0078078
F0078078
F0078078
F0078078
F0078078
F0078078
F0078078
F0078078
F0078078
FFFFFFF8
FFFFFFF8
FFFFFFF8
ENDCHAR
STARTCHAR 0429
ENCODING 1065
SWIDTH 1027 0
DWIDTH 37 0
BBX 33 30 3 -5
BITMAP
F007807800
F007807800
F007807800
F007807800
F007807800
F007807800
F007807800
F007807800
F007807800
F007807800
F007807800
F007807800
F007807800
F007807800
F007807800
F007807800
F007807800
F007807800
F007807800
F007807800
F007807800
F007807800
FFFFFFFF80
FFFFFFFF80
FFFFFFFF80
0000000780
0000000780
0000000780
0000000780
0000000780
ENDCHAR
STARTCHAR 042A
ENCODING 1066
SWIDTH 750 0
DWIDTH 27 0
BBX 25 25 1 0
BITMAP
FFC00000
FFC00000
FFC00000
03C00000
03C00000
03C00000
03C00000
03C00000
03C00000
03C00000
03FFF000
03FFFC00
03FFFE00
03C01F00
03C00F00
03C00F00
03C00F80
03C00F80
03C00F80
03C00F00
03C00F00
03C01F00
03FFFE00
03FFFC00
03FFF000
ENDCHAR
STARTCHAR 042B
ENCODING 1067
SWIDTH 888 0
DWIDTH 32 0
BBX 26 25 3 0
BITMAP
F00003C0
F00003C0
F00003C0
F00003C0
F00003C0
F00003C0
F00003C0
F00003C0
F00003C0
F00003C0
FFFC03C0
FFFF03C0
FFFF83C0
F007C3C0
F003C3C0
F003C3C0
F003C3C0
F003C3C0
F003C3C0
F003C3C0
F003C3C0
F007C3C0
FFFF83C0
FFFF03C0
FFFC03C0
ENDCHAR
STARTCHAR 042C
ENCODING 1068
SWIDTH 638 0
DWIDTH 23 0
BBX 19 25 3 0
BITMAP
F00000
F00000
F00000
F00000
F00000
F00000
F00000
F00000
F00000
F00000
FFFE00
FFFF00
FFFF80
F007C0
F003C0
F003E0
F001E0
F001E0
F001E0
F003E0
F003C0
F007C0
FFFF80
FFFF00
FFFE00
ENDCHAR
STARTCHAR 042D
ENCODING 1069
SWIDTH 638 0
DWIDTH 23 0
BBX 20 25 1 0
BITMAP
03F800
1FFF00
3FFF80
7E0FC0
7803E0
F001E0
1001E0
0000F0
0000F0
0000F0
0000F0
03FFF0
03FFF0
03FFF0
0000F0
0000F0
0000F0
0000F0
3001E0
7001E0
F803C0
7E0FC0
3FFF80
1FFF00
03F800
ENDCHAR
STARTCHAR 042E
ENCODING 1070
SWIDTH 972 0
DWIDTH 35 0
BBX 30 25 3 0
BITMAP
F000FE00
F003FFC0
F007FFE0
F00F83F0
F01F00F8
F01E0078
F03C0078
F03C003C
F03C003C
F07C003C
F07C003C
FFFC003C
FFFC003C
FFFC003C
F07C003C
F07C003C
F03C003C
F03C003C
F03C0078
F01E0078
F01F00F8
F00F83F0
F007FFE0
F003FFC0
F000FE00
ENDCHAR
STARTCHAR 042F
ENCODING 1071
SWIDTH 666 0
DWIDTH 24 0
BBX 20 25 1 0
BITMAP
03FFF0
0FFFF0
1FFFF0
3E01F0
3C01F0
7C01F0
7C01F0
7C01F0
3C01F0
3C01F0
3E01F0
1FFFF0
0FFFF0
01FFF0
03E1F0
03C1F0
07C1F0
0781F0
0F81F0
0F01F0
1F01F0
1E01F0
FC01F0
FC01F0
F801F0
ENDCHAR
STARTCHAR 0430
ENCODING 1072
SWIDTH 555 0
DWIDTH 20 0
BBX 18 19 1 0
BITMAP
07F000
1FFC00
3FFE00
7C3E00
301E00
000F00
000F00
000F00
0FFF00
3FFF00
7FFF00
7C0F00
F80F00
F00F00
F81F00
783F00
7FFFC0
3FE7C0
0F83C0
ENDCHAR
STARTCHAR 0431
ENCODING 1073
SWIDTH 555 0
DWIDTH 20 0
BBX 17 27 2 0
BITMAP
003F00
07FF00
0FFF00
1FC000
3C0000
780000
780000
700000
F1F000
F7FC00
FFFE00
FC3E00
F80F00
F00F00
F00780
F00780
F00780
F00780
F00780
F00780
F00700
700F00
780F00
7C3E00
3FFC00
1FF800
07E000
ENDCHAR
STARTCHAR 0432
ENCODING 1074
SWIDTH 555 0
DWIDTH 20 0
BBX 16 19 3 0
BITMAP
FFF0
FFFC
FFFC
F03E
F01E
F01E
F01E
F03C
FFF8
FFF8
FFFC
F01E
F01E
F01E
F01F
F01E
FFFE
FFFC
FFF8
ENDCHAR
STARTCHAR 0433
ENCODING 1075
SWIDTH 444 0
DWIDTH 16 0
BBX 12 19 3 0
BITMAP
FFF0
FFF0
FFF0
F000
F000
F000
F000
F000
F000
F000
F000
F000
F000
F000
F000
F000
F000
F000
F000
ENDCHAR
STARTCHAR 0434
ENCODING 1076
SWIDTH 611 0
DWIDTH 22 0
BBX 22 24 0 -5
BITMAP
07FFE0
07FFE0
07FFE0
0781E0
0781E0
0781E0
0781E0
0781E0
0701E0
0701E0
0F01E0
0F01E0
0F01E0
0F01E0
1E01E0
1E01E0
FFFFFC
FFFFFC
FFFFFC
F0003C
F0003C
F0003C
F0003C
F0003C
ENDCHAR
STARTCHAR 0435
ENCODING 1077
SWIDTH 555 0
DWIDTH 20 0
BBX 16 19 2 0
BITMAP
07E0
1FF8
3FFC
7C3E
781E
F00F
F00F
F00F
FFFF
FFFF
FFFF
F000
F000
F004
7806
7C1F
3FFE
1FFC
07F0
ENDCHAR
STARTCHAR 0436
ENCODING 1078
SWIDTH 805 0
DWIDTH 29 0
BBX 27 19 1 0
BITMAP
780F01C0
7C0F07C0
7C0F07C0
1E0F0F00
1E0F0F00
0F0F0E00
0F0F1E00
078F1C00
07FFFC00
01FFF000
07FFFC00
0F0F1E00
0F0F1E00
0F0F0F00
1E0F0F00
1E0F0700
FC0F07E0
FC0F03E0
F80F01E0
ENDCHAR
STARTCHAR 0437
ENCODING 1079
SWIDTH 527 0
DWIDTH 19 0
BBX 16 19 1 0
BITMAP
0FF0
3FFC
7FFC
F83E
701E
201E
001E
003E
07F8
07F0
07FC
001E
001F
200F
701F
F83E
7FFE
3FF8
0FE0
ENDCHAR
STARTCHAR 0438
ENCODING 1080
SWIDTH 611 0
DWIDTH 22 0
BBX 16 19 3 0
BITMAP
F00F
F01F
F03F
F03F
F07F
F0FF
F0EF
F1EF
F1CF
F3CF
F78F
E70F
EF0F
EE0F
FC0F
FC0F
F80F
F00F
F00F
ENDCHAR
STARTCHAR 0439
ENCODING 1081
SWIDTH 611 0
DWIDTH 22 0
BBX 16 27 3 0
BITMAP
0810
383C
3C38
1FF8
0FF0
07E0
0000
0000
F00F
F01F
F03F
F03F
F07F
F0FF
F0EF
F1EF
F1CF
F3CF
F78F
E70F
EF0F
EE0F
FC0F
FC0F
F80F
F00F
F00F
ENDCHAR
STARTCHAR 043A
ENCODING 1082
SWIDTH 555 0
DWIDTH 20 0
BBX 16 19 3 0
BITMAP
F00F
F01F
F03F
F038
F078
F0F0
F0F0
F1E0
FFC0
FF80
FFE0
F1F0
F0F0
F0F8
F078
F03C
F03F
F01F
F00F
ENDCHAR
STARTCHAR 043B
ENCODING 1083
SWIDTH 583 0
DWIDTH 21 0
BBX 18 19 0 0
BITMAP
07FFC0
07FFC0
07FFC0
0703C0
0703C0
0703C0
0703C0
0703C0
0703C0
0F03C0
0F03C0
0F03C0
0F03C0
0F03C0
0E03C0
1E03C0
FE03C0
FC03C0
F803C0
ENDCHAR
STARTCHAR 043C
ENCODING 1084
SWIDTH 722 0
DWIDTH 26 0
BBX 20 19 3 0
BITMAP
F801F0
F803F0
FC03F0
FE07F0
FE0FF0
FF0EF0
F71EF0
F79CF0
F3FCF0
F3F8F0
F1F8F0
F0F0F0
F0E0F0
F060F0
F040F0
F000F0
F000F0
F000F0
F000F0
ENDCHAR
STARTCHAR 043D
ENCODING 1085
SWIDTH 611 0
DWIDTH 22 0
BBX 16 19 3 0
BITMAP
F00F
F00F
F00F
F00F
F00F
F00F
F00F
F00F
FFFF
FFFF
FFFF
F00F
F00F
F00F
F00F
F00F
F00F
F00F
F00F
ENDCHAR
STARTCHAR 043E
ENCODING 1086
SWIDTH 555 0
DWIDTH 20 0
BBX 17 19 2 0
BITMAP
07E000
1FF800
3FFC00
7C3E00
780F00
F00F00
F00F00
F00780
F00780
F00780
F00780
F00780
F00F00
F00F00
780F00
7C3E00
3FFC00
1FF800
07E000
ENDCHAR
STARTCHAR 043F
ENCODING 1087
SWIDTH 583 0
DWIDTH 21 0
BBX 15 19 3 0
BITMAP
FFFE
FFFE
FFFE
F01E
F01E
F01E
F01E
F01E
F01E
F01E
F01E
F01E
F01E
F01E
F01E
F01E
F01E
F01E
F01E
ENDCHAR
STARTCHAR 0440
ENCODING 1088
SWIDTH 583 0
DWIDTH 21 0
BBX 17 26 3 -7
BITMAP
F1F000
F7FC00
FFFE00
FC3E00
F01F00
F00F00
F00F00
F00F80
F00F80
F00F80
F00F80
F00F80
F00F00
F00F00
F01F00
FC3E00
FFFE00
F7FC00
F1F000
F00000
F00000
F00000
F00000
F00000
F00000
F00000
ENDCHAR
STARTCHAR 0441
ENCODING 1089
SWIDTH 500 0
DWIDTH 18 0
BBX 15 19 2 0
BITMAP
07E0
1FF8
3FFC
7C3E
781E
F008
F000
F000
F000
F000
F000
F000
F000
F00C
781E
7C3E
3FFC
1FF8
07E0
ENDCHAR
STARTCHAR 0442
ENCODING 1090
SWIDTH 472 0
DWIDTH 17 0
BBX 16 19 1 0
BITMAP
FFFF
FFFF
FFFF
03C0
03C0
03C0
03C0
03C0
03C0
03C0
03C0
03C0
03C0
03C0
03C0
03C0
03C0
03C0
03C0
ENDCHAR
STARTCHAR 0443
ENCODING 1091
SWIDTH 527 0
DWIDTH 19 0
BBX 18 26 0 -7
BITMAP
F803C0
7803C0
780780
3C0780
3C0780
3C0F00
1E0F00
1E0E00
1E1E00
0F1E00
0F1C00
0F3C00
073C00
07B800
07B800
03F800
03F000
03F000
01F000
01E000
01E000
01E000
03C000
1FC000
1F8000
1F0000
ENDCHAR
STARTCHAR 0444
ENCODING 1092
SWIDTH 777 0
DWIDTH 28 0
BBX 24 32 2 -7
BITMAP
003C00
003C00
003C00
003C00
003C00
003C00
1F3CF8
3FBDFC
7FFFFE
787E1E
F03C1F
F03C0F
F03C0F
F03C0F
F03C0F
F03C0F
F03C0F
F03C0F
F03C0F
F03C0F
F03C1F
787E1E
7FFFFE
3FBDFC
1F3CF8
003C00
003C00
003C00
003C00
003C00
003C00
003C00
ENDCHAR
STARTCHAR 0445
ENCODING 1093
SWIDTH 527 0
DWIDTH 19 0
BBX 17 19 1 0
BITMAP
F80780
780F00
3C1F00
3E1E00
1E3C00
0F7800
0FF800
07F000
03E000
03E000
03F000
07F000
0F7800
1E7C00
1E3C00
3C1E00
7C1F00
780F00
F00780
ENDCHAR
STARTCHAR 0446
ENCODING 1094
SWIDTH 611 0
DWIDTH 22 0
BBX 18 24 3 -5
BITMAP
F01E00
F01E00
F01E00
F01E00
F01E00
F01E00
F01E00
F01E00
F01E00
F01E00
F01E00
F01E00
F01E00
F01E00
F01E00
F01E00
FFFFC0
FFFFC0
FFFFC0
0001C0
0001C0
0001C0
0001C0
0001C0
ENDCHAR
STARTCHAR 0447
ENCODING 1095
SWIDTH 555 0
DWIDTH 20 0
BBX 15 19 2 0
BITMAP
F01E
F01E
F01E
F01E
F01E
F01E
F01E
F01E
F01E
F83E
7FFE
7FDE
1F9E
001E
001E
001E
001E
001E
001E
ENDCHAR
STARTCHAR 0448
ENCODING 1096
SWIDTH 805 0
DWIDTH 29 0
BBX 24 19 3 0
BITMAP
F03C0F
F03C0F
F03C0F
F03C0F
F03C0F
F03C0F
F03C0F
F03C0F
F03C0F
F03C0F
F03C0F
F03C0F
F03C0F
F03C0F
F03C0F
F03C0F
FFFFFF
FFFFFF
FFFFFF
ENDCHAR
STARTCHAR 0449
ENCODING 1097
SWIDTH 861 0
DWIDTH 31 0
BBX 27 24 3 -5
BITMAP
F03C0F00
F03C0F00
F03C0F00
F03C0F00
F03C0F00
F03C0F00
F03C0F00
F03C0F00
F03C0F00
F03C0F00
F03C0F00
F03C0F00
F03C0F00
F03C0F00
F03C0F00
F03C0F00
FFFFFFE0
FFFFFFE0
FFFFFFE0
000001E0
000001E0
000001E0
000001E0
000001E0
ENDCHAR
STARTCHAR 044A
ENCODING 1098
SWIDTH 611 0
DWIDTH 22 0
BBX 20 19 1 0
BITMAP
FF0000
FF0000
FF0000
0F0000
0F0000
0F0000
0FFF00
0FFFC0
0FFFE0
0F01E0
0F00F0
0F00F0
0F00F0
0F00F0
0F00F0
0F01E0
0FFFE0
0FFFC0
0FFF00
ENDCHAR
STARTCHAR 044B
ENCODING 1099
SWIDTH 750 0
DWIDTH 27 0
BBX 22 19 3 0
BITMAP
F0003C
F0003C
F0003C
F0003C
F0003C
F0003C
FFE03C
FFF83C
FFFC3C
F03C3C
F01E3C
F01E3C
F01E3C
F01E3C
F01E3C
F03C3C
FFFC3C
FFF83C
FFE03C
ENDCHAR
STARTCHAR 044C
ENCODING 1100
SWIDTH 527 0
DWIDTH 19 0
BBX 15 19 3 0
BITMAP
F000
F000
F000
F000
F000
F000
FFF0
FFF8
FFFC
F03E
F01E
F01E
F01E
F01E
F01E
F03E
FFFC
FFF8
FFF0
ENDCHAR
STARTCHAR 044D
ENCODING 1101
SWIDTH 527 0
DWIDTH 19 0
BBX 16 19 1 0
BITMAP
0FE0
3FF8
7FFC
F83E
F01E
200F
000F
000F
07FF
07FF
07FF
000F
000F
200F
701E
F83E
7FFC
3FF8
0FE0
ENDCHAR
STARTCHAR 044E
ENCODING 1102
SWIDTH 805 0
DWIDTH 29 0
BBX 24 19 3 0
BITMAP
F007E0
F01FF8
F03FFC
F07C3E
F0F81E
F0F00F
F0F00F
F0F00F
FFF00F
FFF00F
FFF00F
F0F00F
F0F00F
F0F00F
F0F01E
F07C3E
F03FFC
F01FF8
F007E0
ENDCHAR
STARTCHAR 044F
ENCODING 1103
SWIDTH 555 0
DWIDTH 20 0
BBX 16 19 1 0
BITMAP
0FFF
1FFF
3FFF
7C0F
780F
780F
780F
780F
7C0F
3FFF
1FFF
03FF
0F0F
0F0F
1E0F
1E0F
FC0F
FC0F
F80F
ENDCHAR
STARTCHAR 0450
ENCODING 1104
SWIDTH 555 0
DWIDTH 20 0
BBX 16 29 2 0
BITMAP
0200
0700
0F00
0780
0780
03C0
01C0
0180
0000
0000
07E0
1FF8
3FFC
7C3E
781E
F00F
F00F
F00F
FFFF
FFFF
FFFF
F000
F000
F004
7806
7C1F
3FFE
1FFC
07F0
ENDCHAR
STARTCHAR 0451
ENCODING 1105
SWIDTH 555 0
DWIDTH 20 0
BBX 16 26 2 0
BITMAP
1C3C
3E3C
3E3C
1C3C
0000
0000
0000
07E0
1FF8
3FFC
7C3E
781E
F00F
F00F
F00F
FFFF
FFFF
FFFF
F000
F000
F004
7806
7C1F
3FFE
1FFC
07F0
ENDCHAR
STARTCHAR 0452
ENCODING 1106
SWIDTH 583 0
DWIDTH 21 0
BBX 17 34 1 -7
BITMAP
3C0000
3C0000
FFE000
FFE000
FFE000
3C0000
3C0000
3C0000
3C7C00
3DFE00
3FFF00
3F0F80
3C0780
3C0780
3C0780
3C0780
3C0780
3C0780
3C0780
3C0780
3C0780
3C0780
3C0780
3C0780
3C0780
3C0780
3C0780
000780
000780
000780
000780
003F80
003F00
003E00
ENDCHAR
STARTCHAR 0453
ENCODING 1107
SWIDTH 444 0
DWIDTH 16 0
BBX 12 29 3 0
BITMAP
0200
0380
03C0
0780
0780
0F00
0E00
0600
0000
0000
FFF0
FFF0
FFF0
F000
F000
F000
F000
F000
F000
F000
F000
F000
F000
F000
F000
F000
F000
F000
F000
ENDCHAR
STARTCHAR 0454
ENCODING 1108
SWIDTH 527 0
DWIDTH 19 0
BBX 16 19 2 0
BITMAP
07F0
1FFC
3FFE
7C1E
F80F
F008
F000
F000
FFE0
FFE0
FFE0
F000
F000
F004
F80F
7C1E
3FFE
1FFC
07F0
ENDCHAR
STARTCHAR 0455
ENCODING 1109
SWIDTH 500 0
DWIDTH 18 0
BBX 15 19 1 0
BITMAP
07E0
1FF8
3FFC
7C3E
7808
7800
7800
7E00
3FF0
1FFC
07FC
003E
001E
201E
701E
F83E
7FFC
3FF8
0FE0
ENDCHAR
STARTCHAR 0456
ENCODING 1110
SWIDTH 277 0
DWIDTH 10 0
BBX 5 27 2 0
BITMAP
70
78
F8
78
70
00
00
00
78
78
78
78
78
78
78
78
78
78
78
78
78
78
78
78
78
78
78
ENDCHAR
STARTCHAR 0457
ENCODING 1111
SWIDTH 277 0
DWIDTH 10 0
BBX 12 26 -1 0
BITMAP
F0E0
F1F0
F1F0
F0E0
0000
0000
0000
0F00
0F00
0F00
0F00
0F00
0F00
0F00
0F00
0F00
0F00
0F00
0F00
0F00
0F00
0F00
0F00
0F00
0F00
0F00
ENDCHAR
STARTCHAR 0458
ENCODING 1112
SWIDTH 277 0
DWIDTH 10 0
BBX 7 34 0 -7
BITMAP
1C
1E
3E
1E
1C
00
00
00
1E
1E
1E
1E
1E
1E
1E
1E
1E
1E
1E
1E
1E
1E
1E
1E
1E
1E
1E
1E
1E
1E
1E
FC
FC
F8
ENDCHAR
STARTCHAR 0459
ENCODING 1113
SWIDTH 833 0
DWIDTH 30 0
BBX 29 19 0 0
BITMAP
07FFC000
07FFC000
07FFC000
0703C000
0703C000
0703C000
0703FF80
0703FFE0
0703FFF0
0F03C0F0
0F03C0F0
0F03C078
0F03C078
0F03C078
0E03C0F0
1E03C0F0
FE03FFF0
FC03FFE0
F803FF80
ENDCHAR
STARTCHAR 045A
ENCODING 1114
SWIDTH 861 0
DWIDTH 31 0
BBX 26 19 3 0
BITMAP
F01E0000
F01E0000
F01E0000
F01E0000
F01E0000
F01E0000
F01FFE00
F01FFF00
FFFFFF80
FFFE07C0
FFFE03C0
F01E03C0
F01E03C0
F01E03C0
F01E03C0
F01E07C0
F01FFF80
F01FFF00
F01FFE00
ENDCHAR
STARTCHAR 045B
ENCODING 1115
SWIDTH 583 0
DWIDTH 21 0
BBX 17 27 1 0
BITMAP
3C0000
3C0000
3C0000
FFE000
FFE000
FFE000
3C0000
3C0000
3CFC00
3DFE00
3FFF00
3F0F80
3C0780
3C0780
3C0780
3C0780
3C0780
3C0780
3C0780
3C0780
3C0780
3C0780
3C0780
3C0780
3C0780
3C0780
3C0780
ENDCHAR
STARTCHAR 045C
ENCODING 1116
SWIDTH 555 0
DWIDTH 20 0
BBX 16 29 3 0
BITMAP
0080
00E0
00F0
01E0
01C0
03C0
0380
0500
0000
0000
F00F
F01F
F03F
F038
F078
F0F0
F0F0
F1E0
FFC0
FF80
FFE0
F1F0
F0F0
F0F8
F078
F03C
F03F
F01F
F00F
ENDCHAR
STARTCHAR 045D
ENCODING 1117
SWIDTH 611 0
DWIDTH 22 0
BBX 16 29 3 0
BITMAP
0200
0E00
1F00
0F00
0780
0380
03C0
0100
0000
0000
F00F
F01F
F03F
F03F
F07F
F0FF
F0EF
F1EF
F1CF
F3CF
F78F
E70F
EF0F
EE0F
FC0F
FC0F
F80F
F00F
F00F
ENDCHAR
STARTCHAR 045E
ENCODING 1118
SWIDTH 527 0
DWIDTH 19 0
BBX 18 34 0 -7
BITMAP
060C00
1E0F00
0E1E00
0FFC00
07FC00
01F000
000000
000000
F803C0
7803C0
780780
3C0780
3C0780
3C0F00
1E0F00
1E0E00
1E1E00
0F1E00
0F1C00
0F3C00
073C00
07B800
07B800
03F800
03F000
03F000
01F000
01E000
01E000
01E000
03C000
1FC000
1F8000
1F0000
ENDCHAR
STARTCHAR 045F
ENCODING 1119
SWIDTH 583 0
DWIDTH 21 0
BBX 15 24 3 -5
BITMAP
F01E
F01E
F01E
F01E
F01E
F01E
F01E
F01E
F01E
F01E
F01E
F01E
F01E
F01E
F01E
F01E
FFFE
FFFE
FFFE
0380
0380
0380
0380
0380
ENDCHAR
STARTCHAR 0472
ENCODING 1138
SWIDTH 722 0
DWIDTH 26 0
BBX 22 25 2 0
BITMAP
01FC00
07FF80
0FFFC0
1F07E0
3E01F0
7C00F0
7800F8
780078
F00078
F00078
F00078
FFFFFC
FFFFFC
FFFFFC
F00078
F00078
F00078
780078
780078
7C00F0
3E01F0
1F07E0
0FFFC0
07FF80
01FC00
ENDCHAR
STARTCHAR 0473
ENCODING 1139
SWIDTH 555 0
DWIDTH 20 0
BBX 17 19 2 0
BITMAP
07E000
1FF800
3FFC00
7C3E00
780F00
F00F00
F00700
F00780
FFFF80
FFFF80
FFFF80
F00780
F00700
F00F00
780F00
7C3E00
3FFC00
1FF800
07E000
ENDCHAR
STARTCHAR 0490
ENCODING 1168
SWIDTH 500 0
DWIDTH 18 0
BBX 14 30 3 0
BITMAP
003C
003C
003C
003C
003C
FFFC
FFFC
FFFC
F000
F000
F000
F000
F000
F000
F000
F000
F000
F000
F000
F000
F000
F000
F000
F000
F000
F000
F000
F000
F000
F000
ENDCHAR
STARTCHAR 0491
ENCODING 1169
SWIDTH 444 0
DWIDTH 16 0
BBX 12 24 3 0
BITMAP
00F0
00F0
00F0
00F0
00F0
FFF0
FFF0
FFF0
F000
F000
F000
F000
F000
F000
F000
F000
F000
F000
F000
F000
F000
F000
F000
F000
ENDCHAR
STARTCHAR 0492
ENCODING 1170
SWIDTH 527 0
DWIDTH 19 0
BBX 17 25 1 0
BITMAP
1FFF80
1FFF80
1FFF80
1E0000
1E0000
1E0000
1E0000
1E0000
1E0000
1E0000
1E0000
FFFC00
FFFC00
FFFC00
1E0000
1E0000
1E0000
1E0000
1E0000
1E0000
1E0000
1E0000
1E0000
1E0000
1E0000
ENDCHAR
STARTCHAR 0493
ENCODING 1171
SWIDTH 444 0
DWIDTH 16 0
BBX 15 19 1 0
BITMAP
3FFE
3FFE
3FFE
3C00
3C00
3C00
3C00
3C00
FFF0
FFF0
FFF0
3C00
3C00
3C00
3C00
3C00
3C00
3C00
3C00
ENDCHAR
STARTCHAR 0494
ENCODING 1172
SWIDTH 638 0
DWIDTH 23 0
BBX 18 31 3 -6
BITMAP
FFFC00
FFFC00
FFFC00
F00000
F00000
F00000
F00000
F00000
F00000
F00000
F7F800
FFFE00
FFFF00
F80F80
F007C0
F003C0
F003C0
F003C0
F003C0
F003C0
F003C0
F003C0
F003C0
F003C0
F003C0
0003C0
0007C0
000780
007F00
007E00
007C00
ENDCHAR
STARTCHAR 0495
ENCODING 1173
SWIDTH 555 0
DWIDTH 20 0
BBX 15 26 3 -7
BITMAP
FFF0
FFF0
FFF0
F000
F000
F000
F000
F000
F3F0
FFFC
FFFC
F83E
F01E
F01E
F01E
F01E
F01E
F01E
F01E
001E
001E
001E
001E
01FC
01F8
01F0
ENDCHAR
STARTCHAR 0496
ENCODING 1174
SWIDTH 1000 0
DWIDTH 36 0
BBX 34 30 2 -5
BITMAP
F003C01F00
F803C03F00
FC03C03F00
1C03C07800
1E03C07800
1E03C0F000
0F03C0F000
0F03C1E000
0783C1E000
0783C1E000
03C3C3C000
03FFFF8000
00FFFF0000
03FFFFC000
07C3C3C000
0783C1E000
0F83C1E000
0F03C0F000
1F03C0F000
1E03C07800
3E03C07800
3C03C03C00
FC03C03FC0
F803C01FC0
F003C00FC0
00000003C0
00000003C0
00000003C0
00000003C0
00000003C0
ENDCHAR
STARTCHAR 0497
ENCODING 1175
SWIDTH 805 0
DWIDTH 29 0
BBX 28 24 1 -5
BITMAP
780F01C0
7C0F07C0
7C0F07C0
1E0F0F00
1E0F0F00
0F0F0E00
0F0F1E00
078F1C00
07FFFC00
01FFF000
07FFFC00
0F0F1E00
0F0F1E00
0F0F0F00
1E0F0F00
1E0F0700
FC0F07F0
FC0F03F0
F80F01F0
000000F0
000000F0
000000F0
000000F0
000000F0
ENDCHAR
STARTCHAR 0498
ENCODING 1176
SWIDTH 611 0
DWIDTH 22 0
BBX 19 30 1 -5
BITMAP
03F800
1FFE00
3FFF80
7E0F80
3807C0
1003C0
0003C0
0003C0
0003C0
0007C0
000F80
03FE00
03FC00
03FF00
000FC0
0003C0
0003C0
0003E0
0003E0
3003C0
7803C0
FE0FC0
7FFF80
1FFF00
07F800
01E000
01E000
01E000
01E000
01E000
ENDCHAR
STARTCHAR 0499
ENCODING 1177
SWIDTH 527 0
DWIDTH 19 0
BBX 16 24 1 -5
BITMAP
0FF0
3FFC
7FFC
F83E
701E
201E
001E
003E
07F8
07F0
07FC
001E
001F
200F
601F
F83E
7FFE
3FFC
0FF0
0380
0380
0380
0380
0380
ENDCHAR
STARTCHAR 049A
ENCODING 1178
SWIDTH 694 0
DWIDTH 25 0
BBX 21 30 3 -5
BITMAP
F001E0
F003E0
F007E0
F00700
F00F00
F00E00
F01E00
F03C00
F03C00
F07800
F07800
FFF000
FFE000
FFF000
F07800
F07C00
F03C00
F01E00
F01E00
F00F00
F00F80
F00780
F007F8
F003F8
F001F8
000078
000078
000078
000078
000078
ENDCHAR
STARTCHAR 049B
ENCODING 1179
SWIDTH 583 0
DWIDTH 21 0
BBX 17 24 3 -5
BITMAP
F00F00
F01F00
F03F00
F03800
F07800
F0F000
F0F000
F1E000
FFC000
FF8000
FFE000
F1F000
F0F000
F0F800
F07800
F03C00
F03F80
F01F80
F00F80
000380
000380
000380
000380
000380
ENDCHAR
STARTCHAR 049C
ENCODING 1180
SWIDTH 722 0
DWIDTH 26 0
BBX 21 25 3 0
BITMAP
F00078
F000F8
F001F8
F001C0
F003C0
F00380
F38780
F38700
F38F00
F39E00
F39E00
FFFC00
FFF800
FFFE00
F39E00
F38F00
F38F00
F38780
F38780
F003C0
F003C0
F001E0
F001F8
F000F8
F00078
ENDCHAR
STARTCHAR 049D
ENCODING 1181
SWIDTH 611 0
DWIDTH 22 0
BBX 18 19 3 0
BITMAP
F00380
F00780
F00F80
F01E00
F71E00
F73C00
F73C00
F77800
FFF800
FFE000
FFF800
F77C00
F73C00
F73E00
F71E00
F01F00
F00FC0
F007C0
F003C0
ENDCHAR
STARTCHAR 04A0
ENCODING 1184
SWIDTH 777 0
DWIDTH 28 0
BBX 25 25 1 0
BITMAP
FFC00780
FFC00F80
FFC01F80
03C03C00
03C03C00
03C07800
03C07800
03C0F000
03C0F000
03C1E000
03C1C000
03FFC000
03FF0000
03FFC000
03C1E000
03C1F000
03C0F000
03C0F800
03C07800
03C07C00
03C03C00
03C01E00
03C01F80
03C00F80
03C00780
ENDCHAR
STARTCHAR 04A1
ENCODING 1185
SWIDTH 638 0
DWIDTH 23 0
BBX 21 19 1 0
BITMAP
FF00F0
FF01F0
FF01F0
0F03C0
0F0380
0F0780
0F0700
0F0F00
0FFE00
0FFC00
0FFE00
0F0F00
0F0F80
0F0780
0F03C0
0F03C0
0F01F8
0F01F8
0F00F8
ENDCHAR
STARTCHAR 04A2
ENCODING 1186
SWIDTH 750 0
DWIDTH 27 0
BBX 23 30 3 -5
BITMAP
F000F0
F000F0
F000F0
F000F0
F000F0
F000F0
F000F0
F000F0
F000F0
F000F0
F000F0
FFFFF0
FFFFF0
FFFFF0
F000F0
F000F0
F000F0
F000F0
F000F0
F000F0
F000F0
F000F0
F000FE
F000FE
F000FE
00000E
00000E
00000E
00000E
00000E
ENDCHAR
STARTCHAR 04A3
ENCODING 1187
SWIDTH 638 0
DWIDTH 23 0
BBX 19 24 3 -5
BITMAP
F00F00
F00F00
F00F00
F00F00
F00F00
F00F00
F00F00
F00F00
FFFF00
FFFF00
FFFF00
F00F00
F00F00
F00F00
F00F00
F00F00
F00FE0
F00FE0
F00FE0
0001E0
0001E0
0001E0
0001E0
0001E0
ENDCHAR
STARTCHAR 04A4
ENCODING 1188
SWIDTH 916 0
DWIDTH 33 0
BBX 29 25 3 0
BITMAP
F001FFF8
F001FFF8
F001FFF8
F001E000
F001E000
F001E000
F001E000
F001E000
F001E000
F001E000
F001E000
FFFFE000
FFFFE000
FFFFE000
F001E000
F001E000
F001E000
F001E000
F001E000
F001E000
F001E000
F001E000
F001E000
F001E000
F001E000
ENDCHAR
STARTCHAR 04A5
ENCODING 1189
SWIDTH 750 0
DWIDTH 27 0
BBX 24 19 3 0
BITMAP
F01FFF
F01FFF
F01FFF
F01E00
F01E00
F01E00
F01E00
F01E00
FFFE00
FFFE00
FFFE00
F01E00
F01E00
F01E00
F01E00
F01E00
F01E00
F01E00
F01E00
ENDCHAR
STARTCHAR 04AA
ENCODING 1194
SWIDTH 638 0
DWIDTH 23 0
BBX 20 30 2 -5
BITMAP
01FC00
07FF80
1FFFC0
1F07E0
3C01E0
7C01E0
780080
780000
F00000
F00000
F00000
F00000
F00000
F00000
F00000
F00000
F00000
780000
780080
7C01E0
3C01F0
3F07E0
1FFFC0
07FF80
01FC00
007000
007000
007000
007000
007000
ENDCHAR
STARTCHAR 04AB
ENCODING 1195
SWIDTH 500 0
DWIDTH 18 0
BBX 15 24 2 -5
BITMAP
07E0
1FF8
3FFC
7C3E
781E
F008
F000
F000
F000
F000
F000
F000
F000
F00C
F81E
7C3E
3FFC
1FF8
0FF0
03C0
03C0
03C0
03C0
03C0
ENDCHAR
STARTCHAR 04AE
ENCODING 1198
SWIDTH 611 0
DWIDTH 22 0
BBX 22 25 0 0
BITMAP
F8007C
7C0078
3C00F0
3E01F0
1F01E0
0F03E0
0F83C0
078780
07C780
03CF00
03EF00
01FE00
00FE00
00FC00
007800
007800
007800
007800
007800
007800
007800
007800
007800
007800
007800
ENDCHAR
STARTCHAR 04AF
ENCODING 1199
SWIDTH 500 0
DWIDTH 18 0
BBX 17 26 1 -7
BITMAP
F00780
F00700
F00F00
780F00
780E00
781E00
3C1E00
3C1C00
1C3C00
1E3C00
1E3800
0E7800
0F7800
0F7000
077000
07E000
07E000
03E000
03C000
03C000
03C000
03C000
03C000
03C000
03C000
03C000
ENDCHAR
STARTCHAR 04B0
ENCODING 1200
SWIDTH 611 0
DWIDTH 22 0
BBX 22 25 0 0
BITMAP
F8007C
7C00F8
3C00F0
3E01F0
1F01E0
0F03E0
0F83C0
078780
07C780
03CF00
03EF00
01FE00
00FE00
00FC00
007800
0FFFE0
0FFFE0
0FFFE0
007800
007800
007800
007800
007800
007800
007800
ENDCHAR
STARTCHAR 04B1
ENCODING 1201
SWIDTH 500 0
DWIDTH 18 0
BBX 17 26 1 -7
BITMAP
F00780
F00700
F00F00
780F00
780E00
781E00
3C1E00
3C1C00
1C3C00
1E3C00
1E3800
0E7800
0F7800
0F7000
077000
07E000
07E000
03E000
03C000
3FFE00
3FFE00
3FFE00
03C000
03C000
03C000
03C000
ENDCHAR
STARTCHAR 04B2
ENCODING 1202
SWIDTH 666 0
DWIDTH 24 0
BBX 23 30 1 -5
BITMAP
F800F8
7C01F0
3C01E0
3E03E0
1F03C0
0F0780
0F8F80
078F00
07DF00
03FE00
01FC00
01FC00
00F800
01FC00
03FC00
03DE00
079F00
078F00
0F0F80
1F0780
1E03C0
3C03E0
7C01FE
7800FE
F800FE
00001E
00001E
00001E
00001E
00001E
ENDCHAR
STARTCHAR 04B3
ENCODING 1203
SWIDTH 555 0
DWIDTH 20 0
BBX 18 24 1 -5
BITMAP
F80780
780F00
3C1F00
3E1E00
1E3C00
0F7C00
0FF800
07F000
03F000
03E000
03F000
07F000
0F7800
1E7800
1E3C00
3C1E00
7C1FC0
780FC0
F007C0
0001C0
0001C0
0001C0
0001C0
0001C0
ENDCHAR
STARTCHAR 04B6
ENCODING 1206
SWIDTH 694 0
DWIDTH 25 0
BBX 22 30 2 -5
BITMAP
F001E0
F001E0
F001E0
F001E0
F001E0
F001E0
F001E0
F001E0
F001E0
F001E0
F801E0
7801E0
7E03E0
3FFFE0
1FFFE0
07FDE0
0001E0
0001E0
0001E0
0001E0
0001E0
0001E0
0001FC
0001FC
0001FC
00001C
00001C
00001C
00001C
00001C
ENDCHAR
STARTCHAR 04B7
ENCODING 1207
SWIDTH 583 0
DWIDTH 21 0
BBX 18 24 2 -5
BITMAP
F01E00
F01E00
F01E00
F01E00
F01E00
F01E00
F01E00
F01E00
F01E00
F83E00
7FFE00
7FDE00
1F9E00
001E00
001E00
001E00
001FC0
001FC0
001FC0
0001C0
0001C0
0001C0
0001C0
0001C0
ENDCHAR
STARTCHAR 04B8
ENCODING 1208
SWIDTH 666 0
DWIDTH 24 0
BBX 19 25 2 0
BITMAP
F001E0
F001E0
F001E0
F001E0
F001E0
F001E0
F001E0
F0E1E0
F0E1E0
F0E1E0
F8E1E0
78E1E0
7CE3E0
3FFFE0
1FFFE0
07FDE0
00E1E0
00E1E0
00E1E0
00E1E0
00E1E0
0001E0
0001E0
0001E0
0001E0
ENDCHAR
STARTCHAR 04B9
ENCODING 1209
SWIDTH 555 0
DWIDTH 20 0
BBX 15 19 2 0
BITMAP
F00E
F00E
F00E
F00E
F38E
F38E
F38E
F39E
FB9E
7FFE
7FEE
1FCE
038E
038E
038E
000E
000E
000E
000E
ENDCHAR
STARTCHAR 04BA
ENCODING 1210
SWIDTH 666 0
DWIDTH 24 0
BBX 19 25 3 0
BITMAP
F00000
F00000
F00000
F00000
F00000
F00000
F00000
F00000
F00000
F7FC00
FFFF00
FFFF80
F80FC0
F007C0
F003C0
F003E0
F001E0
F001E0
F001E0
F001E0
F001E0
F001E0
F001E0
F001E0
F001E0
ENDCHAR
STARTCHAR 04BB
ENCODING 1211
SWIDTH 583 0
DWIDTH 21 0
BBX 15 27 3 0
BITMAP
F000
F000
F000
F000
F000
F000
F000
F000
F3F0
F7F8
FFFC
FC3E
F01E
F01E
F01E
F01E
F01E
F01E
F01E
F01E
F01E
F01E
F01E
F01E
F01E
F01E
F01E
ENDCHAR
STARTCHAR 04C0
ENCODING 1216
SWIDTH 416 0
DWIDTH 15 0
BBX 11 25 2 0
BITMAP
FFE0
FFE0
FFE0
1F00
1F00
1F00
1F00
1F00
1F00
1F00
1F00
1F00
1F00
1F00
1F00
1F00
1F00
1F00
1F00
1F00
1F00
1F00
FFE0
FFE0
FFE0
ENDCHAR
STARTCHAR 04C1
ENCODING 1217
SWIDTH 1000 0
DWIDTH 36 0
BBX 32 33 2 0
BITMAP
00081000
00383C00
003C3800
001FF800
000FF000
0007E000
00000000
00000000
F003C01F
F803C03F
FC03C03F
1C03C078
1E03C078
1E03C0F0
0F03C0F0
0F03C1E0
0783C1E0
0783C1E0
03C3C3C0
03FFFF80
00FFFF00
03FFFFC0
07C3C3C0
0783C1E0
0F83C1E0
0F03C0F0
1F03C0F0
1E03C078
3E03C078
3C03C03C
FC03C03F
F803C01F
F003C00F
ENDCHAR
STARTCHAR 04C2
ENCODING 1218
SWIDTH 805 0
DWIDTH 29 0
BBX 27 27 1 0
BITMAP
0060C000
01E0F000
00F1E000
007FE000
007FC000
001F0000
00000000
00000000
780F01C0
7C0F07C0
7C0F07C0
1E0F0F00
1E0F0F00
0F0F0E00
0F0F1E00
078F1C00
07FFFC00
01FFF000
07FFFC00
0F0F1E00
0F0F1E00
0F0F0F00
1E0F0F00
1E0F0700
FC0F07E0
FC0F03E0
F80F01E0
ENDCHAR
STARTCHAR 04CF
ENCODING 1231
SWIDTH 277 0
DWIDTH 10 0
BBX 4 27 3 0
BITMAP
F0
F0
F0
F0
F0
F0
F0
F0
F0
F0
F0
F0
F0
F0
F0
F0
F0
F0
F0
F0
F0
F0
F0
F0
F0
F0
F0
ENDCHAR
STARTCHAR 04D0
ENCODING 1232
SWIDTH 666 0
DWIDTH 24 0
BBX 22 33 1 0
BITMAP
010200
078780
078700
03FF00
01FE00
00FC00
000000
000000
00FC00
00FC00
01FC00
01FE00
01DE00
03DE00
03CF00
03CF00
078F00
078780
078780
0F0780
0F03C0
0F03C0
1E03C0
1FFFE0
1FFFE0
3FFFE0
3C00F0
3C00F0
7800F8
780078
780078
F0007C
F0003C
ENDCHAR
STARTCHAR 04D1
ENCODING 1233
SWIDTH 555 0
DWIDTH 20 0
BBX 18 27 1 0
BITMAP
0C1800
3C1E00
1C3C00
1FF800
0FF800
03E000
000000
000000
07F000
1FFC00
3FFE00
7C3E00
301E00
000F00
000F00
000F00
0FFF00
3FFF00
7FFF00
7C0F00
F80F00
F00F00
F81F00
783F00
7FFFC0
3FE7C0
0F83C0
ENDCHAR
STARTCHAR 04D2
ENCODING 1234
SWIDTH 666 0
DWIDTH 24 0
BBX 22 33 1 0
BITMAP
038700
078F80
07CF80
078F80
038700
000000
000000
000000
00FC00
00FC00
01FC00
01FE00
01DE00
03DE00
03CF00
03CF00
078F00
078780
078780
0F0780
0F03C0
0F03C0
1E03C0
1FFFE0
1FFFE0
3FFFE0
3C00F0
3C00F0
7800F8
780078
780078
F0007C
F0003C
ENDCHAR
STARTCHAR 04D3
ENCODING 1235
SWIDTH 555 0
DWIDTH 20 0
BBX 18 26 1 0
BITMAP
1E3C00
1E3C00
1E3C00
1E3C00
000000
000000
000000
07F000
1FFC00
3FFE00
7C3E00
301E00
000F00
000F00
000F00
0FFF00
3FFF00
7FFF00
7C0F00
F80F00
F00F00
F81F00
783F00
7FFFC0
3FE7C0
0F83C0
ENDCHAR
STARTCHAR 04D4
ENCODING 1236
SWIDTH 944 0
DWIDTH 34 0
BBX 31 25 0 0
BITMAP
000FFFFE
000FFFFE
001FFFFE
001DE000
003DE000
003DE000
0079E000
0079E000
00F1E000
00F1E000
01E1E000
01E1FFFC
03C1FFFC
03C1FFFC
0781E000
07FFE000
0FFFE000
0FFFE000
1E01E000
1E01E000
3C01E000
3C01E000
7801FFFE
7801FFFE
F001FFFE
ENDCHAR
STARTCHAR 04D5
ENCODING 1237
SWIDTH 861 0
DWIDTH 31 0
BBX 29 19 1 0
BITMAP
07E03E00
1FF8FF80
3FF9FFC0
7C3FC3E0
301F81F0
100F00F0
000F00F0
000F00F0
07FFFFF8
3FFFFFF8
7FFFFFF8
7C0F0000
780F0000
F00F0040
F81F8060
783BC1F0
7FF3FFE0
3FE1FFC0
0FC07F00
ENDCHAR
STARTCHAR 04D6
ENCODING 1238
SWIDTH 583 0
DWIDTH 21 0
BBX 16 33 3 0
BITMAP
0810
3C3C
3C3C
1FF8
0FF0
07E0
0000
0000
FFFF
FFFF
FFFF
F000
F000
F000
F000
F000
F000
F000
F000
FFFE
FFFE
FFFE
F000
F000
F000
F000
F000
F000
F000
F000
FFFF
FFFF
FFFF
ENDCHAR
STARTCHAR 04D7
ENCODING 1239
SWIDTH 555 0
DWIDTH 20 0
BBX 16 27 2 0
BITMAP
0810
3C1C
1C3C
1FF8
0FF0
07E0
0000
0000
07E0
1FF8
3FFC
7C3E
781E
F00F
F00F
F00F
FFFF
FFFF
FFFF
F000
F000
F004
7806
7C1F
3FFE
1FFC
07F0
ENDCHAR
STARTCHAR 04D8
ENCODING 1240
SWIDTH 722 0
DWIDTH 26 0
BBX 22 25 2 0
BITMAP
01FC00
07FF80
0FFFC0
1F07E0
3E01F0
7C00F0
7800F8
180078
000078
000078
00007C
00007C
FFFFFC
FFFFFC
FFFFFC
F00078
F00078
F80078
780078
7C00F0
3E01F0
3F07E0
1FFFC0
07FF80
01FC00
ENDCHAR
STARTCHAR 04D9
ENCODING 1241
SWIDTH 555 0
DWIDTH 20 0
BBX 16 19 2 0
BITMAP
0FE0
3FF8
7FFC
F83E
301E
200F
000F
000F
FFFF
FFFF
FFFF
F00F
F00F
F00F
781E
7C3E
3FFC
1FF8
07E0
ENDCHAR
STARTCHAR 04DC
ENCODING 1244
SWIDTH 1000 0
DWIDTH 36 0
BBX 32 33 2 0
BITMAP
001C3800
003C7C00
003C7C00
003C7C00
001C3800
00000000
00000000
00000000
F003C01F
F803C03F
FC03C03F
1C03C078
1E03C078
1E03C0F0
0F03C0F0
0F03C1E0
0783C1E0
0783C1E0
03C3C3C0
03FFFF80
00FFFF00
03FFFFC0
07C3C3C0
0783C1E0
0F83C1E0
0F03C0F0
1F03C0F0
1E03C078
3E03C078
3C03C03C
FC03C03F
F803C01F
F003C00F
ENDCHAR
STARTCHAR 04DD
ENCODING 1245
SWIDTH 805 0
DWIDTH 29 0
BBX 27 26 1 0
BITMAP
00F1E000
00F1E000
00F1E000
00F1E000
00000000
00000000
00000000
780F01C0
7C0F07C0
7C0F07C0
1E0F0F00
1E0F0F00
0F0F0E00
0F0F1E00
078F1C00
07FFFC00
01FFF000
07FFFC00
0F0F1E00
0F0F1E00
0F0F0F00
1E0F0F00
1E0F0700
FC0F07E0
FC0F03E0
F80F01E0
ENDCHAR
STARTCHAR 04DE
ENCODING 1246
SWIDTH 611 0
DWIDTH 22 0
BBX 19 33 1 0
BITMAP
0E1E00
0F1E00
0F1E00
0F1E00
0E1E00
000000
000000
000000
03F800
1FFE00
3FFF80
7E0F80
3807C0
1003C0
0003C0
0003C0
0003C0
0007C0
000F80
03FE00
03FC00
03FF00
000FC0
0003C0
0003E0
0003E0
0003E0
3003C0
7803C0
FE0FC0
3FFF80
1FFE00
07F800
ENDCHAR
STARTCHAR 04DF
ENCODING 1247
SWIDTH 527 0
DWIDTH 19 0
BBX 16 26 1 0
BITMAP
3C38
3C7C
3C7C
3C38
0000
0000
0000
0FF0
3FFC
7FFC
F83E
701E
201E
001E
003E
07F8
07F0
07FC
001E
001F
200F
701F
F83E
7FFE
3FF8
0FE0
ENDCHAR
STARTCHAR 04E2
ENCODING 1250
SWIDTH 722 0
DWIDTH 26 0
BBX 20 32 3 0
BITMAP
07FE00
07FE00
07FE00
000000
000000
000000
000000
F000F0
F001F0
F003F0
F003F0
F007F0
F00FF0
F00EF0
F01EF0
F03CF0
F03CF0
F078F0
F0F8F0
F0F0F0
F1E0F0
F3E0F0
F3C0F0
F780F0
F780F0
FF00F0
FE00F0
FE00F0
FC00F0
F800F0
F800F0
F000F0
ENDCHAR
STARTCHAR 04E3
ENCODING 1251
SWIDTH 611 0
DWIDTH 22 0
BBX 16 26 3 0
BITMAP
1FF8
1FF8
1FF8
0000
0000
0000
0000
F00F
F01F
F03F
F03F
F07F
F0FF
F0EF
F1EF
F1CF
F3CF
F78F
E70F
EF0F
EE0F
FC0F
FC0F
F80F
F00F
F00F
ENDCHAR
STARTCHAR 04E4
ENCODING 1252
SWIDTH 722 0
DWIDTH 26 0
BBX 20 33 3 0
BITMAP
070E00
0F1F00
0F9F00
0F1F00
070E00
000000
000000
000000
F000F0
F001F0
F003F0
F003F0
F007F0
F00FF0
F00EF0
F01EF0
F03CF0
F03CF0
F078F0
F0F8F0
F0F0F0
F1E0F0
F3E0F0
F3C0F0
F780F0
F780F0
FF00F0
FE00F0
FE00F0
FC00F0
F800F0
F800F0
F000F0
ENDCHAR
STARTCHAR 04E5
ENCODING 1253
SWIDTH 611 0
DWIDTH 22 0
BBX 16 26 3 0
BITMAP
3C38
3C7C
3C7C
3C38
0000
0000
0000
F00F
F01F
F03F
F03F
F07F
F0FF
F0EF
F1EF
F1CF
F3CF
F78F
E70F
EF0F
EE0F
FC0F
FC0F
F80F
F00F
F00F
ENDCHAR
STARTCHAR 04E6
ENCODING 1254
SWIDTH 722 0
DWIDTH 26 0
BBX 22 33 2 0
BITMAP
038700
078F80
078F80
078F80
038700
000000
000000
000000
01FC00
07FF80
0FFFC0
1F07E0
3E01F0
7C00F0
7800F8
780078
F80078
F00078
F0007C
F0007C
F0007C
F0007C
F0007C
F00078
F00078
780078
7800F8
7C00F0
3E01F0
1F07E0
0FFFC0
07FF80
01FC00
ENDCHAR
STARTCHAR 04E7
ENCODING 1255
SWIDTH 555 0
DWIDTH 20 0
BBX 17 26 2 0
BITMAP
1C3C00
3E3C00
3E3C00
1C3C00
000000
000000
000000
07E000
1FF800
3FFC00
7C3E00
780F00
F00F00
F00F00
F00780
F00780
F00780
F00780
F00780
F00F00
F00F00
780F00
7C3E00
3FFC00
1FF800
07E000
ENDCHAR
STARTCHAR 04E8
ENCODING 1256
SWIDTH 722 0
DWIDTH 26 0
BBX 22 25 2 0
BITMAP
01FC00
07FF80
0FFFC0
1F07E0
3E01F0
7C00F0
7800F8
780078
F00078
F00078
F00078
FFFFFC
FFFFFC
FFFFFC
F00078
F00078
F00078
780078
780078
7C00F0
3E01F0
1F07E0
0FFFC0
07FF80
01FC00
ENDCHAR
STARTCHAR 04E9
ENCODING 1257
SWIDTH 555 0
DWIDTH 20 0
BBX 17 19 2 0
BITMAP
07E000
1FF800
3FFC00
7C3E00
780F00
F00F00
F00700
F00780
FFFF80
FFFF80
FFFF80
F00780
F00700
F00F00
780F00
7C3E00
3FFC00
1FF800
07E000
ENDCHAR
STARTCHAR 04EE
ENCODING 1262
SWIDTH 611 0
DWIDTH 22 0
BBX 20 32 1 0
BITMAP
07FF00
07FF00
07FF00
000000
000000
000000
000000
F000F0
F800F0
7801E0
7C01E0
3C03E0
3E03C0
1E03C0
1E0780
0F0780
0F0F00
078F00
078F00
03DE00
03DE00
03FC00
01FC00
01FC00
00F800
00F800
007000
00F000
00F000
0FE000
0FE000
0F8000
ENDCHAR
STARTCHAR 04EF
ENCODING 1263
SWIDTH 527 0
DWIDTH 19 0
BBX 18 33 0 -7
BITMAP
0FFE00
0FFE00
0FFE00
000000
000000
000000
000000
F803C0
7803C0
780780
3C0780
3C0780
3C0F00
1E0F00
1E0E00
1E1E00
0F1E00
0F1C00
0F3C00
073C00
07B800
07B800
03F800
03F000
03F000
01F000
01E000
01E000
01E000
03C000
1FC000
1F8000
1F0000
ENDCHAR
STARTCHAR 04F0
ENCODING 1264
SWIDTH 611 0
DWIDTH 22 0
BBX 20 33 1 0
BITMAP
070E00
0F8F00
0F8F00
0F8F00
070E00
000000
000000
000000
F000F0
F800F0
7801E0
7C01E0
3C03E0
3E03C0
1E03C0
1E0780
0F0780
0F0F00
078F00
078F00
03DE00
03DE00
03FC00
01FC00
01FC00
00F800
00F800
007000
00F000
00F000
0FE000
0FE000
0F8000
ENDCHAR
STARTCHAR 04F1
ENCODING 1265
SWIDTH 527 0
DWIDTH 19 0
BBX 18 33 0 -7
BITMAP
0F1E00
0F1E00
0F1E00
0F1E00
000000
000000
000000
F803C0
7803C0
780780
3C0780
3C0780
3C0F00
1E0F00
1E0E00
1E1E00
0F1E00
0F1C00
0F3C00
073C00
07B800
07B800
03F800
03F000
03F000
01F000
01E000
01E000
01E000
03C000
1FC000
1F8000
1F0000
ENDCHAR
STARTCHAR 04F2
ENCODING 1266
SWIDTH 611 0
DWIDTH 22 0
BBX 20 35 1 0
BITMAP
008200
00E380
01F3C0
01E780
03C700
038F00
070E00
030400
000000
000000
F000F0
F800F0
7801E0
7C01E0
3C03E0
3E03C0
1E03C0
1E0780
0F0780
0F0F00
078F00
078F00
03DE00
03DE00
03FC00
01FC00
01FC00
00F800
00F800
007000
00F000
00F000
0FE000
0FE000
0F8000
ENDCHAR
STARTCHAR 04F3
ENCODING 1267
SWIDTH 527 0
DWIDTH 19 0
BBX 18 36 0 -7
BITMAP
010400
01C700
03E780
03CF00
078E00
071E00
0F1C00
060800
000000
000000
F803C0
7803C0
780780
3C0780
3C0780
3C0F00
1E0F00
1E0E00
1E1E00
0F1E00
0F1C00
0F3C00
073C00
07B800
07B800
03F800
03F000
03F000
01F000
01E000
01E000
01E000
03C000
1FC000
1F8000
1F0000
ENDCHAR
STARTCHAR 04F4
ENCODING 1268
SWIDTH 666 0
DWIDTH 24 0
BBX 19 33 2 0
BITMAP
0E1E00
0F1E00
1F1E00
0F1E00
0E1C00
000000
000000
000000
F001E0
F001E0
F001E0
F001E0
F001E0
F001E0
F001E0
F001E0
F001E0
F001E0
F801E0
7801E0
7E03E0
3FFFE0
1FFFE0
07FDE0
0001E0
0001E0
0001E0
0001E0
0001E0
0001E0
0001E0
0001E0
0001E0
ENDCHAR
STARTCHAR 04F5
ENCODING 1269
SWIDTH 555 0
DWIDTH 20 0
BBX 15 26 2 0
BITMAP
3C78
3C78
3C78
3C78
0000
0000
0000
F01E
F01E
F01E
F01E
F01E
F01E
F01E
F01E
F01E
F83E
7FFE
7FDE
1F9E
001E
001E
001E
001E
001E
001E
ENDCHAR
STARTCHAR 04F8
ENCODING 1272
SWIDTH 888 0
DWIDTH 32 0
BBX 26 33 3 0
BITMAP
00E1C000
01F1E000
01F1E000
01F1E000
00E1C000
00000000
00000000
00000000
F00003C0
F00003C0
F00003C0
F00003C0
F00003C0
F00003C0
F00003C0
F00003C0
F00003C0
F00003C0
FFFC03C0
FFFF03C0
FFFF83C0
F007C3C0
F003C3C0
F003C3C0
F003C3C0
F003C3C0
F003C3C0
F003C3C0
F003C3C0
F007C3C0
FFFF83C0
FFFF03C0
FFFC03C0
ENDCHAR
STARTCHAR 04F9
ENCODING 1273
SWIDTH 750 0
DWIDTH 27 0
BBX 22 26 3 0
BITMAP
078700
078F00
078F80
078700
000000
000000
000000
F0003C
F0003C
F0003C
F0003C
F0003C
F0003C
FFE03C
FFF83C
FFFC3C
F03C3C
F01E3C
F01E3C
F01E3C
F01E3C
F01E3C
F03C3C
FFFC3C
FFF83C
FFE03C
ENDCHAR
STARTCHAR 0E3F
ENCODING 3647
SWIDTH 638 0
DWIDTH 23 0
BBX 19 31 3 -3
BITMAP
01C000
01C000
01C000
01C000
FFFC00
FFFF00
FFFF80
F1C780
F1C780
F1C3C0
F1C3C0
F1C3C0
F1C780
F1C780
FFFE00
FFFC00
FFFF80
F1C7C0
F1C3C0
F1C3C0
F1C3E0
F1C3C0
F1C3C0
F1C7C0
FFFF80
FFFF00
FFFE00
01C000
01C000
01C000
01C000
ENDCHAR
STARTCHAR 1E80
ENCODING 7808
SWIDTH 916 0
DWIDTH 33 0
BBX 31 35 1 0
BITMAP
00020000
000E0000
001F0000
000F0000
00078000
00038000
0003C000
00010000
00000000
00000000
F007C01E
F007C01E
F807E01E
7807E01E
780FE03C
780EE03C
780EF03C
3C0EF03C
3C1E7038
3C1C7078
3C1C7878
1C1C7878
1E3C3870
1E3838F0
1E383CF0
0E383CF0
0F781CE0
0F701CE0
0F701DE0
0F701FE0
07F00FC0
07E00FC0
07E00FC0
07E00FC0
03E00780
ENDCHAR
STARTCHAR 1E81
ENCODING 7809
SWIDTH 805 0
DWIDTH 29 0
BBX 27 29 1 0
BITMAP
00100000
00380000
00780000
003C0000
001C0000
001E0000
000E0000
00040000
00000000
00000000
F00E01E0
F01F01C0
701F01C0
781F03C0
783F83C0
783B8380
383B8380
3C3B8780
3C73C780
3C71C700
1C71C700
1CF1CF00
1EE0EF00
0EE0EE00
0EE0EE00
0FC0FE00
0FC07C00
07C07C00
07C07C00
ENDCHAR
STARTCHAR 1E82
ENCODING 7810
SWIDTH 916 0
DWIDTH 33 0
BBX 31 35 1 0
BITMAP
00008000
0000E000
0000F000
0001E000
0001E000
0003C000
00038000
00010000
00000000
00000000
F007C01E
F007C01E
F807E01E
7807E01E
780FE03C
780EE03C
780EF03C
3C0EF03C
3C1E7038
3C1C7078
3C1C7878
1C1C7878
1E3C3870
1E3838F0
1E383CF0
0E383CF0
0F781CE0
0F701CE0
0F701DE0
0F701FE0
07F00FC0
07E00FC0
07E00FC0
07E00FC0
03E00780
ENDCHAR
STARTCHAR 1E83
ENCODING 7811
SWIDTH 805 0
DWIDTH 29 0
BBX 27 29 1 0
BITMAP
00020000
00038000
0003C000
00078000
000F0000
000F0000
001E0000
00040000
00000000
00000000
F00E01E0
F01F01C0
701F01C0
781F03C0
783F83C0
783B8380
383B8380
3C3B8780
3C73C780
3C71C700
1C71C700
1CF1CF00
1EE0EF00
0EE0EE00
0EE0EE00
0FC0FE00
0FC07C00
07C07C00
07C07C00
ENDCHAR
STARTCHAR 1E84
ENCODING 7812
SWIDTH 916 0
DWIDTH 33 0
BBX 31 33 1 0
BITMAP
003C3800
003C7800
003C7C00
003C7800
001C3800
00000000
00000000
00000000
F007C01E
F007C01E
F807E01E
7807E01E
780FE03C
780EE03C
780EF03C
3C0EF03C
3C1E7038
3C1C7078
3C1C7878
1C1C7878
1E3C3870
1E3838F0
1E383CF0
0E383CF0
0F781CE0
0F701CE0
0F701DE0
0F701FE0
07F00FC0
07E00FC0
07E00FC0
07E00FC0
03E00780
ENDCHAR
STARTCHAR 1E85
ENCODING 7813
SWIDTH 805 0
DWIDTH 29 0
BBX 27 26 1 0
BITMAP
00F1E000
00F1E000
00F1E000
00F1E000
00000000
00000000
00000000
F00E01E0
F01F01C0
701F01C0
781F03C0
783F83C0
783B8380
383B8380
3C3B8780
3C73C780
3C71C700
1C71C700
1CF1CF00
1EE0EF00
0EE0EE00
0EE0EE00
0FC0FE00
0FC07C00
07C07C00
07C07C00
ENDCHAR
STARTCHAR 1E9E
ENCODING 7838
SWIDTH 722 0
DWIDTH 26 0
BBX 21 25 3 0
BITMAP
FFFFE0
FFFFE0
FFFFE0
F001E0
F003E0
F007C0
F00F80
F01F00
F01E00
F03C00
F07F00
F07FC0
F07FE0
F001F0
F000F8
F00078
F00078
F00078
F00078
F00078
F080F8
F1E1F0
F3FFE0
F1FFC0
F07F00
ENDCHAR
STARTCHAR 1EA0
ENCODING 7840
SWIDTH 666 0
DWIDTH 24 0
BBX 22 31 1 -6
BITMAP
00FC00
00FC00
01FC00
01FE00
01DE00
03DE00
03CF00
03CF00
078F00
078780
078780
0F0780
0F03C0
0F03C0
1E03C0
1FFFE0
1FFFE0
3FFFE0
3C00F0
3C00F0
7800F8
780078
780078
F0007C
F0003C
000000
000000
007800
007800
007800
007800
ENDCHAR
STARTCHAR 1EA1
ENCODING 7841
SWIDTH 555 0
DWIDTH 20 0
BBX 18 25 1 -6
BITMAP
07F000
1FFC00
3FFE00
7C3E00
301E00
000F00
000F00
000F00
0FFF00
3FFF00
7FFF00
7C0F00
F80F00
F00F00
F81F00
783F00
7FFFC0
3FE7C0
0F83C0
000000
000000
03C000
03C000
03C000
03C000
ENDCHAR
STARTCHAR 1EA2
ENCODING 7842
SWIDTH 666 0
DWIDTH 24 0
BBX 22 35 1 0
BITMAP
01FC00
01FE00
01FE00
001E00
001C00
003C00
003800
001000
000000
000000
00FC00
00FC00
01FC00
01FE00
01DE00
03DE00
03CF00
03CF00
078F00
078780
078780
0F0780
0F03C0
0F03C0
1E03C0
1FFFE0
1FFFE0
3FFFE0
3C00F0
3C00F0
7800F8
780078
780078
F0007C
F0003C
ENDCHAR
STARTCHAR 1EA3
ENCODING 7843
SWIDTH 555 0
DWIDTH 20 0
BBX 18 29 1 0
BITMAP
07E000
07F000
07F000
007000
00F000
00E000
01C000
00C000
000000
000000
07F000
1FFC00
3FFE00
7C3E00
301E00
000F00
000F00
000F00
0FFF00
3FFF00
7FFF00
7C0F00
F80F00
F00F00
F81F00
783F00
7FFFC0
3FE7C0
0F83C0
ENDCHAR
STARTCHAR 1EA4
ENCODING 7844
SWIDTH 666 0
DWIDTH 24 0
BBX 22 41 1 0
BITMAP
000040
000070
000078
0000F0
0000E0
0001C0
0001C0
007A80
00FC00
01FE00
03DF00
078F00
070380
020100
000000
000000
00FC00
00FC00
01FC00
01FE00
01DE00
03DE00
03CF00
03CF00
078F00
078780
078780
0F0780
0F03C0
0F03C0
1E03C0
1FFFE0
1FFFE0
3FFFE0
3C00F0
3C00F0
7800F8
780078
780078
F0007C
F0003C
ENDCHAR
STARTCHAR 1EA5
ENCODING 7845
SWIDTH 555 0
DWIDTH 20 0
BBX 18 34 1 0
BITMAP
000200
000180
0003C0
000380
000780
000700
000E00
03E600
07E000
0FF000
0F7800
1E3C00
3C1E00
180800
000000
07F000
1FFC00
3FFE00
7C3E00
301E00
000F00
000F00
000F00
0FFF00
3FFF00
7FFF00
7C0F00
F80F00
F00F00
F81F00
783F00
7FFFC0
3FE7C0
0F83C0
ENDCHAR
STARTCHAR 1EA6
ENCODING 7846
SWIDTH 666 0
DWIDTH 24 0
BBX 22 41 1 0
BITMAP
100000
380000
780000
3C0000
1C0000
1E0000
0E0000
047800
00FC00
01FE00
03DF00
078F00
070380
020100
000000
000000
00FC00
00FC00
01FC00
01FE00
01DE00
03DE00
03CF00
03CF00
078F00
078780
078780
0F0780
0F03C0
0F03C0
1E03C0
1FFFE0
1FFFE0
3FFFE0
3C00F0
3C00F0
7800F8
780078
780078
F0007C
F0003C
ENDCHAR
STARTCHAR 1EA7
ENCODING 7847
SWIDTH 555 0
DWIDTH 20 0
BBX 20 34 -1 0
BITMAP
200000
700000
F80000
780000
3C0000
1C0000
1E0000
0CF800
01F800
03FC00
03DE00
078F00
0F0780
060200
000000
01FC00
07FF00
0FFF80
1F0F80
0C0780
0003C0
0003C0
0003C0
03FFC0
0FFFC0
1FFFC0
1F03C0
3E03C0
3C03C0
3E07C0
1E0FC0
1FFFF0
0FF9F0
03E0F0
ENDCHAR
STARTCHAR 1EA8
ENCODING 7848
SWIDTH 666 0
DWIDTH 24 0
BBX 22 40 1 0
BITMAP
000FE0
000FF0
000FF0
000070
0000E0
0000E0
0079C0
00FC80
01FE00
03DF00
078F00
070380
020100
000000
000000
00FC00
00FC00
01FC00
01FE00
01DE00
03DE00
03CF00
03CF00
078F00
078780
078780
0F0780
0F03C0
0F03C0
1E03C0
1FFFE0
1FFFE0
3FFFE0
3C00F0
3C00F0
7800F8
780078
780078
F0007C
F0003C
ENDCHAR
STARTCHAR 1EA9
ENCODING 7849
SWIDTH 555 0
DWIDTH 20 0
BBX 18 33 1 0
BITMAP
003F00
003F80
003F80
000380
000380
000700
03E600
07EE00
0FF000
0F7800
1E3C00
3C1E00
180800
000000
07F000
1FFC00
3FFE00
7C3E00
301E00
000F00
000F00
000F00
0FFF00
3FFF00
7FFF00
7C0F00
F80F00
F00F00
F81F00
783F00
7FFFC0
3FE7C0
0F83C0
ENDCHAR
STARTCHAR 1EAA
ENCODING 7850
SWIDTH 666 0
DWIDTH 24 0
BBX 22 40 1 0
BITMAP
03C100
07F180
07FF80
063F00
040E00
000000
007800
00FC00
01FE00
03DF00
078F80
070380
020100
000000
000000
00FC00
00FC00
01FC00
01FE00
01DE00
03DE00
03CF00
03CF00
078F00
078780
078780
0F0780
0F03C0
0F03C0
1E03C0
1FFFE0
1FFFE0
3FFFE0
3C00F0
3C00F0
7800F8
780078
780078
F0007C
F0003C
ENDCHAR
STARTCHAR 1EAB
ENCODING 7851
SWIDTH 555 0
DWIDTH 20 0
BBX 18 33 1 0
BITMAP
0F0400
1F8C00
3FFE00
31FC00
107800
000000
03E000
07E000
0FF000
0F7800
1E3C00
3C1E00
180800
000000
07F000
1FFC00
3FFE00
7C3E00
301E00
000F00
000F00
000F00
0FFF00
3FFF00
7FFF00
7C0F00
F80F00
F00F00
F81F00
783F00
7FFFC0
3FE7C0
0F83C0
ENDCHAR
STARTCHAR 1EAC
ENCODING 7852
SWIDTH 666 0
DWIDTH 24 0
BBX 22 40 1 -6
BITMAP
00F800
00FC00
01FE00
03DF00
078F00
070380
020100
000000
000000
00FC00
00FC00
01FC00
01FE00
01DE00
03DE00
03CF00
03CF00
078F00
078780
078780
0F0780
0F03C0
0F03C0
1E03C0
1FFFE0
1FFFE0
3FFFE0
3C00F0
3C00F0
7800F8
780078
780078
F0007C
F0003C
000000
000000
007800
007800
007800
007800
ENDCHAR
STARTCHAR 1EAD
ENCODING 7853
SWIDTH 555 0
DWIDTH 20 0
BBX 18 34 1 -6
BITMAP
03E000
07F000
0FF000
0F7800
1E3C00
3C1E00
180800
000000
000000
07F000
1FFC00
3FFE00
7C3E00
301E00
000F00
000F00
000F00
0FFF00
3FFF00
7FFF00
7C0F00
F80F00
F00F00
F81F00
783F00
7FFFC0
3FE7C0
0F83C0
000000
000000
03C000
03C000
03C000
03C000
ENDCHAR
STARTCHAR 1EAE
ENCODING 7854
SWIDTH 666 0
DWIDTH 24 0
BBX 22 40 1 0
BITMAP
001000
000C00
001E00
001C00
003C00
003800
007000
023100
070380
078780
03FF00
01FE00
00FC00
000000
000000
00FC00
00FC00
01FC00
01FE00
01DE00
03DE00
03CF00
03CF00
078F00
078780
078780
0F0780
0F03C0
0F03C0
1E03C0
1FFFE0
1FFFE0
3FFFE0
3C00F0
3C00F0
7800F8
780078
780078
F0007C
F0003C
ENDCHAR
STARTCHAR 1EAF
ENCODING 7855
SWIDTH 555 0
DWIDTH 20 0
BBX 18 33 1 0
BITMAP
004000
007000
007800
00F000
00E000
01C000
01C000
1A8800
381E00
1C3C00
1FF800
0FF000
03E000
000000
07F000
1FFC00
3FFE00
7C3E00
301E00
000F00
000F00
000F00
0FFF00
3FFF00
7FFF00
7C0F00
F80F00
F00F00
F81F00
783F00
7FFFC0
3FE7C0
0F83C0
ENDCHAR
STARTCHAR 1EB0
ENCODING 7856
SWIDTH 666 0
DWIDTH 24 0
BBX 22 40 1 0
BITMAP
004000
01C000
03E000
01E000
00F000
007000
007800
022100
070380
078780
03FF00
01FE00
00FC00
000000
000000
00FC00
00FC00
01FC00
01FE00
01DE00
03DE00
03CF00
03CF00
078F00
078780
078780
0F0780
0F03C0
0F03C0
1E03C0
1FFFE0
1FFFE0
3FFFE0
3C00F0
3C00F0
7800F8
780078
780078
F0007C
F0003C
ENDCHAR
STARTCHAR 1EB1
ENCODING 7857
SWIDTH 555 0
DWIDTH 20 0
BBX 18 33 1 0
BITMAP
020000
060000
0F0000
070000
078000
038000
01C000
188800
381E00
1C3C00
1FF800
0FF000
03E000
000000
07F000
1FFC00
3FFE00
7C3E00
301E00
000F00
000F00
000F00
0FFF00
3FFF00
7FFF00
7C0F00
F80F00
F00F00
F81F00
783F00
7FFFC0
3FE7C0
0F83C0
ENDCHAR
STARTCHAR 1EB2
ENCODING 7858
SWIDTH 666 0
DWIDTH 24 0
BBX 22 40 1 0
BITMAP
01F800
01FC00
01FC00
001C00
003800
003800
007000
023100
070380
078780
03FF00
01FE00
00FC00
000000
000000
00FC00
00FC00
01FC00
01FE00
01DE00
03DE00
03CF00
03CF00
078F00
078780
078780
0F0780
0F03C0
0F03C0
1E03C0
1FFFE0
1FFFE0
3FFFE0
3C00F0
3C00F0
7800F8
780078
780078
F0007C
F0003C
ENDCHAR
STARTCHAR 1EB3
ENCODING 7859
SWIDTH 555 0
DWIDTH 20 0
BBX 18 33 1 0
BITMAP
0FE000
0FE000
0FE000
00E000
00E000
01C000
01C000
188800
381E00
1C3C00
1FF800
0FF000
03E000
000000
07F000
1FFC00
3FFE00
7C3E00
301E00
000F00
000F00
000F00
0FFF00
3FFF00
7FFF00
7C0F00
F80F00
F00F00
F81F00
783F00
7FFFC0
3FE7C0
0F83C0
ENDCHAR
STARTCHAR 1EB4
ENCODING 7860
SWIDTH 666 0
DWIDTH 24 0
BBX 22 39 1 0
BITMAP
03C100
07F180
07FF80
063F00
040E00
000000
020100
070380
078780
03FF00
01FE00
00FC00
000000
000000
00FC00
00FC00
01FC00
01FE00
01DE00
03DE00
03CF00
03CF00
078F00
078780
078780
0F0780
0F03C0
0F03C0
1E03C0
1FFFE0
1FFFE0
3FFFE0
3C00F0
3C00F0
7800F8
780078
780078
F0007C
F0003C
ENDCHAR
STARTCHAR 1EB5
ENCODING 7861
SWIDTH 555 0
DWIDTH 20 0
BBX 18 32 1 0
BITMAP
0F0400
1F8C00
3FFE00
11FC00
107800
000000
180800
381E00
1C3C00
1FF800
0FF000
03E000
000000
07F000
1FFC00
3FFE00
7C3E00
301E00
000F00
000F00
000F00
0FFF00
3FFF00
7FFF00
7C0F00
F80F00
F00F00
F81F00
783F00
7FFFC0
3FE7C0
0F83C0
ENDCHAR
STARTCHAR 1EB6
ENCODING 7862
SWIDTH 666 0
DWIDTH 24 0
BBX 22 39 1 -6
BITMAP
020300
070380
078700
03FF00
01FE00
00F800
000000
000000
00FC00
00FC00
01FC00
01FE00
01DE00
03DE00
03CF00
03CF00
078F00
078780
078780
0F0780
0F03C0
0F03C0
1E03C0
1FFFE0
1FFFE0
3FFFE0
3C00F0
3C00F0
7800F8
780078
780078
F0007C
F0003C
000000
000000
007800
007800
007800
007800
ENDCHAR
STARTCHAR 1EB7
ENCODING 7863
SWIDTH 555 0
DWIDTH 20 0
BBX 18 33 1 -6
BITMAP
180800
3C1C00
1E3C00
1FF800
0FF000
03E000
000000
000000
07F000
1FFC00
3FFE00
7C3E00
301E00
000F00
000F00
000F00
0FFF00
3FFF00
7FFF00
7C0F00
F80F00
F00F00
F81F00
783F00
7FFFC0
3FE7C0
0F83C0
000000
000000
03C000
03C000
03C000
03C000
ENDCHAR
STARTCHAR 1EB8
ENCODING 7864
SWIDTH 583 0
DWIDTH 21 0
BBX 16 31 3 -6
BITMAP
FFFF
FFFF
FFFF
F000
F000
F000
F000
F000
F000
F000
F000
FFFE
FFFE
FFFE
F000
F000
F000
F000
F000
F000
F000
F000
FFFF
FFFF
FFFF
0000
0000
03C0
03C0
03C0
03C0
ENDCHAR
STARTCHAR 1EB9
ENCODING 7865
SWIDTH 555 0
DWIDTH 20 0
BBX 16 25 2 -6
BITMAP
07E0
1FF8
3FFC
7C3E
781E
F00F
F00F
F00F
FFFF
FFFF
FFFF
F000
F000
F004
7806
7C1F
3FFE
1FFC
07F0
0000
0000
03C0
03C0
03C0
03C0
ENDCHAR
STARTCHAR 1EBA
ENCODING 7866
SWIDTH 583 0
DWIDTH 21 0
BBX 16 35 3 0
BITMAP
07E0
07F0
07F0
0070
00E0
00E0
01C0
00C0
0000
0000
FFFF
FFFF
FFFF
F000
F000
F000
F000
F000
F000
F000
F000
FFFE
FFFE
FFFE
F000
F000
F000
F000
F000
F000
F000
F000
FFFF
FFFF
FFFF
ENDCHAR
STARTCHAR 1EBB
ENCODING 7867
SWIDTH 555 0
DWIDTH 20 0
BBX 16 29 2 0
BITMAP
07E0
07F0
07F0
0070
00F0
00E0
01C0
00C0
0000
0000
07E0
1FF8
3FFC
7C3E
781E
F00F
F00F
F00F
FFFF
FFFF
FFFF
F000
F000
F004
7806
7C1F
3FFE
1FFC
07F0
ENDCHAR
STARTCHAR 1EBC
ENCODING 7868
SWIDTH 583 0
DWIDTH 21 0
BBX 16 33 3 0
BITMAP
0E08
3F8C
3FFE
31FC
1078
0000
0000
0000
FFFF
FFFF
FFFF
F000
F000
F000
F000
F000
F000
F000
F000
FFFE
FFFE
FFFE
F000
F000
F000
F000
F000
F000
F000
F000
FFFF
FFFF
FFFF
ENDCHAR
STARTCHAR 1EBD
ENCODING 7869
SWIDTH 555 0
DWIDTH 20 0
BBX 16 27 2 0
BITMAP
0E08
1F8C
3FFE
31FC
1078
0000
0000
0000
07E0
1FF8
3FFC
7C3E
781E
F00F
F00F
F00F
FFFF
FFFF
FFFF
F000
F000
F004
7806
7C1F
3FFE
1FFC
07F0
ENDCHAR
STARTCHAR 1EBE
ENCODING 7870
SWIDTH 583 0
DWIDTH 21 0
BBX 18 41 3 0
BITMAP
000200
000380
0003C0
000780
000700
000F00
000E00
03C400
07E000
0FF000
1F7800
1E3C00
381C00
100800
000000
000000
FFFF00
FFFF00
FFFF00
F00000
F00000
F00000
F00000
F00000
F00000
F00000
F00000
FFFE00
FFFE00
FFFE00
F00000
F00000
F00000
F00000
F00000
F00000
F00000
F00000
FFFF00
FFFF00
FFFF00
ENDCHAR
STARTCHAR 1EBF
ENCODING 7871
SWIDTH 555 0
DWIDTH 20 0
BBX 18 34 2 0
BITMAP
000200
000180
0003C0
000380
000780
000F00
000E00
03C400
07E000
0FF000
1F7800
1E3C00
381C00
100800
000000
07E000
1FF800
3FFC00
7C3E00
781E00
F00F00
F00F00
F00F00
FFFF00
FFFF00
FFFF00
F00000
F00000
F00400
780600
7C1F00
3FFE00
1FFC00
07F000
ENDCHAR
STARTCHAR 1EC0
ENCODING 7872
SWIDTH 583 0
DWIDTH 21 0
BBX 18 41 1 0
BITMAP
200000
700000
F00000
780000
380000
1C0000
1C0000
0AF000
01F800
03FC00
07DE00
078F00
0E0700
040200
000000
000000
3FFFC0
3FFFC0
3FFFC0
3C0000
3C0000
3C0000
3C0000
3C0000
3C0000
3C0000
3C0000
3FFF80
3FFF80
3FFF80
3C0000
3C0000
3C0000
3C0000
3C0000
3C0000
3C0000
3C0000
3FFFC0
3FFFC0
3FFFC0
ENDCHAR
STARTCHAR 1EC1
ENCODING 7873
SWIDTH 555 0
DWIDTH 20 0
BBX 18 34 0 0
BITMAP
200000
700000
F00000
780000
380000
1C0000
1C0000
0AF000
01F800
03FC00
07DE00
078F00
0E0700
040200
000000
01F800
07FE00
0FFF00
1F0F80
1E0780
3C03C0
3C03C0
3C03C0
3FFFC0
3FFFC0
3FFFC0
3C0000
3C0000
3C0100
1E0180
1F07C0
0FFF80
07FF00
01FC00
ENDCHAR
STARTCHAR 1EC2
ENCODING 7874
SWIDTH 583 0
DWIDTH 21 0
BBX 17 40 3 0
BITMAP
003F00
003F80
003F80
000380
000700
000700
03CE00
07E400
0FF000
1F7800
1E3C00
381C00
100800
000000
000000
FFFF00
FFFF00
FFFF00
F00000
F00000
F00000
F00000
F00000
F00000
F00000
F00000
FFFE00
FFFE00
FFFE00
F00000
F00000
F00000
F00000
F00000
F00000
F00000
F00000
FFFF00
FFFF00
FFFF00
ENDCHAR
STARTCHAR 1EC3
ENCODING 7875
SWIDTH 555 0
DWIDTH 20 0
BBX 17 33 2 0
BITMAP
003F00
003F80
003F80
000380
000780
000700
03CE00
07E600
0FF000
1F7800
1E3C00
381C00
100800
000000
07E000
1FF800
3FFC00
7C3E00
781E00
F00F00
F00F00
F00F00
FFFF00
FFFF00
FFFF00
F00000
F00000
F00400
780600
7C1F00
3FFE00
1FFC00
07F000
ENDCHAR
STARTCHAR 1EC4
ENCODING 7876
SWIDTH 583 0
DWIDTH 21 0
BBX 16 40 3 0
BITMAP
0E08
1F8C
3FFC
31FC
2078
0000
03C0
07E0
0FF0
1F78
1E3C
381C
1008
0000
0000
FFFF
FFFF
FFFF
F000
F000
F000
F000
F000
F000
F000
F000
FFFE
FFFE
FFFE
F000
F000
F000
F000
F000
F000
F000
F000
FFFF
FFFF
FFFF
ENDCHAR
STARTCHAR 1EC5
ENCODING 7877
SWIDTH 555 0
DWIDTH 20 0
BBX 16 33 2 0
BITMAP
0E08
1F8C
3FFE
31FC
1078
0000
03C0
07E0
0FF0
1F78
1E3C
381C
1008
0000
07E0
1FF8
3FFC
7C3E
781E
F00F
F00F
F00F
FFFF
FFFF
FFFF
F000
F000
F004
7806
7C1F
3FFE
1FFC
07F0
ENDCHAR
STARTCHAR 1EC6
ENCODING 7878
SWIDTH 583 0
DWIDTH 21 0
BBX 16 40 3 -6
BITMAP
03E0
07E0
0FF0
1F78
1E3C
381C
1008
0000
0000
FFFF
FFFF
FFFF
F000
F000
F000
F000
F000
F000
F000
F000
FFFE
FFFE
FFFE
F000
F000
F000
F000
F000
F000
F000
F000
FFFF
FFFF
FFFF
0000
0000
03C0
03C0
03C0
03C0
ENDCHAR
STARTCHAR 1EC7
ENCODING 7879
SWIDTH 555 0
DWIDTH 20 0
BBX 16 34 2 -6
BITMAP
03E0
07E0
0FF0
1F78
1E3C
3C1E
1008
0000
0000
07E0
1FF8
3FFC
7C3E
781E
F00F
F00F
F00F
FFFF
FFFF
FFFF
F000
F000
F004
7806
7C1F
3FFE
1FFC
07F0
0000
0000
03C0
03C0
03C0
03C0
ENDCHAR
STARTCHAR 1EC8
ENCODING 7880
SWIDTH 416 0
DWIDTH 15 0
BBX 11 35 2 0
BITMAP
3F00
3F80
3F80
0380
0780
0700
0700
0A00
0000
0000
FFE0
FFE0
FFE0
1F00
1F00
1F00
1F00
1F00
1F00
1F00
1F00
1F00
1F00
1F00
1F00
1F00
1F00
1F00
1F00
1F00
1F00
1F00
FFE0
FFE0
FFE0
ENDCHAR
STARTCHAR 1EC9
ENCODING 7881
SWIDTH 277 0
DWIDTH 10 0
BBX 8 29 1 0
BITMAP
FE
FE
FF
0E
0E
1E
1C
08
00
00
3C
3C
3C
3C
3C
3C
3C
3C
3C
3C
3C
3C
3C
3C
3C
3C
3C
3C
3C
ENDCHAR
STARTCHAR 1ECA
ENCODING 7882
SWIDTH 416 0
DWIDTH 15 0
BBX 11 31 2 -6
BITMAP
FFE0
FFE0
FFE0
1F00
1F00
1F00
1F00
1F00
1F00
1F00
1F00
1F00
1F00
1F00
1F00
1F00
1F00
1F00
1F00
1F00
1F00
1F00
FFE0
FFE0
FFE0
0000
0000
0E00
1F00
1F00
0E00
ENDCHAR
STARTCHAR 1ECB
ENCODING 7883
SWIDTH 277 0
DWIDTH 10 0
BBX 5 33 2 -6
BITMAP
70
78
F8
78
70
00
00
00
78
78
78
78
78
78
78
78
78
78
78
78
78
78
78
78
78
78
78
00
00
78
F8
78
78
ENDCHAR
STARTCHAR 1ECC
ENCODING 7884
SWIDTH 722 0
DWIDTH 26 0
BBX 22 31 2 -6
BITMAP
01FC00
07FF80
0FFFC0
1F07E0
3E01F0
7C00F0
7800F8
780078
F80078
F00078
F0007C
F0007C
F0007C
F0007C
F0007C
F00078
F00078
780078
7800F8
7C00F0
3E01F0
1F07E0
0FFFC0
07FF80
01FC00
000000
000000
007800
007800
007800
007800
ENDCHAR
STARTCHAR 1ECD
ENCODING 7885
SWIDTH 555 0
DWIDTH 20 0
BBX 17 25 2 -6
BITMAP
07E000
1FF800
3FFC00
7C3E00
780F00
F00F00
F00F00
F00780
F00780
F00780
F00780
F00780
F00F00
F00F00
780F00
7C3E00
3FFC00
1FF800
07E000
000000
000000
03C000
03C000
03C000
03C000
ENDCHAR
STARTCHAR 1ECE
ENCODING 7886
SWIDTH 722 0
DWIDTH 26 0
BBX 22 35 2 0
BITMAP
01FC00
01FC00
01FE00
001C00
001C00
003C00
003800
001000
000000
000000
01FC00
07FF80
0FFFC0
1F07E0
3E01F0
7C00F0
7800F8
780078
F80078
F00078
F0007C
F0007C
F0007C
F0007C
F0007C
F00078
F00078
780078
7800F8
7C00F0
3E01F0
1F07E0
0FFFC0
07FF80
01FC00
ENDCHAR
STARTCHAR 1ECF
ENCODING 7887
SWIDTH 555 0
DWIDTH 20 0
BBX 17 29 2 0
BITMAP
07E000
07F000
07F000
007000
00E000
00E000
01C000
00C000
000000
000000
07E000
1FF800
3FFC00
7C3E00
780F00
F00F00
F00F00
F00780
F00780
F00780
F00780
F00780
F00F00
F00F00
780F00
7C3E00
3FFC00
1FF800
07E000
ENDCHAR
STARTCHAR 1ED0
ENCODING 7888
SWIDTH 722 0
DWIDTH 26 0
BBX 22 41 2 0
BITMAP
000040
000070
000078
0000F0
0000E0
0001C0
0001C0
007A80
00FC00
01FE00
03DF00
078F00
070380
020100
000000
000000
01FC00
07FF80
0FFFC0
1F07E0
3E01F0
7C00F0
7800F8
780078
F80078
F00078
F0007C
F0007C
F0007C
F0007C
F0007C
F00078
F00078
780078
7800F8
7C00F0
3E01F0
1F07E0
0FFFC0
07FF80
01FC00
ENDCHAR
STARTCHAR 1ED1
ENCODING 7889
SWIDTH 555 0
DWIDTH 20 0
BBX 18 34 2 0
BITMAP
000200
000380
0003C0
000780
000700
000F00
000E00
03C400
07E000
0FF000
1F7800
1C3C00
381C00
100800
000000
07E000
1FF800
3FFC00
7C3E00
780F00
F00F00
F00F00
F00780
F00780
F00780
F00780
F00780
F00F00
F00F00
780F00
7C3E00
3FFC00
1FF800
07E000
ENDCHAR
STARTCHAR 1ED2
ENCODING 7890
SWIDTH 722 0
DWIDTH 26 0
BBX 22 41 2 0
BITMAP
100000
300000
780000
380000
3C0000
1C0000
0E0000
047800
00FC00
01FE00
03DF00
078F00
070380
020100
000000
000000
01FC00
07FF80
0FFFC0
1F07E0
3E01F0
7C00F0
7800F8
780078
F80078
F00078
F0007C
F0007C
F0007C
F0007C
F0007C
F00078
F00078
780078
7800F8
7C00F0
3E01F0
1F07E0
0FFFC0
07FF80
01FC00
ENDCHAR
STARTCHAR 1ED3
ENCODING 7891
SWIDTH 555 0
DWIDTH 20 0
BBX 19 34 0 0
BITMAP
200000
700000
F00000
780000
380000
3C0000
1C0000
0AF000
01F800
03FC00
07DE00
070F00
0E0700
040200
000000
01F800
07FE00
0FFF00
1F0F80
1E03C0
3C03C0
3C03C0
3C01E0
3C01E0
3C01E0
3C01E0
3C01E0
3C03C0
3C03C0
1E03C0
1F0F80
0FFF00
07FE00
01F800
ENDCHAR
STARTCHAR 1ED4
ENCODING 7892
SWIDTH 722 0
DWIDTH 26 0
BBX 22 40 2 0
BITMAP
000FE0
000FF0
000FF0
000070
0000E0
0000E0
0079C0
00FC80
01FE00
03DF00
078F00
070380
020100
000000
000000
01FC00
07FF80
0FFFC0
1F07E0
3E01F0
7C00F0
7800F8
780078
F80078
F00078
F0007C
F0007C
F0007C
F0007C
F0007C
F00078
F00078
780078
7800F8
7C00F0
3E01F0
1F07E0
0FFFC0
07FF80
01FC00
ENDCHAR
STARTCHAR 1ED5
ENCODING 7893
SWIDTH 555 0
DWIDTH 20 0
BBX 17 33 2 0
BITMAP
003F00
003F80
003F80
000380
000700
000700
03CE00
07E400
0FF000
1F7800
1C3C00
381C00
100800
000000
07E000
1FF800
3FFC00
7C3E00
780F00
F00F00
F00F00
F00780
F00780
F00780
F00780
F00780
F00F00
F00F00
780F00
7C3E00
3FFC00
1FF800
07E000
ENDCHAR
STARTCHAR 1ED6
ENCODING 7894
SWIDTH 722 0
DWIDTH 26 0
BBX 22 40 2 0
BITMAP
03C100
07F180
07FF80
0E3F00
040E00
000000
007800
00FC00
01FE00
03DF00
078F00
070380
020100
000000
000000
01FC00
07FF80
0FFFC0
1F07E0
3E01F0
7C00F0
7800F8
780078
F80078
F00078
F0007C
F0007C
F0007C
F0007C
F0007C
F00078
F00078
780078
7800F8
7C00F0
3E01F0
1F07E0
0FFFC0
07FF80
01FC00
ENDCHAR
STARTCHAR 1ED7
ENCODING 7895
SWIDTH 555 0
DWIDTH 20 0
BBX 17 33 2 0
BITMAP
0E0800
1F8C00
3FFC00
31FC00
207800
000000
03C000
07E000
0FF000
1F7800
3C3C00
381C00
100800
000000
07E000
1FF800
3FFC00
7C3E00
780F00
F00F00
F00F00
F00780
F00780
F00780
F00780
F00780
F00F00
F00F00
780F00
7C3E00
3FFC00
1FF800
07E000
ENDCHAR
STARTCHAR 1ED8
ENCODING 7896
SWIDTH 722 0
DWIDTH 26 0
BBX 22 40 2 -6
BITMAP
00F800
00FC00
01FE00
03DF00
078F00
070780
020100
000000
000000
01FC00
07FF80
0FFFC0
1F07E0
3E01F0
7C00F0
7800F8
780078
F80078
F00078
F0007C
F0007C
F0007C
F0007C
F0007C
F00078
F00078
780078
7800F8
7C00F0
3E01F0
1F07E0
0FFFC0
07FF80
01FC00
000000
000000
007800
007800
007800
007800
ENDCHAR
STARTCHAR 1ED9
ENCODING 7897
SWIDTH 555 0
DWIDTH 20 0
BBX 17 34 2 -6
BITMAP
03E000
07E000
0FF000
1F7800
1E3C00
381C00
100800
000000
000000
07E000
1FF800
3FFC00
7C3E00
780F00
F00F00
F00F00
F00780
F00780
F00780
F00780
F00780
F00F00
F00F00
780F00
7C3E00
3FFC00
1FF800
07E000
000000
000000
03C000
03C000
03C000
03C000
ENDCHAR
STARTCHAR 1EDA
ENCODING 7898
SWIDTH 722 0
DWIDTH 26 0
BBX 22 35 2 0
BITMAP
001000
001C00
001E00
003C00
003C00
007800
00701C
00301C
00001C
00001C
01FFFC
07FFF8
0FFFE0
1F07E0
3E01F0
7C00F8
7800F8
780078
F80078
F0007C
F0007C
F0007C
F0007C
F0007C
F0007C
F00078
F00078
780078
7800F8
7C00F0
3E01F0
1F07E0
0FFFC0
07FF80
01FC00
ENDCHAR
STARTCHAR 1EDB
ENCODING 7899
SWIDTH 555 0
DWIDTH 20 0
BBX 17 29 2 0
BITMAP
004000
007000
00F800
00F000
01E000
01C000
03C380
018380
000380
000380
07FF80
1FFF00
3FFE00
7C3F00
780F00
F00F00
F00F80
F00780
F00780
F00780
F00780
F00780
F00F00
F00F00
780F00
7C3E00
3FFC00
1FF800
07E000
ENDCHAR
STARTCHAR 1EDC
ENCODING 7900
SWIDTH 722 0
DWIDTH 26 0
BBX 22 35 2 0
BITMAP
004000
01C000
03E000
01E000
00F000
007000
00781C
00301C
00001C
00001C
01FFFC
07FFF8
0FFFE0
1F07E0
3E01F0
7C00F8
7800F8
780078
F80078
F0007C
F0007C
F0007C
F0007C
F0007C
F0007C
F00078
F00078
780078
7800F8
7C00F0
3E01F0
1F07E0
0FFFC0
07FF80
01FC00
ENDCHAR
STARTCHAR 1EDD
ENCODING 7901
SWIDTH 555 0
DWIDTH 20 0
BBX 17 29 2 0
BITMAP
020000
070000
0F0000
078000
078000
03C000
01C380
018380
000380
000380
07FF80
1FFF00
3FFE00
7C3F00
780F00
F00F00
F00F80
F00780
F00780
F00780
F00780
F00780
F00F00
F00F00
780F00
7C3E00
3FFC00
1FF800
07E000
ENDCHAR
STARTCHAR 1EDE
ENCODING 7902
SWIDTH 722 0
DWIDTH 26 0
BBX 22 35 2 0
BITMAP
01FC00
01FC00
01FE00
001C00
001C00
003C00
00381C
00101C
00001C
00001C
01FFFC
07FFF8
0FFFE0
1F07E0
3E01F0
7C00F8
7800F8
780078
F80078
F0007C
F0007C
F0007C
F0007C
F0007C
F0007C
F00078
F00078
780078
7800F8
7C00F0
3E01F0
1F07E0
0FFFC0
07FF80
01FC00
ENDCHAR
STARTCHAR 1EDF
ENCODING 7903
SWIDTH 555 0
DWIDTH 20 0
BBX 17 29 2 0
BITMAP
07E000
07F000
07F000
007000
00E000
00E000
01C380
00C380
000380
000380
07FF80
1FFF00
3FFE00
7C3F00
780F00
F00F00
F00F80
F00780
F00780
F00780
F00780
F00780
F00F00
F00F00
780F00
7C3E00
3FFC00
1FF800
07E000
ENDCHAR
STARTCHAR 1EE0
ENCODING 7904
SWIDTH 722 0
DWIDTH 26 0
BBX 22 33 2 0
BITMAP
01C200
03F300
07FF80
033F00
021E1C
00001C
00001C
00001C
01FFFC
07FFF8
0FFFE0
1F07E0
3E01F0
7C00F8
7800F8
780078
F80078
F0007C
F0007C
F0007C
F0007C
F0007C
F0007C
F00078
F00078
780078
7800F8
7C00F0
3E01F0
1F07E0
0FFFC0
07FF80
01FC00
ENDCHAR
STARTCHAR 1EE1
ENCODING 7905
SWIDTH 555 0
DWIDTH 20 0
BBX 17 27 2 0
BITMAP
0F0800
1F9800
3FFC00
19F800
107380
000380
000380
000380
07FF80
1FFF00
3FFE00
7C3F00
780F00
F00F00
F00F80
F00780
F00780
F00780
F00780
F00780
F00F00
F00F00
780F00
7C3E00
3FFC00
1FF800
07E000
ENDCHAR
STARTCHAR 1EE2
ENCODING 7906
SWIDTH 722 0
DWIDTH 26 0
BBX 22 35 2 -6
BITMAP
00001C
00001C
00001C
00001C
01FFFC
07FFF8
0FFFE0
1F07E0
3E01F0
7C00F8
7800F8
780078
F80078
F0007C
F0007C
F0007C
F0007C
F0007C
F0007C
F00078
F00078
780078
7800F8
7C00F0
3E01F0
1F07E0
0FFFC0
07FF80
01FC00
000000
000000
007800
007800
007800
007800
ENDCHAR
STARTCHAR 1EE3
ENCODING 7907
SWIDTH 555 0
DWIDTH 20 0
BBX 17 29 2 -6
BITMAP
000380
000380
000380
000380
07FF80
1FFF00
3FFE00
7C3F00
780F00
F00F00
F00F80
F00780
F00780
F00780
F00780
F00780
F00F00
F00F00
780F00
7C3E00
3FFC00
1FF800
07E000
000000
000000
03C000
03C000
03C000
03C000
ENDCHAR
STARTCHAR 1EE4
ENCODING 7908
SWIDTH 694 0
DWIDTH 25 0
BBX 19 31 3 -6
BITMAP
F001E0
F001E0
F001E0
F001E0
F001E0
F001E0
F001E0
F001E0
F001E0
F001E0
F001E0
F001E0
F001E0
F001E0
F001E0
F001E0
F001E0
F001E0
F003C0
7803C0
7807C0
7E0F80
3FFF80
1FFE00
07F800
000000
000000
00E000
01F000
01F000
00E000
ENDCHAR
STARTCHAR 1EE5
ENCODING 7909
SWIDTH 583 0
DWIDTH 21 0
BBX 15 25 3 -6
BITMAP
F01E
F01E
F01E
F01E
F01E
F01E
F01E
F01E
F01E
F01E
F01E
F01E
F01E
F01E
F01E
F87E
7FFE
3FDE
1F1E
0000
0000
0380
07C0
07C0
0380
ENDCHAR
STARTCHAR 1EE6
ENCODING 7910
SWIDTH 694 0
DWIDTH 25 0
BBX 19 35 3 0
BITMAP
03F000
03F800
03F800
003800
007800
007000
00F000
006000
000000
000000
F001E0
F001E0
F001E0
F001E0
F001E0
F001E0
F001E0
F001E0
F001E0
F001E0
F001E0
F001E0
F001E0
F001E0
F001E0
F001E0
F001E0
F001E0
F003C0
7803C0
7807C0
7E0F80
3FFF80
1FFE00
07F800
ENDCHAR
STARTCHAR 1EE7
ENCODING 7911
SWIDTH 583 0
DWIDTH 21 0
BBX 15 29 3 0
BITMAP
0FC0
0FE0
0FE0
00E0
01E0
01C0
03C0
0180
0000
0000
F01E
F01E
F01E
F01E
F01E
F01E
F01E
F01E
F01E
F01E
F01E
F01E
F01E
F01E
F01E
F87E
7FFE
3FDE
1F1E
ENDCHAR
STARTCHAR 1EE8
ENCODING 7912
SWIDTH 694 0
DWIDTH 25 0
BBX 21 35 3 0
BITMAP
002000
003800
007C00
007800
00F000
00F000
01E038
004038
000038
000038
F001F8
F001F0
F001E0
F001E0
F001E0
F001E0
F001E0
F001E0
F001E0
F001E0
F001E0
F001E0
F001E0
F001E0
F001E0
F001E0
F001E0
F001E0
F003C0
7803C0
7807C0
7E0F80
3FFF80
1FFE00
07F800
ENDCHAR
STARTCHAR 1EE9
ENCODING 7913
SWIDTH 583 0
DWIDTH 21 0
BBX 18 29 3 0
BITMAP
008000
00E000
00F000
01E000
01C000
03C000
0383C0
0503C0
0003C0
0003C0
F01FC0
F01F80
F01E00
F01E00
F01E00
F01E00
F01E00
F01E00
F01E00
F01E00
F01E00
F01E00
F01E00
F01E00
F01E00
F87E00
7FFE00
3FDE00
1F1E00
ENDCHAR
STARTCHAR 1EEA
ENCODING 7914
SWIDTH 694 0
DWIDTH 25 0
BBX 21 35 3 0
BITMAP
010000
038000
078000
03C000
03C000
01E000
00E038
004038
000038
000038
F001F8
F001F0
F001E0
F001E0
F001E0
F001E0
F001E0
F001E0
F001E0
F001E0
F001E0
F001E0
F001E0
F001E0
F001E0
F001E0
F001E0
F001E0
F003C0
7803C0
7807C0
7E0F80
3FFF80
1FFE00
07F800
ENDCHAR
STARTCHAR 1EEB
ENCODING 7915
SWIDTH 583 0
DWIDTH 21 0
BBX 18 29 3 0
BITMAP
040000
0E0000
1E0000
0F0000
070000
078000
0383C0
0103C0
0003C0
0003C0
F01FC0
F01F80
F01E00
F01E00
F01E00
F01E00
F01E00
F01E00
F01E00
F01E00
F01E00
F01E00
F01E00
F01E00
F01E00
F87E00
7FFE00
3FDE00
1F1E00
ENDCHAR
STARTCHAR 1EEC
ENCODING 7916
SWIDTH 694 0
DWIDTH 25 0
BBX 21 35 3 0
BITMAP
03F000
03F800
03F800
003800
007800
007000
00E038
006038
000038
000038
F001F8
F001F0
F001E0
F001E0
F001E0
F001E0
F001E0
F001E0
F001E0
F001E0
F001E0
F001E0
F001E0
F001E0
F001E0
F001E0
F001E0
F001E0
F003C0
7803C0
7807C0
7E0F80
3FFF80
1FFE00
07F800
ENDCHAR
STARTCHAR 1EED
ENCODING 7917
SWIDTH 583 0
DWIDTH 21 0
BBX 18 29 3 0
BITMAP
0FC000
0FE000
0FE000
00E000
01E000
01C000
03C3C0
0183C0
0003C0
0003C0
F01FC0
F01F80
F01E00
F01E00
F01E00
F01E00
F01E00
F01E00
F01E00
F01E00
F01E00
F01E00
F01E00
F01E00
F01E00
F87E00
7FFE00
3FDE00
1F1E00
ENDCHAR
STARTCHAR 1EEE
ENCODING 7918
SWIDTH 694 0
DWIDTH 25 0
BBX 21 33 3 0
BITMAP
070400
0FCC00
1FFE00
0CFC00
083838
000038
000038
000038
F001F8
F001F0
F001E0
F001E0
F001E0
F001E0
F001E0
F001E0
F001E0
F001E0
F001E0
F001E0
F001E0
F001E0
F001E0
F001E0
F001E0
F001E0
F003C0
7803C0
7807C0
7E0F80
3FFF80
1FFE00
07F800
ENDCHAR
STARTCHAR 1EEF
ENCODING 7919
SWIDTH 583 0
DWIDTH 21 0
BBX 18 27 3 0
BITMAP
1E1000
3F1800
3FF800
33F000
20E3C0
0003C0
0003C0
0003C0
F01FC0
F01F80
F01E00
F01E00
F01E00
F01E00
F01E00
F01E00
F01E00
F01E00
F01E00
F01E00
F01E00
F01E00
F01E00
F87E00
7FFE00
3FDE00
1F1E00
ENDCHAR
STARTCHAR 1EF0
ENCODING 7920
SWIDTH 694 0
DWIDTH 25 0
BBX 21 35 3 -6
BITMAP
000038
000038
000038
000038
F001F8
F001F0
F001E0
F001E0
F001E0
F001E0
F001E0
F001E0
F001E0
F001E0
F001E0
F001E0
F001E0
F001E0
F001E0
F001E0
F001E0
F001E0
F003C0
7803C0
7807C0
7E0F80
3FFF80
1FFE00
07F800
000000
000000
00E000
01F000
01F000
00E000
ENDCHAR
STARTCHAR 1EF1
ENCODING 7921
SWIDTH 583 0
DWIDTH 21 0
BBX 18 29 3 -6
BITMAP
0003C0
0003C0
0003C0
0003C0
F01FC0
F01F80
F01E00
F01E00
F01E00
F01E00
F01E00
F01E00
F01E00
F01E00
F01E00
F01E00
F01E00
F01E00
F01E00
F87E00
7FFE00
3FDE00
1F1E00
000000
000000
078000
07C000
07C000
078000
ENDCHAR
STARTCHAR 1EF2
ENCODING 7922
SWIDTH 611 0
DWIDTH 22 0
BBX 22 35 0 0
BITMAP
004000
00C000
03E000
00E000
00F000
007000
003800
003000
000000
000000
F8007C
7C0078
3C00F0
3E01F0
1F01E0
0F03E0
0F83C0
078780
07C780
03CF00
03EF00
01FE00
00FE00
00FC00
007800
007800
007800
007800
007800
007800
007800
007800
007800
007800
007800
ENDCHAR
STARTCHAR 1EF3
ENCODING 7923
SWIDTH 527 0
DWIDTH 19 0
BBX 18 36 0 -7
BITMAP
010000
038000
078000
03C000
03C000
01E000
00E000
004000
000000
000000
F803C0
7803C0
780780
3C0780
3C0780
3C0F00
1E0F00
1E0E00
1E1E00
0F1E00
0F1C00
0F3C00
073C00
07B800
07B800
03F800
03F000
03F000
01F000
01E000
01E000
01E000
03C000
1FC000
1F8000
1F0000
ENDCHAR
STARTCHAR 1EF4
ENCODING 7924
SWIDTH 611 0
DWIDTH 22 0
BBX 22 31 0 -6
BITMAP
F8007C
7C0078
3C00F0
3E01F0
1F01E0
0F03E0
0F83C0
078780
07C780
03CF00
03EF00
01FE00
00FE00
00FC00
007800
007800
007800
007800
007800
007800
007800
007800
007800
007800
007800
000000
000000
007800
007800
007800
007800
ENDCHAR
STARTCHAR 1EF5
ENCODING 7925
SWIDTH 527 0
DWIDTH 19 0
BBX 18 26 0 -7
BITMAP
F803C0
7803C0
780780
3C0780
3C0780
3C0F00
1E0F00
1E0E00
1E1E00
0F1E00
0F1C00
0F3C00
073C00
07B800
07B800
03F800
03F000
03F000
01F000
01E000
01E000
01E700
03CF80
1FCF80
1F8700
1F0000
ENDCHAR
STARTCHAR 1EF6
ENCODING 7926
SWIDTH 611 0
DWIDTH 22 0
BBX 22 35 0 0
BITMAP
00FC00
00FE00
00FE00
000E00
001C00
001C00
003800
001800
000000
000000
F8007C
7C0078
3C00F0
3E01F0
1F01E0
0F03E0
0F83C0
078780
07C780
03CF00
03EF00
01FE00
00FE00
00FC00
007800
007800
007800
007800
007800
007800
007800
007800
007800
007800
007800
ENDCHAR
STARTCHAR 1EF7
ENCODING 7927
SWIDTH 527 0
DWIDTH 19 0
BBX 18 36 0 -7
BITMAP
03F000
03F800
03F800
003800
007800
007000
00E000
006000
000000
000000
F803C0
7803C0
780780
3C0780
3C0780
3C0F00
1E0F00
1E0E00
1E1E00
0F1E00
0F1C00
0F3C00
073C00
07B800
07B800
03F800
03F000
03F000
01F000
01E000
01E000
01E000
03C000
1FC000
1F8000
1F0000
ENDCHAR
STARTCHAR 1EF8
ENCODING 7928
SWIDTH 611 0
DWIDTH 22 0
BBX 22 33 0 0
BITMAP
01C100
07F180
07FFC0
063F80
020F00
000000
000000
000000
F8007C
7C0078
3C00F0
3E01F0
1F01E0
0F03E0
0F83C0
078780
07C780
03CF00
03EF00
01FE00
00FE00
00FC00
007800
007800
007800
007800
007800
007800
007800
007800
007800
007800
007800
ENDCHAR
STARTCHAR 1EF9
ENCODING 7929
SWIDTH 527 0
DWIDTH 19 0
BBX 18 34 0 -7
BITMAP
078200
0FC600
1FFF00
0CFE00
083C00
000000
000000
000000
F803C0
7803C0
780780
3C0780
3C0780
3C0F00
1E0F00
1E0E00
1E1E00
0F1E00
0F1C00
0F3C00
073C00
07B800
07B800
03F800
03F000
03F000
01F000
01E000
01E000
01E000
03C000
1FC000
1F8000
1F0000
ENDCHAR
STARTCHAR 2013
ENCODING 8211
SWIDTH 583 0
DWIDTH 21 0
BBX 19 3 1 9
BITMAP
FFFFE0
FFFFE0
FFFFE0
ENDCHAR
STARTCHAR 2014
ENCODING 8212
SWIDTH 777 0
DWIDTH 28 0
BBX 26 3 1 9
BITMAP
FFFFFFC0
FFFFFFC0
FFFFFFC0
ENDCHAR
STARTCHAR 2018
ENCODING 8216
SWIDTH 277 0
DWIDTH 10 0
BBX 7 10 2 17
BITMAP
1E
1C
38
70
70
78
FC
FC
78
78
ENDCHAR
STARTCHAR 2019
ENCODING 8217
SWIDTH 277 0
DWIDTH 10 0
BBX 7 10 1 17
BITMAP
3C
3E
3E
3E
3E
1C
1C
38
38
F0
ENDCHAR
STARTCHAR 201A
ENCODING 8218
SWIDTH 277 0
DWIDTH 10 0
BBX 7 10 1 -4
BITMAP
3C
3C
7E
3E
3C
1C
1C
38
38
F0
ENDCHAR
STARTCHAR 201C
ENCODING 8220
SWIDTH 500 0
DWIDTH 18 0
BBX 15 10 2 17
BITMAP
1E1E
1C38
3838
7070
7070
78F8
FCF8
FCF8
78F8
7878
ENDCHAR
STARTCHAR 201D
ENCODING 8221
SWIDTH 500 0
DWIDTH 18 0
BBX 15 10 1 17
BITMAP
3C3C
3E7C
3E7E
3E7E
3E3C
1C1C
1C1C
3838
3878
F0F0
ENDCHAR
STARTCHAR 201E
ENCODING 8222
SWIDTH 500 0
DWIDTH 18 0
BBX 14 10 1 -4
BITMAP
3C3C
3C7C
7E7C
3E7C
3C3C
1C1C
1C3C
3838
3870
F0E0
ENDCHAR
STARTCHAR 2020
ENCODING 8224
SWIDTH 527 0
DWIDTH 19 0
BBX 17 34 1 -7
BITMAP
01C000
01C000
01C000
01C000
01C000
01C000
01C000
01C000
FFFF80
FFFF80
FFFF80
01C000
01C000
01C000
01C000
01C000
01C000
01C000
01C000
01C000
01C000
01C000
01C000
01C000
01C000
01C000
01C000
01C000
01C000
01C000
01C000
01C000
01C000
01C000
ENDCHAR
STARTCHAR 2021
ENCODING 8225
SWIDTH 555 0
DWIDTH 20 0
BBX 16 34 2 -7
BITMAP
03C0
03C0
03C0
03C0
03C0
03C0
03C0
03C0
FFFF
FFFF
FFFF
03C0
03C0
03C0
03C0
03C0
03C0
03C0
03C0
03C0
03C0
03C0
03C0
FFFF
FFFF
FFFF
03C0
03C0
03C0
03C0
03C0
03C0
03C0
03C0
ENDCHAR
STARTCHAR 2022
ENCODING 8226
SWIDTH 416 0
DWIDTH 15 0
BBX 9 9 3 6
BITMAP
3E00
FF00
FF80
FF80
FF80
FF80
FF80
FF00
3E00
ENDCHAR
STARTCHAR 2026
ENCODING 8230
SWIDTH 833 0
DWIDTH 30 0
BBX 25 5 3 0
BITMAP
F03C0F00
F83E0F80
F83E0F80
F83E0F80
F03C0F00
ENDCHAR
STARTCHAR 2030
ENCODING 8240
SWIDTH 1333 0
DWIDTH 48 0
BBX 44 25 2 0
BITMAP
1F8003C00000
3FC007800000
7FE00F000000
78F01E000000
F0F01C000000
F0703C000000
F07078000000
F07070000000
F070F0000000
F0F1E0000000
78F1C0000000
7FE3C7E01F80
3FC78FF03FC0
1F871FF87FE0
000E3C3870F0
001E3C3CF0F0
003C383CF070
0038381CF070
0078381CF070
00F0383CF070
00E03C3CF0F0
01E03C3870F0
03C01FF87FE0
03800FF03FC0
078007E01F80
ENDCHAR
STARTCHAR 2032
ENCODING 8242
SWIDTH 250 0
DWIDTH 9 0
BBX 5 12 2 13
BITMAP
38
38
78
78
78
70
70
F0
F0
F0
F0
E0
ENDCHAR
STARTCHAR 2033
ENCODING 8243
SWIDTH 444 0
DWIDTH 16 0
BBX 13 12 2 13
BITMAP
3878
3870
78F0
78F0
78F0
70F0
70E0
F0E0
F1E0
F1E0
F1E0
E1E0
ENDCHAR
STARTCHAR 2039
ENCODING 8249
SWIDTH 305 0
DWIDTH 11 0
BBX 8 15 1 3
BITMAP
02
07
0F
1E
3C
7C
F8
F0
F0
F8
3C
1E
0F
07
03
ENDCHAR
STARTCHAR 203A
ENCODING 8250
SWIDTH 305 0
DWIDTH 11 0
BBX 8 15 2 3
BITMAP
40
E0
F0
78
3C
1E
1F
0F
0F
1F
3E
78
F0
E0
40
ENDCHAR
STARTCHAR 2044
ENCODING 8260
SWIDTH 138 0
DWIDTH 5 0
BBX 21 25 -8 0
BITMAP
000038
000070
0000F0
0000E0
0001C0
000380
000780
000700
000E00
001E00
001C00
003800
007000
00F000
00E000
01C000
038000
078000
070000
0E0000
1E0000
1C0000
380000
700000
F00000
ENDCHAR
STARTCHAR 2070
ENCODING 8304
SWIDTH 361 0
DWIDTH 13 0
BBX 11 13 1 12
BITMAP
1F00
3FC0
71C0
70E0
E0E0
E0E0
E0E0
E0E0
E0E0
70E0
71C0
3FC0
1F00
ENDCHAR
STARTCHAR 2074
ENCODING 8308
SWIDTH 333 0
DWIDTH 12 0
BBX 11 13 1 12
BITMAP
0780
0F80
0F80
1B80
3B80
7380
6380
C380
FFE0
FFE0
0380
0380
0380
ENDCHAR
STARTCHAR 2075
ENCODING 8309
SWIDTH 361 0
DWIDTH 13 0
BBX 11 13 1 12
BITMAP
7FC0
7FC0
6000
6000
6F00
7FC0
71C0
01C0
00E0
61C0
F1C0
7F80
3F00
ENDCHAR
STARTCHAR 2076
ENCODING 8310
SWIDTH 361 0
DWIDTH 13 0
BBX 11 13 1 12
BITMAP
0780
1E00
3C00
3800
7000
7780
EFC0
F1E0
E0E0
E0E0
71C0
7FC0
1F00
ENDCHAR
STARTCHAR 2077
ENCODING 8311
SWIDTH 333 0
DWIDTH 12 0
BBX 10 13 1 12
BITMAP
FFC0
FFC0
C1C0
C380
0380
0780
0700
0700
0E00
0E00
1C00
1C00
3800
ENDCHAR
STARTCHAR 2078
ENCODING 8312
SWIDTH 361 0
DWIDTH 13 0
BBX 11 13 1 12
BITMAP
1F80
7FC0
71C0
60C0
71C0
3F80
3F80
71C0
E0E0
E0E0
71E0
7FC0
1F00
ENDCHAR
STARTCHAR 2079
ENCODING 8313
SWIDTH 361 0
DWIDTH 13 0
BBX 11 13 1 12
BITMAP
1F00
7F80
F1C0
E0C0
E0E0
F1E0
7EE0
3DC0
01C0
0380
0700
0F00
3C00
ENDCHAR
STARTCHAR 2080
ENCODING 8320
SWIDTH 361 0
DWIDTH 13 0
BBX 11 13 1 0
BITMAP
1F00
3FC0
71C0
70E0
E0E0
E0E0
E0E0
E0E0
E0E0
70E0
71C0
3FC0
1F00
ENDCHAR
STARTCHAR 2081
ENCODING 8321
SWIDTH 361 0
DWIDTH 13 0
BBX 11 13 1 0
BITMAP
1E00
3E00
7600
E600
4600
0600
0600
0600
0600
0600
0600
7FE0
7FE0
ENDCHAR
STARTCHAR 2082
ENCODING 8322
SWIDTH 333 0
DWIDTH 12 0
BBX 10 13 1 0
BITMAP
3F00
7F80
E3C0
61C0
01C0
03C0
0380
0F00
1E00
3800
F000
FFC0
FFC0
ENDCHAR
STARTCHAR 2083
ENCODING 8323
SWIDTH 333 0
DWIDTH 12 0
BBX 10 13 1 0
BITMAP
3F00
FF80
63C0
41C0
03C0
1F00
1F80
03C0
01C0
41C0
E3C0
FF80
3F00
ENDCHAR
STARTCHAR 2084
ENCODING 8324
SWIDTH 333 0
DWIDTH 12 0
BBX 11 13 1 0
BITMAP
0780
0F80
0F80
1B80
3B80
7380
6380
C380
FFE0
FFE0
0380
0380
0380
ENDCHAR
STARTCHAR 2085
ENCODING 8325
SWIDTH 361 0
DWIDTH 13 0
BBX 11 13 1 0
BITMAP
7FC0
7FC0
6000
6000
6F00
7FC0
71C0
01C0
00E0
61C0
F1C0
7F80
3F00
ENDCHAR
STARTCHAR 2086
ENCODING 8326
SWIDTH 361 0
DWIDTH 13 0
BBX 11 13 1 0
BITMAP
0780
1E00
3C00
3800
7000
7780
EFC0
F1E0
E0E0
E0E0
71C0
7FC0
1F00
ENDCHAR
STARTCHAR 2087
ENCODING 8327
SWIDTH 333 0
DWIDTH 12 0
BBX 10 13 1 0
BITMAP
FFC0
FFC0
C1C0
C380
0380
0780
0700
0700
0E00
0E00
1C00
1C00
3800
ENDCHAR
STARTCHAR 2088
ENCODING 8328
SWIDTH 361 0
DWIDTH 13 0
BBX 11 13 1 0
BITMAP
1F80
7FC0
71C0
60C0
71C0
3F80
3F80
71C0
E0E0
E0E0
71E0
7FC0
1F00
ENDCHAR
STARTCHAR 2089
ENCODING 8329
SWIDTH 361 0
DWIDTH 13 0
BBX 11 13 1 0
BITMAP
1F00
7F80
F1C0
E0C0
E0E0
F1E0
7EE0
3DC0
01C0
0380
0700
0F00
3C00
ENDCHAR
STARTCHAR 20A1
ENCODING 8353
SWIDTH 611 0
DWIDTH 22 0
BBX 19 31 2 -3
BITMAP
00EE00
00EE00
00CE00
00CE00
01FE00
07FF00
1FFFC0
3FCFC0
3DCDE0
79DC80
79DC00
F19C00
F19C00
F19800
F19800
F19800
F39800
F39800
F3B800
F3B800
7B3900
7F39C0
3F31E0
3F37C0
1FFFC0
07FF00
07FC00
077000
077000
077000
067000
ENDCHAR
STARTCHAR 20A4
ENCODING 8356
SWIDTH 583 0
DWIDTH 21 0
BBX 18 25 2 0
BITMAP
01FC00
0FFF00
1FFF80
3F0FC0
3E0380
3C0200
7C0000
780000
780000
FFF800
FFF800
FFF800
3C0000
1E0000
1E0000
FFF800
FFF800
FFF800
1E0000
1E0000
3C0000
780000
7FFF80
7FFF80
7FFF80
ENDCHAR
STARTCHAR 20A6
ENCODING 8358
SWIDTH 722 0
DWIDTH 26 0
BBX 25 25 1 0
BITMAP
1E003C00
1F003C00
1F803C00
1F803C00
1FC03C00
1FC03C00
1DE03C00
1DE03C00
FCFFFF80
FC7FFF80
FC7FFF80
1C383C00
1C3C3C00
1C1E3C00
FFFE3F80
FFFF3F80
FFFF3F80
1C07BC00
1C07BC00
1C03FC00
1C03FC00
1C01FC00
1C00FC00
1C00FC00
1C007C00
ENDCHAR
STARTCHAR 20A8
ENCODING 8360
SWIDTH 777 0
DWIDTH 28 0
BBX 24 25 3 0
BITMAP
FFC000
FFF000
FFF800
F07C00
F03C00
F03C00
F03C00
F03C3E
F03CFF
F03CFF
F07DE2
FFF9E0
FFF1E0
FFE1F0
F1F0F8
F0F07C
F0F83E
F0781E
F07C0F
F03C0F
F03E0F
F01F0F
F01FFE
F00FFE
F003F8
ENDCHAR
STARTCHAR 20A9
ENCODING 8361
SWIDTH 972 0
DWIDTH 35 0
BBX 33 25 1 0
BITMAP
7803E00F80
7803E00F00
3803F00F00
3C03F00F00
3C07F00E00
3C07701E00
3C07781E00
1E07781E00
FFFF3FFF80
FFFE3FFF80
FFFE3FFF80
0E0E3C3C00
0F1E1C3800
0F1C1C3800
FF1FFE7F80
FF1FFE7F80
FF3FFE7F80
07B80E7000
07B80FF000
07B80FF000
03F807E000
03F007E000
03F007E000
03F007E000
01E003C000
ENDCHAR
STARTCHAR 20AA
ENCODING 8362
SWIDTH 833 0
DWIDTH 30 0
BBX 24 25 3 0
BITMAP
FFF80F
FFFE0F
FFFF0F
F00F0F
F0078F
F0078F
F1C78F
F1C78F
F1C78F
F1C78F
F1C78F
F1C78F
F1C78F
F1C78F
F1C78F
F1C78F
F1C78F
F1C78F
F1C78F
F1C00F
F1C00E
F1C01E
F1FFFE
F1FFFC
F1FFF0
ENDCHAR
STARTCHAR 20AB
ENCODING 8363
SWIDTH 583 0
DWIDTH 21 0
BBX 17 27 2 0
BITMAP
001E00
001E00
03FF80
03FF80
03FF80
001E00
001E00
001E00
1F9E00
3FDE00
7FFE00
783E00
F01E00
F01E00
F01E00
F01E00
F01E00
F01E00
783E00
7FFE00
3FDE00
1F9E00
000000
000000
FFFF00
FFFF00
FFFF00
ENDCHAR
STARTCHAR 20AC
ENCODING 8364
SWIDTH 638 0
DWIDTH 23 0
BBX 19 25 2 0
BITMAP
01FC00
07FF00
0FFF80
1F07C0
3C03E0
780180
780000
780000
FFF800
FFF800
FFF800
F00000
F00000
F00000
FFF800
FFF800
FFF800
780000
780080
7801C0
3C01E0
1F07C0
1FFF80
07FF00
01FC00
ENDCHAR
STARTCHAR 20AD
ENCODING 8365
SWIDTH 638 0
DWIDTH 23 0
BBX 23 25 0 0
BITMAP
1E007C
1E00F8
1E01F0
1E01E0
1E03E0
1E07C0
1E0780
1E0F00
1E1F00
1E1E00
1E3C00
FFFFF8
FFFFF8
FFFFF8
1E3E00
1E1E00
1E0F00
1E0F80
1E07C0
1E03C0
1E03E0
1E01F0
1E00F8
1E0078
1E007E
ENDCHAR
STARTCHAR 20AE
ENCODING 8366
SWIDTH 611 0
DWIDTH 22 0
BBX 19 25 1 0
BITMAP
FFFFE0
FFFFE0
FFFFE0
00F000
00F000
00F000
00F080
00F380
00FF80
00FF00
00FC00
03F000
0FF080
1FF380
1CFF80
10FE00
00F800
07F000
1FF000
1EF000
18F000
00F000
00F000
00F000
00F000
ENDCHAR
STARTCHAR 20B1
ENCODING 8369
SWIDTH 666 0
DWIDTH 24 0
BBX 22 25 1 0
BITMAP
1FFE00
1FFF80
1FFFC0
1E03C0
1E01E0
FFFFFC
FFFFFC
FFFFFC
1E01E0
1E01E0
1E01E0
FFFFFC
FFFFFC
FFFFFC
1E01C0
1E03C0
1FFF80
1FFF80
1FFE00
1E0000
1E0000
1E0000
1E0000
1E0000
1E0000
ENDCHAR
STARTCHAR 20B2
ENCODING 8370
SWIDTH 666 0
DWIDTH 24 0
BBX 20 31 2 -3
BITMAP
001C00
001C00
001C00
001C00
01FC00
07FF00
1FFFC0
3F3FC0
3C39E0
7831E0
787080
F07000
F07000
F07000
F07000
F07FF0
F0FFF0
F0FFF0
F0E0F0
F0E0F0
78C0F0
79C0F0
3DC1E0
3FC7C0
1FFFC0
07FF00
03FC00
038000
038000
038000
038000
ENDCHAR
STARTCHAR 20B4
ENCODING 8372
SWIDTH 638 0
DWIDTH 23 0
BBX 19 25 2 0
BITMAP
03F800
0FFC00
1FFF00
3E1F00
080780
000780
000780
000780
FFFFE0
FFFFE0
FFFFE0
00FC00
03F000
07C000
FFFFE0
FFFFE0
FFFFE0
3C0000
3C0000
3C0000
3C0300
1E0780
1FFF80
0FFE00
03F800
ENDCHAR
STARTCHAR 20B5
ENCODING 8373
SWIDTH 611 0
DWIDTH 22 0
BBX 19 31 2 -3
BITMAP
001C00
001C00
001C00
001C00
01FC00
07FF00
1FFF80
3F3FC0
3C3BE0
783180
787100
F07000
F07000
F07000
F07000
F06000
F0E000
F0E000
F0E000
F8E000
78C100
79C1C0
3DC3E0
3FC7C0
1FFF80
07FF00
03FC00
038000
038000
038000
038000
ENDCHAR
STARTCHAR 20B8
ENCODING 8376
SWIDTH 611 0
DWIDTH 22 0
BBX 19 25 1 0
BITMAP
FFFFE0
FFFFE0
FFFFE0
000000
000000
000000
FFFFE0
FFFFE0
FFFFE0
00F000
00F000
00F000
00F000
00F000
00F000
00F000
00F000
00F000
00F000
00F000
00F000
00F000
00F000
00F000
00F000
ENDCHAR
STARTCHAR 20B9
ENCODING 8377
SWIDTH 611 0
DWIDTH 22 0
BBX 19 25 2 0
BITMAP
FFFFE0
FFFFE0
FFFFE0
007800
001C00
001E00
FFFFE0
FFFFE0
FFFFE0
001E00
001E00
007C00
FFF800
FFF000
FFC000
078000
07C000
03E000
01F000
00F000
00F800
007C00
003E00
003E00
001F00
ENDCHAR
STARTCHAR 20BA
ENCODING 8378
SWIDTH 611 0
DWIDTH 22 0
BBX 20 25 1 0
BITMAP
1E0000
1E0000
1E0000
1E0400
1E1C00
1E7C00
1FF800
1FC000
3F0000
FE0C00
FE3C00
DEFC00
9FF000
1FC000
3F0000
FE00F0
FE00F0
DE01E0
9E01E0
1E01E0
1E03C0
1E07C0
1FFF80
1FFF00
1FFC00
ENDCHAR
STARTCHAR 20BD
ENCODING 8381
SWIDTH 638 0
DWIDTH 23 0
BBX 21 25 1 0
BITMAP
1FFF00
1FFFC0
1FFFE0
1E01F0
1E00F0
1E00F0
1E00F8
1E00F8
1E00F8
1E00F0
1E00F0
1E01F0
FFFFE0
FFFFC0
FFFF00
1E0000
1E0000
1E0000
FFFF00
FFFF00
FFFF00
1E0000
1E0000
1E0000
1E0000
ENDCHAR
STARTCHAR 20BF
ENCODING 8383
SWIDTH 638 0
DWIDTH 23 0
BBX 19 31 3 -3
BITMAP
0E7000
0E7000
0E7000
0E7000
FFFC00
FFFF00
FFFF80
F00780
F00780
F003C0
F003C0
F003C0
F00780
F00780
FFFE00
FFFE00
FFFF80
F007C0
F003C0
F003C0
F003E0
F003C0
F003C0
F007C0
FFFF80
FFFF00
FFFE00
0E7000
0E7000
0E7000
0E7000
ENDCHAR
STARTCHAR 2113
ENCODING 8467
SWIDTH 527 0
DWIDTH 19 0
BBX 17 27 1 0
BITMAP
03F000
07F800
0FFC00
0F3C00
1E1C00
1E1E00
1E1E00
1E1C00
1E1C00
1E3C00
1E3C00
1E3800
1E7800
1EF000
1FE000
1FC000
1F8000
1F0000
7E0000
FE0000
7E0400
5E0700
1E0F80
0F1F00
0FFE00
07FC00
01F000
ENDCHAR
STARTCHAR 2116
ENCODING 8470
SWIDTH 1027 0
DWIDTH 37 0
BBX 33 25 3 0
BITMAP
F801E07C00
F801E1FE00
FC01E3FF00
FC01E38780
FE01E70380
FF01E70380
FF01E70380
F781E70380
F781E38780
F3C1E3FF00
F3C1E1FE00
F1E1E07C00
F1E1E00000
F0F1E00000
F0F1E3FF00
F079E3FF00
F079E3FF00
F03DE00000
F01DE00000
F01FE00000
F00FE00000
F00FE00000
F007E00000
F007E00000
F003E00000
ENDCHAR
STARTCHAR 2122
ENCODING 8482
SWIDTH 638 0
DWIDTH 23 0
BBX 19 9 1 16
BITMAP
FF70E0
1878E0
1879E0
186DE0
186F60
186760
186660
186260
186060
ENDCHAR
STARTCHAR 2126
ENCODING 8486
SWIDTH 722 0
DWIDTH 26 0
BBX 22 26 2 -1
BITMAP
01FC00
07FF80
0FFFC0
1F07E0
3E01F0
7C00F0
780078
780078
F80078
F0007C
F0007C
F0007C
F0007C
F0007C
F8007C
780078
780078
7C00F0
3E01F0
1F03E0
0F87C0
078780
FF87FC
FF87FC
FF87FC
0007FC
ENDCHAR
STARTCHAR 212E
ENCODING 8494
SWIDTH 722 0
DWIDTH 26 0
BBX 24 25 1 0
BITMAP
00FF00
03FFC0
0F81E0
1E0070
1C0038
3C003C
7C003C
7C003E
7C003E
FC003E
FC003F
FFFFFF
FFFFFF
FC0000
FC0000
FC0000
7C0000
7C0000
7C0008
3C000E
1C001C
1E0038
0F81F0
03FFC0
00FF00
ENDCHAR
STARTCHAR 2150
ENCODING 8528
SWIDTH 861 0
DWIDTH 31 0
BBX 29 25 1 0
BITMAP
1E0003C0
3E000780
76000700
E6000E00
46001C00
06003C00
06003800
06007000
0600E000
0600E000
0601C000
7FE38000
7FE79FF8
00071FF8
000E1838
001C1838
003C0070
00380070
007000E0
00F000E0
00E001C0
01C001C0
03800380
07800380
0F000780
ENDCHAR
STARTCHAR 2151
ENCODING 8529
SWIDTH 888 0
DWIDTH 32 0
BBX 29 25 1 0
BITMAP
1E0003C0
3E000780
76000700
E6000E00
46001C00
06003C00
06003800
06007000
0600E000
0600E000
0601C000
7FE38000
7FE787E0
00070FF0
000E1C38
001C1C38
003C1C38
00381C38
00700FF8
00F007B8
00E00078
01C00070
038000E0
078003C0
0F000F80
ENDCHAR
STARTCHAR 2153
ENCODING 8531
SWIDTH 861 0
DWIDTH 31 0
BBX 29 25 1 0
BITMAP
1E0003C0
3E000780
76000700
E6000E00
46001C00
06003C00
06003800
06007000
0600E000
0600E000
0601C000
7FE38000
7FE787E0
00071FF0
000E1C78
001C0838
003C0070
003803E0
007003E0
00F00078
00E00038
01C00838
03801C78
07803FF0
0F0007E0
ENDCHAR
STARTCHAR 2154
ENCODING 8532
SWIDTH 833 0
DWIDTH 30 0
BBX 28 25 1 0
BITMAP
3F000780
7F800700
E3C00E00
61C01C00
01C03C00
03C03800
03807000
0F00E000
1E01E000
3801C000
F0038000
FFC78000
FFC70FC0
000E3FE0
001C38F0
003C1070
003800E0
007007C0
00E007C0
01E000F0
01C00070
03801070
078038F0
07007FE0
1E000F80
ENDCHAR
STARTCHAR 2155
ENCODING 8533
SWIDTH 861 0
DWIDTH 31 0
BBX 29 25 1 0
BITMAP
1E0003C0
3E000780
76000700
E6000E00
46001C00
06003C00
06003800
06007000
0600E000
0600E000
0601C000
7FE38000
7FE78FF8
00070FF8
000E0C00
001C0C00
003C0DE0
00381FF0
00701C78
00F00038
00E00038
01C00838
03801C38
07800FF0
0F0007E0
ENDCHAR
STARTCHAR 2156
ENCODING 8534
SWIDTH 861 0
DWIDTH 31 0
BBX 28 25 1 0
BITMAP
3F000780
7F800700
E3C00E00
61C01C00
01C03C00
03C03800
03807000
0F00E000
1E01E000
3801C000
F0038000
FFC78000
FFC71FF0
000E1FF0
001C1800
003C1800
00381BC0
00701FF0
00E01870
01E00070
01C00070
03801870
07803870
07001FE0
1E000FC0
ENDCHAR
STARTCHAR 2157
ENCODING 8535
SWIDTH 861 0
DWIDTH 31 0
BBX 29 25 1 0
BITMAP
3F000780
FF800700
63C00E00
41C01C00
03C01C00
1F003800
1F807000
03C0F000
01C0E000
41C1C000
E3C38000
FF878000
3F071FF0
000E1FF0
001C1800
001C1800
00381BC0
00701FF0
00F01C70
00E00078
01C00038
03801878
07803C70
07001FE0
0E000FC0
ENDCHAR
STARTCHAR 2158
ENCODING 8536
SWIDTH 861 0
DWIDTH 31 0
BBX 29 25 1 0
BITMAP
07800380
0F800700
0F800E00
1B801E00
3B801C00
73803800
63807800
C3807000
FFE0E000
FFE1C000
0383C000
03838000
03871FF0
000E1FF0
001E1C00
001C1800
003819E0
00781BF0
00701C78
00E00038
01C00038
03C00838
03803C70
07001FF0
0E0007C0
ENDCHAR
STARTCHAR 2159
ENCODING 8537
SWIDTH 861 0
DWIDTH 31 0
BBX 29 25 1 0
BITMAP
1E0003C0
3E000780
76000700
E6000E00
46001C00
06003C00
06003800
06007000
0600E000
0600E000
0601C000
7FE38000
7FE783E0
00070780
000E0F00
001C1E00
003C1C00
00383BE0
00703FF0
00F03870
00E03878
01C03870
03803870
07801FE0
0F000FC0
ENDCHAR
STARTCHAR 215A
ENCODING 8538
SWIDTH 833 0
DWIDTH 30 0
BBX 28 25 1 0
BITMAP
7FC00380
7FC00700
60000E00
60000E00
6F001C00
7FC03800
71C07800
01C07000
00E0E000
61C1C000
F1C3C000
7F838000
3F0703E0
000E0780
000E0E00
001C1C00
00383800
00783BC0
00703FE0
00E07870
01C03070
03C03070
03803870
07001FE0
0E000F80
ENDCHAR
STARTCHAR 215B
ENCODING 8539
SWIDTH 888 0
DWIDTH 32 0
BBX 30 25 1 0
BITMAP
1E0003C0
3E000780
76000700
E6000E00
46001C00
06003C00
06003800
06007000
0600E000
0600E000
0601C000
7FE38000
7FE787E0
00070FF8
000E0E38
001C1C38
003C0E38
003807F0
007007F0
00F01E38
00E01C1C
01C01C1C
03801E38
07800FF8
0F0007E0
ENDCHAR
STARTCHAR 215C
ENCODING 8540
SWIDTH 861 0
DWIDTH 31 0
BBX 29 25 1 0
BITMAP
3F000780
FF800700
63C00E00
41C01C00
03C01C00
1F003800
1F807000
03C0F000
01C0E000
41C1C000
E3C38000
FF878000
3F0707E0
000E1FF0
001C1C70
001C1C38
00381C70
00700FE0
00F00FE0
00E01C78
01C03838
03803838
07801C78
07001FF0
0E0007E0
ENDCHAR
STARTCHAR 215D
ENCODING 8541
SWIDTH 888 0
DWIDTH 32 0
BBX 29 25 1 0
BITMAP
7FC00380
7FC00700
60000E00
60000E00
6F001C00
7FC03800
71C07800
01C07000
00E0E000
61C1C000
F1C3C000
7F838000
3F0707E0
000E0FF0
000E1C38
001C1C38
00381C30
007807E0
00700FF0
00E01C38
01C01C38
03C01C38
03801C38
07001FF0
0E0007E0
ENDCHAR
STARTCHAR 215E
ENCODING 8542
SWIDTH 833 0
DWIDTH 30 0
BBX 28 25 1 0
BITMAP
FFC00F00
FFC00E00
C1C01C00
C3803800
03807800
07807000
0700E000
0701C000
0E03C000
0E038000
1C070000
1C0F0000
380E0F80
001C3FE0
003838E0
00783060
007038E0
00E01FC0
01C01FC0
03C038E0
03807070
07007070
0F0078F0
0E003FE0
3C000F80
ENDCHAR
STARTCHAR 2190
ENCODING 8592
SWIDTH 861 0
DWIDTH 31 0
BBX 25 15 3 5
BITMAP
01000000
03800000
07C00000
0F000000
1E000000
3C000000
7FFFFF80
FFFFFF80
7FFFFF80
3C000000
1E000000
0F000000
07800000
03C00000
01000000
ENDCHAR
ENDFONT
